<svg id="b6291f3b-bfca-4640-b7e9-50336510ce03" data-name="bad8b1f5-1543-4637-bb0d-15c542fa5b12" xmlns="http://www.w3.org/2000/svg" viewBox="0 0 506.7666 259.5988"><defs><style>.eb496913-e88c-448a-8c07-723cf44415ae{fill:#fff;}.bf5db6a2-a5ee-4910-b88b-fbbe33a7cd0d,.fab31f14-2352-4e44-ac76-29eb32241995{fill:none;stroke:#1d1d1b;stroke-linecap:round;stroke-miterlimit:10;}.bf5db6a2-a5ee-4910-b88b-fbbe33a7cd0d{stroke-width:2px;}.ebfd0d5c-ee08-4e78-b462-fa072bffc153{fill:#1d1d1b;}.b6e9f41c-3f46-4a12-832d-58f30db729be{isolation:isolate;}.aa14cddf-7ef8-4c96-925b-32b87a40ab2d{fill:#e62a35;}.a30ecb2e-27a9-41f9-924d-ff30b9b11f98{fill:#ec681c;}.b6bcd5b4-44c4-4c93-9a5c-506700a3838b{fill:#93b722;}.ba5ca754-606f-48aa-9ae0-48575ec9eb8d{fill:#47ac34;}</style></defs><rect class="eb496913-e88c-448a-8c07-723cf44415ae" width="506.7666" height="259.5988"/><line class="bf5db6a2-a5ee-4910-b88b-fbbe33a7cd0d" x1="124.698" y1="73.6127" x2="388.4088" y2="73.6127"/><line class="bf5db6a2-a5ee-4910-b88b-fbbe33a7cd0d" x1="124.698" y1="73.6127" x2="124.698" y2="92.9279"/><path class="ebfd0d5c-ee08-4e78-b462-fa072bffc153" d="M124.698,104.9982c-2.1074-5.68-5.7031-12.7265-9.5117-17.0947l9.5117,3.44,9.51-3.44C130.3992,92.2717,126.8032,99.3186,124.698,104.9982Z"/><line class="bf5db6a2-a5ee-4910-b88b-fbbe33a7cd0d" x1="256.5532" y1="42.2272" x2="256.5532" y2="73.6127"/><line class="bf5db6a2-a5ee-4910-b88b-fbbe33a7cd0d" x1="388.4088" y1="73.6127" x2="388.4088" y2="92.9279"/><path class="ebfd0d5c-ee08-4e78-b462-fa072bffc153" d="M388.4088,104.9982c-2.1074-5.68-5.703-12.7265-9.5117-17.0947l9.5117,3.44,9.51-3.44C394.11,92.2717,390.5143,99.3186,388.4088,104.9982Z"/><line class="fab31f14-2352-4e44-ac76-29eb32241995" x1="55.1855" y1="156.1" x2="194.2105" y2="156.1"/><line class="fab31f14-2352-4e44-ac76-29eb32241995" x1="55.1855" y1="156.1" x2="55.1855" y2="170.133"/><polygon class="ebfd0d5c-ee08-4e78-b462-fa072bffc153" points="55.186 177.193 51.12 167.244 55.186 169.605 59.25 167.244 55.186 177.193"/><line class="fab31f14-2352-4e44-ac76-29eb32241995" x1="124.6979" y1="135.0064" x2="124.6979" y2="156.1"/><line class="fab31f14-2352-4e44-ac76-29eb32241995" x1="194.2106" y1="156.1" x2="194.2106" y2="170.133"/><polygon class="ebfd0d5c-ee08-4e78-b462-fa072bffc153" points="194.211 177.193 190.146 167.244 194.211 169.605 198.275 167.244 194.211 177.193"/><g class="b6e9f41c-3f46-4a12-832d-58f30db729be"><path class="ebfd0d5c-ee08-4e78-b462-fa072bffc153" d="M173.9707,13.7079h4.0869q6.5655,0,6.5654,6.3721,0,6.5127-6.5654,6.5127h-4.0869Zm1.7051,11.3555h2.3467q2.8037,0,3.8232-1.3047a5.8545,5.8545,0,0,0,1.0195-3.6787,5.5855,5.5855,0,0,0-1.0151-3.5772q-1.0152-1.2656-3.8276-1.2656h-2.3467Z"/><path class="ebfd0d5c-ee08-4e78-b462-fa072bffc153" d="M187.2773,28.8427q1.2306,0,2.0127-2.25l-3.5244-9.3252h1.793l2.47,7.2949,2.47-7.2949h1.793l-3.5244,9.3252q-.51,1.3359-.8657,2.06a3.81,3.81,0,0,1-.9317,1.2227,2.09,2.09,0,0,1-1.4106.496,4.0911,4.0911,0,0,1-1.0723-.123V28.72A2.5946,2.5946,0,0,0,187.2773,28.8427Z"/><path class="ebfd0d5c-ee08-4e78-b462-fa072bffc153" d="M197.4111,18.454a3.6654,3.6654,0,0,1,2.7862-1.3975q3.1552,0,3.1552,3.4365v6.1h-1.6611V20.5634a2.61,2.61,0,0,0-.4087-1.6436,1.6336,1.6336,0,0,0-1.34-.501,3.4675,3.4675,0,0,0-2.5313,1.4942v6.68H195.75V17.2675h1.6611Z"/><path class="ebfd0d5c-ee08-4e78-b462-fa072bffc153" d="M211.667,25.6346a4.596,4.596,0,0,1-3.2607,1.1778,3.441,3.441,0,0,1-2.2852-.751,2.415,2.415,0,0,1-.8965-1.9385q0-3.27,5.6338-3.27h.8086a7.101,7.101,0,0,0-.1055-1.4541,1.208,1.208,0,0,0-.5888-.752,3.0257,3.0257,0,0,0-1.5381-.2988q-2.2149,0-2.2852,1.582h-1.6523q.1845-2.874,4.0254-2.874a4.7627,4.7627,0,0,1,2.7949.7119,3.2391,3.2391,0,0,1,1.0019,2.795v6.0293H211.667Zm0-1.4941V22.0751h-1.1338q-3.6034,0-3.6035,1.96a1.2723,1.2723,0,0,0,.5273,1.0948,2.3855,2.3855,0,0,0,1.4239.3818,3.5982,3.5982,0,0,0,1.582-.3691A3.0367,3.0367,0,0,0,211.667,24.1405Z"/><path class="ebfd0d5c-ee08-4e78-b462-fa072bffc153" d="M228.375,26.5927h-1.6611V20.5634a3.0582,3.0582,0,0,0-.334-1.6524,1.25,1.25,0,0,0-1.1162-.4922,3.15,3.15,0,0,0-2.3643,1.4942v6.68h-1.6523V20.5634a3.0582,3.0582,0,0,0-.334-1.6524,1.26,1.26,0,0,0-1.125-.4922,3.1277,3.1277,0,0,0-2.3555,1.4942v6.68h-1.6611V17.2675h1.6611V18.454a3.3947,3.3947,0,0,1,2.61-1.3975,2.4457,2.4457,0,0,1,2.61,1.6875,5.2258,5.2258,0,0,1,1.5821-1.3935,3.0907,3.0907,0,0,1,1.2744-.294q2.8652,0,2.8652,3.4365Z"/><path class="ebfd0d5c-ee08-4e78-b462-fa072bffc153" d="M232.4268,15.5009h-1.6612v-1.793h1.6612Zm0,11.0918h-1.6612V17.2675h1.6612Z"/><path class="ebfd0d5c-ee08-4e78-b462-fa072bffc153" d="M238.6494,26.8124a4.1374,4.1374,0,0,1-3.1772-1.2783,5.0844,5.0844,0,0,1-1.1909-3.6,5.0781,5.0781,0,0,1,1.1909-3.6035,4.599,4.599,0,0,1,5.73-.5009,3.1548,3.1548,0,0,1,1.2085,2.2324h-1.705a1.5771,1.5771,0,0,0-.6285-1.2744,2.3319,2.3319,0,0,0-1.4282-.4395,2.373,2.373,0,0,0-1.9248.9,4.1664,4.1664,0,0,0-.7383,2.6855,4.1437,4.1437,0,0,0,.7383,2.6758,2.3682,2.3682,0,0,0,1.9248.9014,2.3319,2.3319,0,0,0,1.4282-.44,1.5684,1.5684,0,0,0,.6285-1.2656h1.705a3.1548,3.1548,0,0,1-1.2085,2.2324A4.1145,4.1145,0,0,1,238.6494,26.8124Z"/><path class="ebfd0d5c-ee08-4e78-b462-fa072bffc153" d="M248.8711,13.7079h4.8076a10.1363,10.1363,0,0,1,2.65.2949,2.8565,2.8565,0,0,1,1.6914,1.2734,4.0013,4.0013,0,0,1,.624,2.1934,3.5992,3.5992,0,0,1-1.2392,2.9619,5.5522,5.5522,0,0,1-3.586,1.0108h-3.2431v5.15h-1.7051Zm1.7051,6.2051h3.2607a3.5364,3.5364,0,0,0,2.3428-.6153,2.2394,2.2394,0,0,0,.6982-1.7754,2.4681,2.4681,0,0,0-.3867-1.3711,1.6711,1.6711,0,0,0-.98-.7558,7.0372,7.0372,0,0,0-1.71-.1582h-3.2256Z"/><path class="ebfd0d5c-ee08-4e78-b462-fa072bffc153" d="M265.5,18.7792a3.7125,3.7125,0,0,0-1.0107-.1055,2.6045,2.6045,0,0,0-2.1709,1.3272v6.5918h-1.6612V17.2675h1.6612v1.3007a2.9609,2.9609,0,0,1,2.4257-1.5117,4.4332,4.4332,0,0,1,.7559.07Z"/><path class="ebfd0d5c-ee08-4e78-b462-fa072bffc153" d="M270.4307,17.0565a4.1536,4.1536,0,0,1,3.1865,1.2744,5.0784,5.0784,0,0,1,1.19,3.6035,5.0847,5.0847,0,0,1-1.19,3.6,4.5987,4.5987,0,0,1-6.3633,0,5.0851,5.0851,0,0,1-1.1914-3.6,5.0788,5.0788,0,0,1,1.1914-3.6035A4.1405,4.1405,0,0,1,270.4307,17.0565Zm0,8.4551a2.3682,2.3682,0,0,0,1.9248-.9014,4.1437,4.1437,0,0,0,.7383-2.6758,4.1664,4.1664,0,0,0-.7383-2.6855,2.5075,2.5075,0,0,0-3.85,0,4.1664,4.1664,0,0,0-.7383,2.6855,4.1437,4.1437,0,0,0,.7383,2.6758A2.3679,2.3679,0,0,0,270.4307,25.5116Z"/><path class="ebfd0d5c-ee08-4e78-b462-fa072bffc153" d="M284.2207,25.8719q0,4.5-4.0605,4.5a4.5085,4.5085,0,0,1-2.7725-.7646,2.4429,2.4429,0,0,1-1.0156-2.0566h1.7138q0,1.5293,2.0567,1.5293a2.4152,2.4152,0,0,0,1.7929-.6377,3.6143,3.6143,0,0,0,.6329-2.5v-.4659a3.5181,3.5181,0,0,1-5.4932.0352,5.6038,5.6038,0,0,1-1.002-3.5068,5.4429,5.4429,0,0,1,1.1211-3.6172,3.5307,3.5307,0,0,1,2.8164-1.3311,3.708,3.708,0,0,1,2.5577.9317v-.7207h1.6523Zm-1.6523-1.96v-4.43a3.2918,3.2918,0,0,0-2.4522-1.1338,1.9751,1.9751,0,0,0-1.7.918,4.8187,4.8187,0,0,0-.6377,2.7383,4.6836,4.6836,0,0,0,.6026,2.6152,1.9015,1.9015,0,0,0,1.665.8916A3.1546,3.1546,0,0,0,282.5684,23.912Z"/><path class="ebfd0d5c-ee08-4e78-b462-fa072bffc153" d="M291.5156,18.7792a3.712,3.712,0,0,0-1.0107-.1055,2.6045,2.6045,0,0,0-2.1709,1.3272v6.5918h-1.6611V17.2675h1.6611v1.3007a2.961,2.961,0,0,1,2.4258-1.5117,4.433,4.433,0,0,1,.7558.07Z"/><path class="ebfd0d5c-ee08-4e78-b462-fa072bffc153" d="M298.5732,25.6346a4.5956,4.5956,0,0,1-3.2607,1.1778,3.441,3.441,0,0,1-2.2852-.751,2.4152,2.4152,0,0,1-.8964-1.9385q0-3.27,5.6337-3.27h.8086a7.1027,7.1027,0,0,0-.1054-1.4541,1.2079,1.2079,0,0,0-.5889-.752,3.0257,3.0257,0,0,0-1.5381-.2988q-2.2147,0-2.2851,1.582h-1.6524q.1847-2.874,4.0254-2.874a4.7625,4.7625,0,0,1,2.7949.7119,3.2391,3.2391,0,0,1,1.002,2.795v6.0293h-1.6524Zm0-1.4941V22.0751H297.44q-3.6036,0-3.6036,1.96a1.2721,1.2721,0,0,0,.5274,1.0948,2.3851,2.3851,0,0,0,1.4238.3818,3.5979,3.5979,0,0,0,1.582-.3691A3.036,3.036,0,0,0,298.5732,24.1405Z"/><path class="ebfd0d5c-ee08-4e78-b462-fa072bffc153" d="M315.2813,26.5927H313.62V20.5634a3.0573,3.0573,0,0,0-.334-1.6524,1.25,1.25,0,0,0-1.1162-.4922,3.15,3.15,0,0,0-2.3642,1.4942v6.68h-1.6524V20.5634a3.0573,3.0573,0,0,0-.334-1.6524,1.26,1.26,0,0,0-1.125-.4922,3.1274,3.1274,0,0,0-2.3554,1.4942v6.68h-1.6612V17.2675h1.6612V18.454a3.3944,3.3944,0,0,1,2.61-1.3975,2.4457,2.4457,0,0,1,2.61,1.6875,5.2257,5.2257,0,0,1,1.582-1.3935,3.0911,3.0911,0,0,1,1.2744-.294q2.8653,0,2.8653,3.4365Z"/><path class="ebfd0d5c-ee08-4e78-b462-fa072bffc153" d="M319.333,15.5009h-1.6611v-1.793h1.6611Zm0,11.0918h-1.6611V17.2675h1.6611Z"/><path class="ebfd0d5c-ee08-4e78-b462-fa072bffc153" d="M323.4375,18.454a3.6654,3.6654,0,0,1,2.7861-1.3975q3.1552,0,3.1553,3.4365v6.1h-1.6611V20.5634A2.6114,2.6114,0,0,0,327.31,18.92a1.6349,1.6349,0,0,0-1.3408-.501,3.4675,3.4675,0,0,0-2.5313,1.4942v6.68h-1.6611V17.2675h1.6611Z"/><path class="ebfd0d5c-ee08-4e78-b462-fa072bffc153" d="M339.3457,25.8719q0,4.5-4.0605,4.5a4.5085,4.5085,0,0,1-2.7725-.7646,2.4429,2.4429,0,0,1-1.0156-2.0566h1.7138q0,1.5293,2.0567,1.5293a2.4152,2.4152,0,0,0,1.7929-.6377,3.6143,3.6143,0,0,0,.6329-2.5v-.4659a3.5181,3.5181,0,0,1-5.4932.0352,5.6038,5.6038,0,0,1-1.002-3.5068,5.4429,5.4429,0,0,1,1.1211-3.6172,3.5307,3.5307,0,0,1,2.8164-1.3311,3.708,3.708,0,0,1,2.5577.9317v-.7207h1.6523Zm-1.6523-1.96v-4.43a3.2918,3.2918,0,0,0-2.4522-1.1338,1.9751,1.9751,0,0,0-1.7.918,4.8187,4.8187,0,0,0-.6377,2.7383,4.6836,4.6836,0,0,0,.6026,2.6152,1.9015,1.9015,0,0,0,1.665.8916A3.1546,3.1546,0,0,0,337.6934,23.912Z"/></g><g class="b6e9f41c-3f46-4a12-832d-58f30db729be"><path class="ebfd0d5c-ee08-4e78-b462-fa072bffc153" d="M86.2729,121.1986h-1.36l-5.25-7.9092v7.9092H78.4048V111.1771h1.3535l5.25,7.9092v-7.9092h1.2646Z"/><path class="ebfd0d5c-ee08-4e78-b462-fa072bffc153" d="M91.2837,113.7816a3.2285,3.2285,0,0,1,2.478.9912,4.6975,4.6975,0,0,1,0,5.6016,3.5744,3.5744,0,0,1-4.9492,0,4.6975,4.6975,0,0,1,0-5.6016A3.2207,3.2207,0,0,1,91.2837,113.7816Zm0,6.5762a1.8445,1.8445,0,0,0,1.4971-.7,4.0724,4.0724,0,0,0,0-4.17,1.9488,1.9488,0,0,0-2.9942,0,4.0724,4.0724,0,0,0,0,4.17A1.8444,1.8444,0,0,0,91.2837,120.3578Z"/><path class="ebfd0d5c-ee08-4e78-b462-fa072bffc153" d="M98.9468,121.2123a4.8636,4.8636,0,0,1-.9229.082,1.9162,1.9162,0,0,1-1.1621-.2832,1.1883,1.1883,0,0,1-.458-.7285,6.4734,6.4734,0,0,1-.0889-1.21v-4.1152h-.8955v-1.0117h.8955V112.141H97.6v1.8047h1.1758v1.0117H97.6v4.1836a1.5352,1.5352,0,0,0,.188.9463.6706.6706,0,0,0,.5161.2021,3.6936,3.6936,0,0,0,.6426-.0547Z"/><path class="ebfd0d5c-ee08-4e78-b462-fa072bffc153" d="M113.33,121.1986h-1.2578v-8.5244l-2.8574,8.5244h-1.1895l-2.8574-8.5244v8.5244H103.91V111.1771h1.9892l2.7139,8.3535,2.7275-8.3535H113.33Z"/><path class="ebfd0d5c-ee08-4e78-b462-fa072bffc153" d="M118.4839,121.37a3.4178,3.4178,0,0,1-2.57-1.001,3.8464,3.8464,0,0,1-.9707-2.7929,3.9254,3.9254,0,0,1,.94-2.7852,3.545,3.545,0,0,1,4.9356-.0176,3.95,3.95,0,0,1,.9262,2.8028v.3076h-5.4619a2.8024,2.8024,0,0,0,.6939,1.8662,2.0548,2.0548,0,0,0,1.5073.6084,2.2327,2.2327,0,0,0,1.22-.3447,1.1627,1.1627,0,0,0,.5708-.9815h1.333a2.4042,2.4042,0,0,1-1.0151,1.73A3.5742,3.5742,0,0,1,118.4839,121.37Zm1.9-4.498a2.63,2.63,0,0,0-.7041-1.5655,1.9754,1.9754,0,0,0-2.666-.0039,2.57,2.57,0,0,0-.7041,1.5694Z"/><path class="ebfd0d5c-ee08-4e78-b462-fa072bffc153" d="M132.99,121.1986h-1.2919v-4.6894a2.3764,2.3764,0,0,0-.26-1.2852.973.973,0,0,0-.8682-.3828,2.4508,2.4508,0,0,0-1.8388,1.1621v5.1953h-1.2852v-4.6894a2.3755,2.3755,0,0,0-.26-1.2852.9806.9806,0,0,0-.875-.3828,2.4335,2.4335,0,0,0-1.832,1.1621v5.1953h-1.292v-7.2529h1.292v.9228a2.6408,2.6408,0,0,1,2.03-1.0869,1.9021,1.9021,0,0,1,2.03,1.3125,4.0461,4.0461,0,0,1,1.23-1.083,2.3837,2.3837,0,0,1,.9912-.23q2.2288,0,2.2285,2.6729Z"/><path class="ebfd0d5c-ee08-4e78-b462-fa072bffc153" d="M137.7886,113.7816a3.2286,3.2286,0,0,1,2.478.9912,4.6975,4.6975,0,0,1,0,5.6016,3.5744,3.5744,0,0,1-4.9492,0,4.6975,4.6975,0,0,1,0-5.6016A3.2207,3.2207,0,0,1,137.7886,113.7816Zm0,6.5762a1.8442,1.8442,0,0,0,1.497-.7,4.0718,4.0718,0,0,0,0-4.17,1.9487,1.9487,0,0,0-2.9941,0,4.0724,4.0724,0,0,0,0,4.17A1.8442,1.8442,0,0,0,137.7886,120.3578Z"/><path class="ebfd0d5c-ee08-4e78-b462-fa072bffc153" d="M146.4019,115.1215a2.8864,2.8864,0,0,0-.7862-.0821,2.0251,2.0251,0,0,0-1.6885,1.0323v5.1269h-1.2919v-7.2529h1.2919v1.0117a2.3027,2.3027,0,0,1,1.8868-1.1758,3.48,3.48,0,0,1,.5879.0547Z"/><path class="ebfd0d5c-ee08-4e78-b462-fa072bffc153" d="M148.5894,112.5717h-1.292v-1.3946h1.292Zm0,8.6269h-1.292v-7.2529h1.292Z"/><path class="ebfd0d5c-ee08-4e78-b462-fa072bffc153" d="M156.2456,121.1986H149.82v-1.0937l4.5186-5.0655h-4.252v-1.0937H156.02v1.0937l-4.5185,5.0655h4.7441Z"/><path class="ebfd0d5c-ee08-4e78-b462-fa072bffc153" d="M160.5728,121.37a3.4181,3.4181,0,0,1-2.57-1.001,3.8468,3.8468,0,0,1-.9707-2.7929,3.9255,3.9255,0,0,1,.94-2.7852,3.5448,3.5448,0,0,1,4.9355-.0176,3.9493,3.9493,0,0,1,.9263,2.8028v.3076h-5.4619a2.8029,2.8029,0,0,0,.6938,1.8662,2.055,2.055,0,0,0,1.5074.6084,2.2329,2.2329,0,0,0,1.22-.3447,1.1627,1.1627,0,0,0,.5708-.9815h1.333a2.404,2.404,0,0,1-1.0152,1.73A3.5739,3.5739,0,0,1,160.5728,121.37Zm1.9-4.498a2.6292,2.6292,0,0,0-.7041-1.5655,1.9754,1.9754,0,0,0-2.666-.0039,2.57,2.57,0,0,0-.7041,1.5694Z"/><path class="ebfd0d5c-ee08-4e78-b462-fa072bffc153" d="M169.87,120.33a2.7363,2.7363,0,0,1-4.2724.0274,4.36,4.36,0,0,1-.7793-2.7275,4.2277,4.2277,0,0,1,.8716-2.8125,2.7422,2.7422,0,0,1,2.1909-1.0362,2.8828,2.8828,0,0,1,1.9892.7246v-3.3291h1.2852v10.0215H169.87Zm0-1.2168v-3.4453a2.5606,2.5606,0,0,0-1.9072-.8818,1.5357,1.5357,0,0,0-1.3228.7148,3.7413,3.7413,0,0,0-.4956,2.129,3.64,3.64,0,0,0,.4683,2.0332,1.48,1.48,0,0,0,1.2954.6943A2.4539,2.4539,0,0,0,169.87,119.1136Z"/></g><g class="b6e9f41c-3f46-4a12-832d-58f30db729be"><path class="ebfd0d5c-ee08-4e78-b462-fa072bffc153" d="M171.813,186.9764a3.8766,3.8766,0,0,1,2.9531,1.2188,5.0956,5.0956,0,0,1,0,6.4453,4.1966,4.1966,0,0,1-5.918-.0039,5.07,5.07,0,0,1,0-6.4414A3.9026,3.9026,0,0,1,171.813,186.9764Zm-.0117,7.91a2.7146,2.7146,0,0,0,2.1123-.9141,4.3818,4.3818,0,0,0,.0029-5.1093,2.6858,2.6858,0,0,0-2.0918-.9141,2.7388,2.7388,0,0,0-2.124.9141,4.35,4.35,0,0,0-.0029,5.1054A2.7067,2.7067,0,0,0,171.8013,194.8866Z"/><path class="ebfd0d5c-ee08-4e78-b462-fa072bffc153" d="M178.3872,190.24a2.3536,2.3536,0,0,1,3.6621-.0215,3.7265,3.7265,0,0,1,.668,2.336,3.6327,3.6327,0,0,1-.7471,2.416,2.3594,2.3594,0,0,1-1.8838.8887,2.4369,2.4369,0,0,1-1.6992-.627v2.8711H177.28V189.496h1.1074Zm0,3.9961a2.1765,2.1765,0,0,0,1.6289.7559,1.3148,1.3148,0,0,0,1.1367-.6133,3.2235,3.2235,0,0,0,.4219-1.8242,3.1439,3.1439,0,0,0-.3984-1.7442,1.2658,1.2658,0,0,0-1.1133-.5937,2.0994,2.0994,0,0,0-1.6758,1.0664Z"/><path class="ebfd0d5c-ee08-4e78-b462-fa072bffc153" d="M186.3677,195.7245a4.1654,4.1654,0,0,1-.791.07,1.6381,1.6381,0,0,1-.9961-.2441,1.0146,1.0146,0,0,1-.3926-.6231,5.54,5.54,0,0,1-.0762-1.0371v-3.5273h-.7676v-.8672h.7676v-1.5469h1.1016v1.5469h1.0078v.8672h-1.0078v3.5859a1.3165,1.3165,0,0,0,.1611.8105.5756.5756,0,0,0,.4424.1739,3.1479,3.1479,0,0,0,.5508-.0469Z"/><path class="ebfd0d5c-ee08-4e78-b462-fa072bffc153" d="M188.395,188.3182h-1.1074v-1.1953h1.1074Zm0,7.3946h-1.1074V189.496h1.1074Z"/><path class="ebfd0d5c-ee08-4e78-b462-fa072bffc153" d="M198.4263,195.7128h-1.1075v-4.02a2.0386,2.0386,0,0,0-.2226-1.1015.8332.8332,0,0,0-.7441-.3281,2.1,2.1,0,0,0-1.5762.996v4.4532h-1.1016v-4.02a2.0386,2.0386,0,0,0-.2226-1.1015.84.84,0,0,0-.75-.3281,2.0852,2.0852,0,0,0-1.57.996v4.4532h-1.1074V189.496h1.1074v.791a2.2634,2.2634,0,0,1,1.74-.9317,1.63,1.63,0,0,1,1.74,1.125,3.4792,3.4792,0,0,1,1.0547-.93,2.0489,2.0489,0,0,1,.85-.1954q1.91,0,1.91,2.2911Z"/><path class="ebfd0d5c-ee08-4e78-b462-fa072bffc153" d="M201.1274,188.3182H200.02v-1.1953h1.1074Zm0,7.3946H200.02V189.496h1.1074Z"/><path class="ebfd0d5c-ee08-4e78-b462-fa072bffc153" d="M207.69,195.7128h-5.5078v-.9375l3.8731-4.3418h-3.6446v-.9375h5.086v.9375l-3.8731,4.3418H207.69Z"/><path class="ebfd0d5c-ee08-4e78-b462-fa072bffc153" d="M211.3989,195.8593A2.9291,2.9291,0,0,1,209.1958,195a3.2932,3.2932,0,0,1-.832-2.3926,3.3679,3.3679,0,0,1,.8056-2.3887,3.04,3.04,0,0,1,4.2305-.0136,3.3854,3.3854,0,0,1,.7939,2.4023v.2637h-4.6816a2.403,2.403,0,0,0,.5947,1.6,1.7611,1.7611,0,0,0,1.292.5215,1.91,1.91,0,0,0,1.0459-.2969.994.994,0,0,0,.4893-.84h1.1426a2.0617,2.0617,0,0,1-.87,1.4825A3.0618,3.0618,0,0,1,211.3989,195.8593Zm1.6289-3.8555a2.2531,2.2531,0,0,0-.6035-1.3418,1.6939,1.6939,0,0,0-2.2851-.0039,2.2045,2.2045,0,0,0-.6036,1.3457Z"/><path class="ebfd0d5c-ee08-4e78-b462-fa072bffc153" d="M219.3677,194.9686a2.3453,2.3453,0,0,1-3.6621.0235,3.7364,3.7364,0,0,1-.668-2.3379,3.6288,3.6288,0,0,1,.7471-2.4121,2.3517,2.3517,0,0,1,1.8779-.8868,2.4723,2.4723,0,0,1,1.7051.6211v-2.8535h1.1015v8.59h-1.1015Zm0-1.0429v-2.9532a2.1945,2.1945,0,0,0-1.6348-.7558,1.3152,1.3152,0,0,0-1.1338.6113,3.2136,3.2136,0,0,0-.4248,1.8262,3.118,3.118,0,0,0,.4014,1.7422,1.27,1.27,0,0,0,1.11.5957A2.1031,2.1031,0,0,0,219.3677,193.9257Z"/></g><g class="b6e9f41c-3f46-4a12-832d-58f30db729be"><path class="ebfd0d5c-ee08-4e78-b462-fa072bffc153" d="M26.0967,195.8593a3.5932,3.5932,0,0,1-2.2354-.58,2.4928,2.4928,0,0,1-.9375-1.3653,7.5614,7.5614,0,0,1-.1963-1.8222v-4.9688h1.1368v4.9512a3.1224,3.1224,0,0,0,.5683,2.2266,2.3471,2.3471,0,0,0,1.6641.5332,2.347,2.347,0,0,0,1.664-.5332,3.1223,3.1223,0,0,0,.5684-2.2266v-4.9512h1.1426v4.9688a5.3547,5.3547,0,0,1-.3721,2.2969,2.4021,2.4021,0,0,1-1.1221,1.1035A4.275,4.275,0,0,1,26.0967,195.8593Z"/><path class="ebfd0d5c-ee08-4e78-b462-fa072bffc153" d="M32.3545,190.287a2.4437,2.4437,0,0,1,1.8574-.9317q2.1036,0,2.1035,2.2911v4.0664H35.208v-4.02a1.74,1.74,0,0,0-.2725-1.0957,1.0891,1.0891,0,0,0-.8935-.3339,2.3116,2.3116,0,0,0-1.6875.996v4.4532H31.2471V189.496h1.1074Z"/><path class="ebfd0d5c-ee08-4e78-b462-fa072bffc153" d="M40.44,189.3553a2.7685,2.7685,0,0,1,2.1241.85,4.0257,4.0257,0,0,1,0,4.8007,3.0621,3.0621,0,0,1-4.2422,0,4.0253,4.0253,0,0,1,0-4.8007A2.761,2.761,0,0,1,40.44,189.3553Zm0,5.6368a1.5811,1.5811,0,0,0,1.2832-.6016,3.49,3.49,0,0,0,0-3.5742,1.6729,1.6729,0,0,0-2.5664,0,3.49,3.49,0,0,0,0,3.5742A1.5814,1.5814,0,0,0,40.44,194.9921Z"/><path class="ebfd0d5c-ee08-4e78-b462-fa072bffc153" d="M45.7021,190.24a2.3537,2.3537,0,0,1,3.6622-.0215,3.7264,3.7264,0,0,1,.6679,2.336,3.6333,3.6333,0,0,1-.747,2.416,2.36,2.36,0,0,1-1.8838.8887,2.4371,2.4371,0,0,1-1.6993-.627v2.8711H44.5947V189.496h1.1074Zm0,3.9961a2.1767,2.1767,0,0,0,1.629.7559,1.315,1.315,0,0,0,1.1367-.6133,3.2244,3.2244,0,0,0,.4218-1.8242,3.1439,3.1439,0,0,0-.3984-1.7442,1.2657,1.2657,0,0,0-1.1133-.5937,2.1,2.1,0,0,0-1.6758,1.0664Z"/><path class="ebfd0d5c-ee08-4e78-b462-fa072bffc153" d="M53.6826,195.7245a4.1646,4.1646,0,0,1-.791.07,1.6383,1.6383,0,0,1-.9961-.2441,1.015,1.015,0,0,1-.3926-.6231,5.5416,5.5416,0,0,1-.0761-1.0371v-3.5273h-.7676v-.8672h.7676v-1.5469h1.1015v1.5469h1.0078v.8672H52.5283v3.5859a1.3156,1.3156,0,0,0,.1612.8105.5754.5754,0,0,0,.4423.1739,3.1479,3.1479,0,0,0,.5508-.0469Z"/><path class="ebfd0d5c-ee08-4e78-b462-fa072bffc153" d="M55.71,188.3182H54.6025v-1.1953H55.71Zm0,7.3946H54.6025V189.496H55.71Z"/><path class="ebfd0d5c-ee08-4e78-b462-fa072bffc153" d="M65.7412,195.7128H64.6338v-4.02a2.0375,2.0375,0,0,0-.2227-1.1015.8332.8332,0,0,0-.7441-.3281,2.1,2.1,0,0,0-1.5762.996v4.4532H60.9893v-4.02a2.0385,2.0385,0,0,0-.2227-1.1015.84.84,0,0,0-.75-.3281,2.0849,2.0849,0,0,0-1.57.996v4.4532H57.3389V189.496h1.1074v.791a2.2631,2.2631,0,0,1,1.74-.9317,1.6305,1.6305,0,0,1,1.74,1.125,3.4791,3.4791,0,0,1,1.0546-.93,2.049,2.049,0,0,1,.85-.1954q1.91,0,1.91,2.2911Z"/><path class="ebfd0d5c-ee08-4e78-b462-fa072bffc153" d="M68.4424,188.3182H67.335v-1.1953h1.1074Zm0,7.3946H67.335V189.496h1.1074Z"/><path class="ebfd0d5c-ee08-4e78-b462-fa072bffc153" d="M75.0049,195.7128H69.4971v-.9375l3.873-4.3418H69.7256v-.9375h5.0859v.9375l-3.873,4.3418h4.0664Z"/><path class="ebfd0d5c-ee08-4e78-b462-fa072bffc153" d="M78.7139,195.8593A2.9292,2.9292,0,0,1,76.5107,195a3.2936,3.2936,0,0,1-.832-2.3926,3.3679,3.3679,0,0,1,.8057-2.3887,3.04,3.04,0,0,1,4.23-.0136,3.3854,3.3854,0,0,1,.794,2.4023v.2637H76.8271a2.4031,2.4031,0,0,0,.5948,1.6,1.7609,1.7609,0,0,0,1.292.5215,1.91,1.91,0,0,0,1.0459-.2969.9941.9941,0,0,0,.4892-.84h1.1426a2.0616,2.0616,0,0,1-.87,1.4825A3.0623,3.0623,0,0,1,78.7139,195.8593Zm1.6289-3.8555a2.2536,2.2536,0,0,0-.6035-1.3418,1.694,1.694,0,0,0-2.2852-.0039,2.2039,2.2039,0,0,0-.6035,1.3457Z"/><path class="ebfd0d5c-ee08-4e78-b462-fa072bffc153" d="M86.6826,194.9686a2.3453,2.3453,0,0,1-3.6621.0235,3.7364,3.7364,0,0,1-.668-2.3379,3.6293,3.6293,0,0,1,.7471-2.4121,2.3518,2.3518,0,0,1,1.8779-.8868,2.4721,2.4721,0,0,1,1.7051.6211v-2.8535h1.1016v8.59H86.6826Zm0-1.0429v-2.9532a2.1943,2.1943,0,0,0-1.6347-.7558,1.3151,1.3151,0,0,0-1.1338.6113,3.2136,3.2136,0,0,0-.4248,1.8262,3.1181,3.1181,0,0,0,.4013,1.7422,1.27,1.27,0,0,0,1.11.5957A2.103,2.103,0,0,0,86.6826,193.9257Z"/></g><line class="fab31f14-2352-4e44-ac76-29eb32241995" x1="318.8963" y1="156.1" x2="457.9213" y2="156.1"/><line class="fab31f14-2352-4e44-ac76-29eb32241995" x1="318.8963" y1="156.1" x2="318.8963" y2="170.133"/><polygon class="ebfd0d5c-ee08-4e78-b462-fa072bffc153" points="318.897 177.193 314.831 167.244 318.897 169.605 322.961 167.244 318.897 177.193"/><line class="fab31f14-2352-4e44-ac76-29eb32241995" x1="388.4087" y1="135.0064" x2="388.4087" y2="156.1"/><line class="fab31f14-2352-4e44-ac76-29eb32241995" x1="457.9213" y1="156.1" x2="457.9213" y2="170.133"/><polygon class="ebfd0d5c-ee08-4e78-b462-fa072bffc153" points="457.922 177.193 453.856 167.244 457.922 169.605 461.986 167.244 457.922 177.193"/><g class="b6e9f41c-3f46-4a12-832d-58f30db729be"><path class="ebfd0d5c-ee08-4e78-b462-fa072bffc153" d="M435.5234,186.9764a3.8768,3.8768,0,0,1,2.9532,1.2188,5.0959,5.0959,0,0,1,0,6.4453,4.1966,4.1966,0,0,1-5.918-.0039,5.07,5.07,0,0,1,0-6.4414A3.9022,3.9022,0,0,1,435.5234,186.9764Zm-.0117,7.91a2.7143,2.7143,0,0,0,2.1123-.9141,4.3816,4.3816,0,0,0,.003-5.1093,2.686,2.686,0,0,0-2.0918-.9141,2.7391,2.7391,0,0,0-2.1241.9141,4.35,4.35,0,0,0-.0029,5.1054A2.707,2.707,0,0,0,435.5117,194.8866Z"/><path class="ebfd0d5c-ee08-4e78-b462-fa072bffc153" d="M442.0977,190.24a2.3536,2.3536,0,0,1,3.6621-.0215,3.7264,3.7264,0,0,1,.6679,2.336,3.6333,3.6333,0,0,1-.747,2.416,2.36,2.36,0,0,1-1.8838.8887,2.4367,2.4367,0,0,1-1.6992-.627v2.8711H440.99V189.496h1.1075Zm0,3.9961a2.1763,2.1763,0,0,0,1.6289.7559,1.315,1.315,0,0,0,1.1367-.6133,3.2243,3.2243,0,0,0,.4219-1.8242,3.1439,3.1439,0,0,0-.3985-1.7442,1.2657,1.2657,0,0,0-1.1133-.5937,2.0994,2.0994,0,0,0-1.6757,1.0664Z"/><path class="ebfd0d5c-ee08-4e78-b462-fa072bffc153" d="M450.0781,195.7245a4.1646,4.1646,0,0,1-.791.07,1.6385,1.6385,0,0,1-.9961-.2441,1.015,1.015,0,0,1-.3926-.6231,5.55,5.55,0,0,1-.0761-1.0371v-3.5273h-.7676v-.8672h.7676v-1.5469h1.1015v1.5469h1.0078v.8672h-1.0078v3.5859a1.3156,1.3156,0,0,0,.1612.8105.5754.5754,0,0,0,.4423.1739,3.147,3.147,0,0,0,.5508-.0469Z"/><path class="ebfd0d5c-ee08-4e78-b462-fa072bffc153" d="M452.1055,188.3182H450.998v-1.1953h1.1075Zm0,7.3946H450.998V189.496h1.1075Z"/><path class="ebfd0d5c-ee08-4e78-b462-fa072bffc153" d="M462.1367,195.7128h-1.1074v-4.02a2.0375,2.0375,0,0,0-.2227-1.1015.833.833,0,0,0-.7441-.3281,2.1,2.1,0,0,0-1.5762.996v4.4532h-1.1015v-4.02a2.0385,2.0385,0,0,0-.2227-1.1015.84.84,0,0,0-.75-.3281,2.085,2.085,0,0,0-1.57.996v4.4532h-1.1074V189.496h1.1074v.791a2.2631,2.2631,0,0,1,1.74-.9317,1.6305,1.6305,0,0,1,1.74,1.125,3.478,3.478,0,0,1,1.0547-.93,2.0482,2.0482,0,0,1,.85-.1954q1.91,0,1.91,2.2911Z"/><path class="ebfd0d5c-ee08-4e78-b462-fa072bffc153" d="M464.8379,188.3182h-1.1074v-1.1953h1.1074Zm0,7.3946h-1.1074V189.496h1.1074Z"/><path class="ebfd0d5c-ee08-4e78-b462-fa072bffc153" d="M471.4,195.7128h-5.5078v-.9375l3.873-4.3418h-3.6445v-.9375h5.0859v.9375l-3.873,4.3418H471.4Z"/><path class="ebfd0d5c-ee08-4e78-b462-fa072bffc153" d="M475.1094,195.8593A2.9288,2.9288,0,0,1,472.9063,195a3.2932,3.2932,0,0,1-.8321-2.3926,3.3679,3.3679,0,0,1,.8057-2.3887,3.04,3.04,0,0,1,4.2305-.0136,3.3858,3.3858,0,0,1,.7939,2.4023v.2637h-4.6816a2.4025,2.4025,0,0,0,.5947,1.6,1.7611,1.7611,0,0,0,1.292.5215,1.91,1.91,0,0,0,1.0459-.2969.9941.9941,0,0,0,.4892-.84h1.1426a2.0616,2.0616,0,0,1-.87,1.4825A3.062,3.062,0,0,1,475.1094,195.8593Zm1.6289-3.8555a2.2536,2.2536,0,0,0-.6035-1.3418,1.694,1.694,0,0,0-2.2852-.0039,2.2039,2.2039,0,0,0-.6035,1.3457Z"/><path class="ebfd0d5c-ee08-4e78-b462-fa072bffc153" d="M483.0781,194.9686a2.3453,2.3453,0,0,1-3.6621.0235,3.7364,3.7364,0,0,1-.668-2.3379,3.6293,3.6293,0,0,1,.7471-2.4121,2.3518,2.3518,0,0,1,1.8779-.8868,2.4721,2.4721,0,0,1,1.7051.6211v-2.8535H484.18v8.59h-1.1016Zm0-1.0429v-2.9532a2.1943,2.1943,0,0,0-1.6347-.7558,1.3151,1.3151,0,0,0-1.1338.6113,3.2136,3.2136,0,0,0-.4248,1.8262,3.1189,3.1189,0,0,0,.4013,1.7422,1.27,1.27,0,0,0,1.11.5957A2.103,2.103,0,0,0,483.0781,193.9257Z"/></g><g class="b6e9f41c-3f46-4a12-832d-58f30db729be"><path class="ebfd0d5c-ee08-4e78-b462-fa072bffc153" d="M289.8076,195.8593a3.5927,3.5927,0,0,1-2.2353-.58,2.4918,2.4918,0,0,1-.9375-1.3653,7.5564,7.5564,0,0,1-.1963-1.8222v-4.9688h1.1367v4.9512a3.1218,3.1218,0,0,0,.5684,2.2266,2.8632,2.8632,0,0,0,3.3281,0,3.1224,3.1224,0,0,0,.5683-2.2266v-4.9512h1.1426v4.9688a5.3547,5.3547,0,0,1-.3721,2.2969,2.4019,2.4019,0,0,1-1.122,1.1035A4.2754,4.2754,0,0,1,289.8076,195.8593Z"/><path class="ebfd0d5c-ee08-4e78-b462-fa072bffc153" d="M296.0654,190.287a2.4439,2.4439,0,0,1,1.8575-.9317q2.1034,0,2.1035,2.2911v4.0664h-1.1075v-4.02a1.7409,1.7409,0,0,0-.2724-1.0957,1.09,1.09,0,0,0-.8936-.3339,2.3116,2.3116,0,0,0-1.6875.996v4.4532H294.958V189.496h1.1074Z"/><path class="ebfd0d5c-ee08-4e78-b462-fa072bffc153" d="M304.1514,189.3553a2.7683,2.7683,0,0,1,2.124.85,4.0257,4.0257,0,0,1,0,4.8007,3.0621,3.0621,0,0,1-4.2422,0,4.0257,4.0257,0,0,1,0-4.8007A2.7612,2.7612,0,0,1,304.1514,189.3553Zm0,5.6368a1.5814,1.5814,0,0,0,1.2832-.6016,3.49,3.49,0,0,0,0-3.5742,1.6729,1.6729,0,0,0-2.5664,0,3.49,3.49,0,0,0,0,3.5742A1.5811,1.5811,0,0,0,304.1514,194.9921Z"/><path class="ebfd0d5c-ee08-4e78-b462-fa072bffc153" d="M309.4131,190.24a2.3536,2.3536,0,0,1,3.6621-.0215,3.7265,3.7265,0,0,1,.668,2.336,3.6333,3.6333,0,0,1-.7471,2.416,2.36,2.36,0,0,1-1.8838.8887,2.4367,2.4367,0,0,1-1.6992-.627v2.8711h-1.1074V189.496h1.1074Zm0,3.9961a2.1763,2.1763,0,0,0,1.6289.7559,1.3148,1.3148,0,0,0,1.1367-.6133,3.2235,3.2235,0,0,0,.4219-1.8242,3.143,3.143,0,0,0-.3985-1.7442,1.2656,1.2656,0,0,0-1.1132-.5937,2.0994,2.0994,0,0,0-1.6758,1.0664Z"/><path class="ebfd0d5c-ee08-4e78-b462-fa072bffc153" d="M317.3936,195.7245a4.1657,4.1657,0,0,1-.7911.07,1.6385,1.6385,0,0,1-.9961-.2441,1.0144,1.0144,0,0,1-.3925-.6231,5.54,5.54,0,0,1-.0762-1.0371v-3.5273H314.37v-.8672h.7676v-1.5469h1.1016v1.5469h1.0078v.8672h-1.0078v3.5859a1.3165,1.3165,0,0,0,.1611.8105.5756.5756,0,0,0,.4424.1739,3.1479,3.1479,0,0,0,.5508-.0469Z"/><path class="ebfd0d5c-ee08-4e78-b462-fa072bffc153" d="M319.4209,188.3182h-1.1074v-1.1953h1.1074Zm0,7.3946h-1.1074V189.496h1.1074Z"/><path class="ebfd0d5c-ee08-4e78-b462-fa072bffc153" d="M329.4521,195.7128h-1.1074v-4.02a2.0386,2.0386,0,0,0-.2226-1.1015.8333.8333,0,0,0-.7442-.3281,2.1,2.1,0,0,0-1.5761.996v4.4532H324.7v-4.02a2.0375,2.0375,0,0,0-.2227-1.1015.84.84,0,0,0-.75-.3281,2.085,2.085,0,0,0-1.57.996v4.4532H321.05V189.496h1.1074v.791a2.2633,2.2633,0,0,1,1.74-.9317,1.63,1.63,0,0,1,1.74,1.125,3.4792,3.4792,0,0,1,1.0547-.93,2.0482,2.0482,0,0,1,.85-.1954q1.91,0,1.91,2.2911Z"/><path class="ebfd0d5c-ee08-4e78-b462-fa072bffc153" d="M332.1533,188.3182h-1.1074v-1.1953h1.1074Zm0,7.3946h-1.1074V189.496h1.1074Z"/><path class="ebfd0d5c-ee08-4e78-b462-fa072bffc153" d="M338.7158,195.7128H333.208v-.9375l3.8731-4.3418h-3.6446v-.9375h5.086v.9375l-3.8731,4.3418h4.0664Z"/><path class="ebfd0d5c-ee08-4e78-b462-fa072bffc153" d="M342.4248,195.8593A2.9289,2.9289,0,0,1,340.2217,195a3.2932,3.2932,0,0,1-.8321-2.3926,3.3679,3.3679,0,0,1,.8057-2.3887,3.04,3.04,0,0,1,4.2305-.0136,3.3854,3.3854,0,0,1,.7939,2.4023v.2637h-4.6816a2.403,2.403,0,0,0,.5947,1.6,1.7611,1.7611,0,0,0,1.292.5215,1.91,1.91,0,0,0,1.0459-.2969.9942.9942,0,0,0,.4893-.84h1.1425a2.0613,2.0613,0,0,1-.87,1.4825A3.062,3.062,0,0,1,342.4248,195.8593Zm1.6289-3.8555a2.2531,2.2531,0,0,0-.6035-1.3418,1.694,1.694,0,0,0-2.2852-.0039,2.2044,2.2044,0,0,0-.6035,1.3457Z"/><path class="ebfd0d5c-ee08-4e78-b462-fa072bffc153" d="M350.3936,194.9686a2.3454,2.3454,0,0,1-3.6622.0235,3.7364,3.7364,0,0,1-.6679-2.3379,3.6293,3.6293,0,0,1,.747-2.4121,2.352,2.352,0,0,1,1.878-.8868,2.4723,2.4723,0,0,1,1.7051.6211v-2.8535h1.1015v8.59h-1.1015Zm0-1.0429v-2.9532a2.1945,2.1945,0,0,0-1.6348-.7558,1.3151,1.3151,0,0,0-1.1338.6113,3.2136,3.2136,0,0,0-.4248,1.8262,3.118,3.118,0,0,0,.4014,1.7422,1.27,1.27,0,0,0,1.11.5957A2.1033,2.1033,0,0,0,350.3936,193.9257Z"/></g><g class="b6e9f41c-3f46-4a12-832d-58f30db729be"><path class="ebfd0d5c-ee08-4e78-b462-fa072bffc153" d="M364.2881,121.1986H363.03v-8.5244l-2.8574,8.5244h-1.19l-2.8574-8.5244v8.5244h-1.2578V111.1771h1.9892l2.7139,8.3535,2.7275-8.3535h1.9893Z"/><path class="ebfd0d5c-ee08-4e78-b462-fa072bffc153" d="M369.4424,121.37a3.4186,3.4186,0,0,1-2.57-1.001,3.8485,3.8485,0,0,1-.9707-2.7929,3.9234,3.9234,0,0,1,.94-2.7852,3.5448,3.5448,0,0,1,4.9355-.0176,3.9514,3.9514,0,0,1,.9258,2.8028v.3076h-5.4619a2.8005,2.8005,0,0,0,.6943,1.8662,2.0541,2.0541,0,0,0,1.5069.6084,2.2344,2.2344,0,0,0,1.2207-.3447,1.1611,1.1611,0,0,0,.57-.9815h1.333a2.4037,2.4037,0,0,1-1.0146,1.73A3.5758,3.5758,0,0,1,369.4424,121.37Zm1.9-4.498a2.6246,2.6246,0,0,0-.7041-1.5655,1.9754,1.9754,0,0,0-2.666-.0039,2.5718,2.5718,0,0,0-.7041,1.5694Z"/><path class="ebfd0d5c-ee08-4e78-b462-fa072bffc153" d="M383.9482,121.1986h-1.2919v-4.6894a2.3718,2.3718,0,0,0-.26-1.2852.9719.9719,0,0,0-.8682-.3828,2.4516,2.4516,0,0,0-1.8388,1.1621v5.1953h-1.2852v-4.6894a2.3708,2.3708,0,0,0-.26-1.2852.98.98,0,0,0-.875-.3828,2.435,2.435,0,0,0-1.832,1.1621v5.1953h-1.292v-7.2529h1.292v.9228a2.6423,2.6423,0,0,1,2.03-1.0869,1.9012,1.9012,0,0,1,2.03,1.3125,4.0578,4.0578,0,0,1,1.2305-1.083,2.3872,2.3872,0,0,1,.9912-.23q2.23,0,2.2285,2.6729Z"/><path class="ebfd0d5c-ee08-4e78-b462-fa072bffc153" d="M388.7471,113.7816a3.23,3.23,0,0,1,2.4785.9912,4.6995,4.6995,0,0,1,0,5.6016,3.5744,3.5744,0,0,1-4.9492,0,4.6954,4.6954,0,0,1,0-5.6016A3.22,3.22,0,0,1,388.7471,113.7816Zm0,6.5762a1.8442,1.8442,0,0,0,1.497-.7,4.0718,4.0718,0,0,0,0-4.17,1.9487,1.9487,0,0,0-2.9941,0,4.0724,4.0724,0,0,0,0,4.17A1.8442,1.8442,0,0,0,388.7471,120.3578Z"/><path class="ebfd0d5c-ee08-4e78-b462-fa072bffc153" d="M397.36,115.1215a2.8839,2.8839,0,0,0-.7862-.0821,2.0257,2.0257,0,0,0-1.6885,1.0323v5.1269h-1.2919v-7.2529h1.2919v1.0117a2.304,2.304,0,0,1,1.8868-1.1758,3.47,3.47,0,0,1,.5879.0547Z"/><path class="ebfd0d5c-ee08-4e78-b462-fa072bffc153" d="M399.5479,112.5717h-1.292v-1.3946h1.292Zm0,8.6269h-1.292v-7.2529h1.292Z"/><path class="ebfd0d5c-ee08-4e78-b462-fa072bffc153" d="M407.2041,121.1986h-6.4258v-1.0937l4.5186-5.0655h-4.252v-1.0937h5.9336v1.0937l-4.5185,5.0655h4.7441Z"/><path class="ebfd0d5c-ee08-4e78-b462-fa072bffc153" d="M411.5313,121.37a3.4188,3.4188,0,0,1-2.57-1.001,3.8489,3.8489,0,0,1-.9707-2.7929,3.9234,3.9234,0,0,1,.94-2.7852,3.5448,3.5448,0,0,1,4.9355-.0176,3.9514,3.9514,0,0,1,.9258,2.8028v.3076H409.33a2.8005,2.8005,0,0,0,.6943,1.8662,2.0539,2.0539,0,0,0,1.5069.6084,2.2348,2.2348,0,0,0,1.2207-.3447,1.1611,1.1611,0,0,0,.57-.9815h1.333a2.4035,2.4035,0,0,1-1.0147,1.73A3.5755,3.5755,0,0,1,411.5313,121.37Zm1.9-4.498a2.624,2.624,0,0,0-.7041-1.5655,1.9754,1.9754,0,0,0-2.666-.0039,2.5729,2.5729,0,0,0-.7041,1.5694Z"/><path class="ebfd0d5c-ee08-4e78-b462-fa072bffc153" d="M420.8281,120.33a2.7363,2.7363,0,0,1-4.2724.0274,4.36,4.36,0,0,1-.7793-2.7275,4.2283,4.2283,0,0,1,.872-2.8125,2.7423,2.7423,0,0,1,2.1905-1.0362,2.8812,2.8812,0,0,1,1.9892.7246v-3.3291h1.2852v10.0215h-1.2852Zm0-1.2168v-3.4453a2.559,2.559,0,0,0-1.9072-.8818,1.5349,1.5349,0,0,0-1.3223.7148,3.7369,3.7369,0,0,0-.4961,2.129,3.6352,3.6352,0,0,0,.4688,2.0332,1.479,1.479,0,0,0,1.2949.6943A2.4532,2.4532,0,0,0,420.8281,119.1136Z"/></g><g class="b6e9f41c-3f46-4a12-832d-58f30db729be"><path class="aa14cddf-7ef8-4c96-925b-32b87a40ab2d" d="M36.11,222.8534v.2539a6.5661,6.5661,0,0,1-1.7227-1.2168,6.8883,6.8883,0,0,1-1.5176-2.3379,7.5344,7.5344,0,0,1-.5332-2.7969,7.3817,7.3817,0,0,1,1.0459-3.8652,6.0176,6.0176,0,0,1,2.7276-2.498v.2871a3.9017,3.9017,0,0,0-1.3809,1.2715,5.8741,5.8741,0,0,0-.8066,2.0429,12.2516,12.2516,0,0,0-.2666,2.584,14.4192,14.4192,0,0,0,.2255,2.66,7.0747,7.0747,0,0,0,.4307,1.5136,4.8865,4.8865,0,0,0,.68,1.0977A5.3583,5.3583,0,0,0,36.11,222.8534Z"/><path class="aa14cddf-7ef8-4c96-925b-32b87a40ab2d" d="M43.5474,215.4979h.3076a2.0339,2.0339,0,0,1-.5059,1.3926,1.555,1.555,0,0,1-1.1689.502,2.4315,2.4315,0,0,1-.6768-.1055q-.3625-.1085-1.873-.7227a4.68,4.68,0,0,0-1.4971-.4375,1.16,1.16,0,0,0-.8066.295,1.7108,1.7108,0,0,0-.4649.957H36.561a2.1155,2.1155,0,0,1,.5059-1.4121,1.46,1.46,0,0,1,1.0937-.4883,2.0826,2.0826,0,0,1,.6153.0957,16.727,16.727,0,0,1,1.87.7012,5.0332,5.0332,0,0,0,1.63.4941,1.209,1.209,0,0,0,.8613-.3281A1.4415,1.4415,0,0,0,43.5474,215.4979Z"/><path class="aa14cddf-7ef8-4c96-925b-32b87a40ab2d" d="M45.6392,211.7518l2.2558-1.1h.2256v7.8262a4.1481,4.1481,0,0,0,.0649.9707.5058.5058,0,0,0,.27.2949,2.2753,2.2753,0,0,0,.834.1153v.2539H45.8032v-.2539a2.3708,2.3708,0,0,0,.8477-.1114.5658.5658,0,0,0,.2666-.2676,3.6144,3.6144,0,0,0,.0752-1.0019v-5.0039a7.3806,7.3806,0,0,0-.0684-1.2988.5474.5474,0,0,0-.1743-.32.4687.4687,0,0,0-.3042-.1035,1.8023,1.8023,0,0,0-.7041.2129Z"/><path class="aa14cddf-7ef8-4c96-925b-32b87a40ab2d" d="M51.5044,215.5331a7.0529,7.0529,0,0,1,.4785-2.73,3.83,3.83,0,0,1,1.2715-1.707,2.1535,2.1535,0,0,1,1.2715-.4434,2.4177,2.4177,0,0,1,1.914,1.086,5.7505,5.7505,0,0,1,1.06,3.65,7.1965,7.1965,0,0,1-.4648,2.7421,3.6278,3.6278,0,0,1-1.1861,1.6368,2.4254,2.4254,0,0,1-1.3911.51,2.5578,2.5578,0,0,1-2.208-1.5664A6.3671,6.3671,0,0,1,51.5044,215.5331Zm1.34.17a8.7222,8.7222,0,0,0,.4717,3.125q.39,1.0165,1.1621,1.0176a1.2123,1.2123,0,0,0,.7657-.33,2.12,2.12,0,0,0,.6015-1.1113,13.525,13.525,0,0,0,.3145-3.3164,9.0644,9.0644,0,0,0-.3282-2.6446,2.3439,2.3439,0,0,0-.6357-1.1152,1.0452,1.0452,0,0,0-.6768-.2246,1.076,1.076,0,0,0-.8271.416,3.4858,3.4858,0,0,0-.67,1.7852A16.5488,16.5488,0,0,0,52.8442,215.703Z"/><path class="aa14cddf-7ef8-4c96-925b-32b87a40ab2d" d="M58.5044,215.5331a7.0529,7.0529,0,0,1,.4785-2.73,3.83,3.83,0,0,1,1.2715-1.707,2.1535,2.1535,0,0,1,1.2715-.4434,2.4177,2.4177,0,0,1,1.914,1.086,5.7505,5.7505,0,0,1,1.06,3.65,7.1965,7.1965,0,0,1-.4648,2.7421,3.6278,3.6278,0,0,1-1.1861,1.6368,2.4254,2.4254,0,0,1-1.3911.51,2.5578,2.5578,0,0,1-2.208-1.5664A6.3671,6.3671,0,0,1,58.5044,215.5331Zm1.34.17a8.7222,8.7222,0,0,0,.4717,3.125q.39,1.0165,1.1621,1.0176a1.2123,1.2123,0,0,0,.7657-.33,2.12,2.12,0,0,0,.6015-1.1113,13.525,13.525,0,0,0,.3145-3.3164,9.0644,9.0644,0,0,0-.3282-2.6446,2.3439,2.3439,0,0,0-.6357-1.1152,1.0452,1.0452,0,0,0-.6768-.2246,1.076,1.076,0,0,0-.8271.416,3.4858,3.4858,0,0,0-.67,1.7852A16.5488,16.5488,0,0,0,59.8442,215.703Z"/><path class="aa14cddf-7ef8-4c96-925b-32b87a40ab2d" d="M72.9829,213.6659v2.1328h-.2256a2.7768,2.7768,0,0,0-.6665-1.3672,1.5039,1.5039,0,0,0-1.0356-.3613,1.146,1.146,0,0,0-.7725.2519.7363.7363,0,0,0-.2939.5606,1.0141,1.0141,0,0,0,.2187.6562,2.4367,2.4367,0,0,0,.8613.5957l.9981.4844a2.03,2.03,0,0,1,1.3877,1.7852,1.6848,1.6848,0,0,1-.646,1.3769,2.2354,2.2354,0,0,1-1.4458.5235A4.9738,4.9738,0,0,1,70.05,220.1a1.2863,1.2863,0,0,0-.3691-.0684.2705.2705,0,0,0-.2461.1778H69.21v-2.2364h.2256a2.5468,2.5468,0,0,0,.7314,1.4434,1.7694,1.7694,0,0,0,1.21.4844,1.0868,1.0868,0,0,0,.769-.2754.8828.8828,0,0,0,.2974-.668,1.0611,1.0611,0,0,0-.3316-.793,5.8587,5.8587,0,0,0-1.3227-.8125,3.9317,3.9317,0,0,1-1.2989-.8886,1.54,1.54,0,0,1-.3076-.9844,1.7405,1.7405,0,0,1,.53-1.293,1.877,1.877,0,0,1,1.3706-.5195,3.2026,3.2026,0,0,1,.8955.1582,2.0885,2.0885,0,0,0,.4649.1016.277.277,0,0,0,.1709-.0469.68.68,0,0,0,.1435-.2129Z"/><path class="aa14cddf-7ef8-4c96-925b-32b87a40ab2d" d="M74.2612,210.68v-.2871a6.3749,6.3749,0,0,1,1.73,1.2089,7.0122,7.0122,0,0,1,1.5108,2.3418,7.5226,7.5226,0,0,1,.5332,2.7989,7.4086,7.4086,0,0,1-1.0425,3.8672,6.0025,6.0025,0,0,1-2.731,2.498v-.2539a4.0315,4.0315,0,0,0,1.3843-1.2734,5.7622,5.7622,0,0,0,.8066-2.045,12.4426,12.4426,0,0,0,.2632-2.5879,14.448,14.448,0,0,0-.2256-2.6582,6.6324,6.6324,0,0,0-.4272-1.5117,5.1212,5.1212,0,0,0-.68-1.0937A5.2214,5.2214,0,0,0,74.2612,210.68Z"/></g><g class="b6e9f41c-3f46-4a12-832d-58f30db729be"><path class="a30ecb2e-27a9-41f9-924d-ff30b9b11f98" d="M176.8848,222.8534v.2539a6.5661,6.5661,0,0,1-1.7227-1.2168,6.8883,6.8883,0,0,1-1.5176-2.3379,7.5344,7.5344,0,0,1-.5332-2.7969,7.3817,7.3817,0,0,1,1.0459-3.8652,6.0176,6.0176,0,0,1,2.7276-2.498v.2871a3.9017,3.9017,0,0,0-1.3809,1.2715,5.8741,5.8741,0,0,0-.8066,2.0429,12.2516,12.2516,0,0,0-.2666,2.584,14.41,14.41,0,0,0,.2256,2.66,7.0694,7.0694,0,0,0,.4306,1.5136,4.8865,4.8865,0,0,0,.68,1.0977A5.3583,5.3583,0,0,0,176.8848,222.8534Z"/><path class="a30ecb2e-27a9-41f9-924d-ff30b9b11f98" d="M184.3223,215.4979h.3076a2.0339,2.0339,0,0,1-.5059,1.3926,1.555,1.555,0,0,1-1.1689.502,2.4315,2.4315,0,0,1-.6768-.1055q-.3625-.1085-1.873-.7227a4.68,4.68,0,0,0-1.4971-.4375,1.16,1.16,0,0,0-.8066.295,1.7108,1.7108,0,0,0-.4649.957h-.3008a2.1155,2.1155,0,0,1,.5059-1.4121,1.46,1.46,0,0,1,1.0937-.4883,2.0826,2.0826,0,0,1,.6153.0957,16.727,16.727,0,0,1,1.87.7012,5.0332,5.0332,0,0,0,1.63.4941,1.209,1.209,0,0,0,.8613-.3281A1.4411,1.4411,0,0,0,184.3223,215.4979Z"/><path class="a30ecb2e-27a9-41f9-924d-ff30b9b11f98" d="M186.4141,211.7518l2.2558-1.1h.2256v7.8262a4.1481,4.1481,0,0,0,.0649.9707.5061.5061,0,0,0,.27.2949,2.2753,2.2753,0,0,0,.834.1153v.2539h-3.4864v-.2539a2.3708,2.3708,0,0,0,.8477-.1114.5658.5658,0,0,0,.2666-.2676,3.6144,3.6144,0,0,0,.0752-1.0019v-5.0039a7.3806,7.3806,0,0,0-.0684-1.2988.5474.5474,0,0,0-.1743-.32.4687.4687,0,0,0-.3042-.1035,1.8023,1.8023,0,0,0-.7041.2129Z"/><path class="a30ecb2e-27a9-41f9-924d-ff30b9b11f98" d="M193.5234,218.787a.7527.7527,0,1,1-.5366.2187A.7348.7348,0,0,1,193.5234,218.787Z"/><path class="a30ecb2e-27a9-41f9-924d-ff30b9b11f98" d="M201.3506,210.8436l-.5332,1.1621h-2.7891L197.42,213.25a4.8892,4.8892,0,0,1,2.8711,1.3457,3.03,3.03,0,0,1,.9092,2.1875,3.0926,3.0926,0,0,1-.2974,1.3535,3.6549,3.6549,0,0,1-.7485,1.0605,3.8221,3.8221,0,0,1-1.0049.7032,3.684,3.684,0,0,1-1.6133.3769,2.0591,2.0591,0,0,1-1.2133-.2832.7939.7939,0,0,1-.3794-.6269.45.45,0,0,1,.1572-.3379.5587.5587,0,0,1,.3965-.1465.8029.8029,0,0,1,.311.0547,2.7614,2.7614,0,0,1,.4546.2793,1.7987,1.7987,0,0,0,1.0391.3554,1.929,1.929,0,0,0,1.4047-.6035,2.0073,2.0073,0,0,0,.605-1.4746,2.5842,2.5842,0,0,0-.54-1.5683,3.4841,3.4841,0,0,0-1.49-1.125,6.0772,6.0772,0,0,0-2.03-.3555l1.7773-3.6016Z"/><path class="a30ecb2e-27a9-41f9-924d-ff30b9b11f98" d="M210.2578,213.6659v2.1328h-.2256a2.7768,2.7768,0,0,0-.6665-1.3672,1.5039,1.5039,0,0,0-1.0356-.3613,1.146,1.146,0,0,0-.7725.2519.7363.7363,0,0,0-.2939.5606,1.0141,1.0141,0,0,0,.2187.6562,2.4363,2.4363,0,0,0,.8614.5957l.998.4844a2.03,2.03,0,0,1,1.3877,1.7852,1.6848,1.6848,0,0,1-.646,1.3769,2.2354,2.2354,0,0,1-1.4458.5235,4.9738,4.9738,0,0,1-1.3125-.2051,1.2863,1.2863,0,0,0-.3691-.0684.2705.2705,0,0,0-.2461.1778h-.2256v-2.2364h.2256a2.5468,2.5468,0,0,0,.7314,1.4434,1.7694,1.7694,0,0,0,1.21.4844,1.0868,1.0868,0,0,0,.769-.2754.8828.8828,0,0,0,.2974-.668,1.0611,1.0611,0,0,0-.3316-.793,5.8587,5.8587,0,0,0-1.3227-.8125,3.9317,3.9317,0,0,1-1.2989-.8886,1.54,1.54,0,0,1-.3076-.9844,1.7405,1.7405,0,0,1,.53-1.293,1.877,1.877,0,0,1,1.3706-.5195,3.2026,3.2026,0,0,1,.8955.1582,2.09,2.09,0,0,0,.4649.1016.277.277,0,0,0,.1709-.0469.68.68,0,0,0,.1435-.2129Z"/><path class="a30ecb2e-27a9-41f9-924d-ff30b9b11f98" d="M211.5361,210.68v-.2871a6.3749,6.3749,0,0,1,1.73,1.2089,7.0122,7.0122,0,0,1,1.5108,2.3418,7.5226,7.5226,0,0,1,.5332,2.7989,7.4086,7.4086,0,0,1-1.0425,3.8672,6.0025,6.0025,0,0,1-2.731,2.498v-.2539A4.0315,4.0315,0,0,0,212.92,221.58a5.764,5.764,0,0,0,.8067-2.045,12.4494,12.4494,0,0,0,.2631-2.5879,14.448,14.448,0,0,0-.2256-2.6582,6.6324,6.6324,0,0,0-.4272-1.5117,5.1212,5.1212,0,0,0-.68-1.0937A5.2214,5.2214,0,0,0,211.5361,210.68Z"/></g><g class="b6e9f41c-3f46-4a12-832d-58f30db729be"><path class="b6bcd5b4-44c4-4c93-9a5c-506700a3838b" d="M301.57,223.3143v.253a6.5573,6.5573,0,0,1-1.7226-1.2168,6.8679,6.8679,0,0,1-1.5176-2.3379,7.5277,7.5277,0,0,1-.5332-2.7959,7.384,7.384,0,0,1,1.0459-3.8662,6.0226,6.0226,0,0,1,2.7275-2.4981v.2871a3.924,3.924,0,0,0-1.3808,1.2715,5.89,5.89,0,0,0-.8067,2.044,12.2442,12.2442,0,0,0-.2666,2.5839,14.3981,14.3981,0,0,0,.2256,2.6592,7.1069,7.1069,0,0,0,.4307,1.5137,4.8636,4.8636,0,0,0,.6806,1.0976A5.3572,5.3572,0,0,0,301.57,223.3143Z"/><path class="b6bcd5b4-44c4-4c93-9a5c-506700a3838b" d="M309.0078,215.9589h.3076a2.0287,2.0287,0,0,1-.5058,1.3916,1.554,1.554,0,0,1-1.169.5019,2.4327,2.4327,0,0,1-.6767-.1055q-.3618-.1068-1.8731-.7216a4.6462,4.6462,0,0,0-1.497-.4375,1.1648,1.1648,0,0,0-.8067.2939,1.7218,1.7218,0,0,0-.4648.957h-.3008a2.1182,2.1182,0,0,1,.5058-1.4121,1.4653,1.4653,0,0,1,1.0938-.4882,2.11,2.11,0,0,1,.6152.0957,16.9027,16.9027,0,0,1,1.87.7011,5.0393,5.0393,0,0,0,1.63.4951,1.2089,1.2089,0,0,0,.8614-.3281A1.4407,1.4407,0,0,0,309.0078,215.9589Z"/><path class="b6bcd5b4-44c4-4c93-9a5c-506700a3838b" d="M309.9648,215.993a7.0668,7.0668,0,0,1,.4786-2.73,3.8278,3.8278,0,0,1,1.2714-1.7061,2.1481,2.1481,0,0,1,1.2715-.4443,2.4183,2.4183,0,0,1,1.9141,1.0869,5.7446,5.7446,0,0,1,1.06,3.65,7.1836,7.1836,0,0,1-.4649,2.7412,3.6213,3.6213,0,0,1-1.1855,1.6367,2.4268,2.4268,0,0,1-1.3916.51,2.5589,2.5589,0,0,1-2.208-1.5654A6.3767,6.3767,0,0,1,309.9648,215.993Zm1.34.1709a8.7184,8.7184,0,0,0,.4717,3.1241q.39,1.018,1.1621,1.0185a1.2126,1.2126,0,0,0,.7656-.331,2.1128,2.1128,0,0,0,.6016-1.1114,13.4959,13.4959,0,0,0,.3144-3.3154,9.0751,9.0751,0,0,0-.3281-2.6455,2.3471,2.3471,0,0,0-.6357-1.1143,1.0449,1.0449,0,0,0-.6768-.2255,1.0754,1.0754,0,0,0-.8272.4169,3.4875,3.4875,0,0,0-.67,1.7842A16.6493,16.6493,0,0,0,311.3047,216.1639Z"/><path class="b6bcd5b4-44c4-4c93-9a5c-506700a3838b" d="M318.209,219.2469a.7537.7537,0,1,1-.5361.2188A.737.737,0,0,1,318.209,219.2469Z"/><path class="b6bcd5b4-44c4-4c93-9a5c-506700a3838b" d="M326.0361,211.3036l-.5332,1.1621h-2.789l-.6084,1.2441a4.8827,4.8827,0,0,1,2.8711,1.3467,3.0255,3.0255,0,0,1,.9091,2.1875,3.1,3.1,0,0,1-.2968,1.3535,3.6539,3.6539,0,0,1-.7491,1.06,3.8017,3.8017,0,0,1-1.0048.7041,3.6928,3.6928,0,0,1-1.6133.376,2.051,2.051,0,0,1-1.2129-.2832.795.795,0,0,1-.38-.626.454.454,0,0,1,.1572-.3389.5608.5608,0,0,1,.3965-.1464.8221.8221,0,0,1,.3115.0546,2.8489,2.8489,0,0,1,.4541.28,1.8071,1.8071,0,0,0,1.0391.3555,1.9317,1.9317,0,0,0,1.4053-.6045,2.0066,2.0066,0,0,0,.6045-1.4736,2.5833,2.5833,0,0,0-.54-1.5694,3.4679,3.4679,0,0,0-1.49-1.124,6.05,6.05,0,0,0-2.03-.3555l1.7774-3.6025Z"/><path class="b6bcd5b4-44c4-4c93-9a5c-506700a3838b" d="M334.9434,214.1268V216.26h-.2256a2.7727,2.7727,0,0,0-.666-1.3671,1.5009,1.5009,0,0,0-1.0362-.3623,1.1425,1.1425,0,0,0-.7724.2529.7363.7363,0,0,0-.294.5605,1.0211,1.0211,0,0,0,.2188.6563,2.4482,2.4482,0,0,0,.8613.5947l.998.4854a2.0274,2.0274,0,0,1,1.3877,1.7841,1.6832,1.6832,0,0,1-.6455,1.377,2.2364,2.2364,0,0,1-1.4463.5234,4.97,4.97,0,0,1-1.3125-.2051,1.3243,1.3243,0,0,0-.3691-.0683.2732.2732,0,0,0-.2461.1777H331.17v-2.2353h.2256a2.55,2.55,0,0,0,.7315,1.4424,1.7677,1.7677,0,0,0,1.21.4853,1.0885,1.0885,0,0,0,.7695-.2764.88.88,0,0,0,.2969-.667,1.0605,1.0605,0,0,0-.331-.7929,5.8139,5.8139,0,0,0-1.3233-.8135,3.921,3.921,0,0,1-1.2988-.8887,1.5394,1.5394,0,0,1-.3076-.9843,1.7361,1.7361,0,0,1,.53-1.292,1.8709,1.8709,0,0,1,1.37-.52,3.2316,3.2316,0,0,1,.8955.1573,2.122,2.122,0,0,0,.4648.1025.2689.2689,0,0,0,.1709-.0479.66.66,0,0,0,.1436-.2119Z"/><path class="b6bcd5b4-44c4-4c93-9a5c-506700a3838b" d="M336.2217,211.14v-.2871a6.3627,6.3627,0,0,1,1.7295,1.21,6.99,6.99,0,0,1,1.5107,2.3408,7.5252,7.5252,0,0,1,.5332,2.8,7.4079,7.4079,0,0,1-1.042,3.8662,5.9976,5.9976,0,0,1-2.7314,2.4981v-.253a4.0346,4.0346,0,0,0,1.3847-1.2744,5.7633,5.7633,0,0,0,.8067-2.0449,12.4756,12.4756,0,0,0,.2627-2.5869,14.467,14.467,0,0,0-.2256-2.6592,6.5886,6.5886,0,0,0-.4268-1.5107,5.0556,5.0556,0,0,0-.6806-1.0938A5.2194,5.2194,0,0,0,336.2217,211.14Z"/></g><g class="b6e9f41c-3f46-4a12-832d-58f30db729be"><path class="ba5ca754-606f-48aa-9ae0-48575ec9eb8d" d="M437.0957,223.3143v.253a6.5265,6.5265,0,0,1-1.7227-1.2168,6.8692,6.8692,0,0,1-1.5175-2.3379,7.5277,7.5277,0,0,1-.5332-2.7959,7.384,7.384,0,0,1,1.0459-3.8662,6.0226,6.0226,0,0,1,2.7275-2.4981v.2871a3.9166,3.9166,0,0,0-1.3809,1.2715,5.8725,5.8725,0,0,0-.8066,2.044,12.2442,12.2442,0,0,0-.2666,2.5839,14.3981,14.3981,0,0,0,.2256,2.6592,6.997,6.997,0,0,0,.4307,1.5137,4.8586,4.8586,0,0,0,.68,1.0976A5.3643,5.3643,0,0,0,437.0957,223.3143Z"/><path class="ba5ca754-606f-48aa-9ae0-48575ec9eb8d" d="M444.5332,215.9589h.3076a2.0382,2.0382,0,0,1-.5058,1.3916,1.557,1.557,0,0,1-1.169.5019,2.4223,2.4223,0,0,1-.6767-.1055q-.3633-.1068-1.8731-.7216a4.6587,4.6587,0,0,0-1.4971-.4375,1.163,1.163,0,0,0-.8066.2939,1.7153,1.7153,0,0,0-.4648.957h-.3008a2.1132,2.1132,0,0,1,.5058-1.4121,1.4623,1.4623,0,0,1,1.0938-.4882,2.12,2.12,0,0,1,.6152.0957,16.9756,16.9756,0,0,1,1.8692.7011,5.0418,5.0418,0,0,0,1.6308.4951,1.2085,1.2085,0,0,0,.8613-.3281A1.44,1.44,0,0,0,444.5332,215.9589Z"/><path class="ba5ca754-606f-48aa-9ae0-48575ec9eb8d" d="M445.49,215.993a7.0482,7.0482,0,0,1,.4786-2.73,3.8133,3.8133,0,0,1,1.2714-1.7061,2.1481,2.1481,0,0,1,1.2715-.4443,2.42,2.42,0,0,1,1.9141,1.0869,5.7507,5.7507,0,0,1,1.06,3.65,7.2029,7.2029,0,0,1-.4649,2.7412,3.6218,3.6218,0,0,1-1.1865,1.6367,2.424,2.424,0,0,1-1.3906.51,2.5577,2.5577,0,0,1-2.208-1.5654A6.3662,6.3662,0,0,1,445.49,215.993Zm1.34.1709a8.7184,8.7184,0,0,0,.4717,3.1241q.39,1.018,1.1621,1.0185a1.2148,1.2148,0,0,0,.7656-.331,2.12,2.12,0,0,0,.6016-1.1114,13.5454,13.5454,0,0,0,.3144-3.3154,9.0751,9.0751,0,0,0-.3281-2.6455,2.3463,2.3463,0,0,0-.6358-1.1143,1.0481,1.0481,0,0,0-.6767-.2255,1.0724,1.0724,0,0,0-.8272.4169,3.4786,3.4786,0,0,0-.67,1.7842A16.5078,16.5078,0,0,0,446.83,216.1639Z"/><path class="ba5ca754-606f-48aa-9ae0-48575ec9eb8d" d="M453.7344,219.2469a.7521.7521,0,1,1-.5371.2188A.7393.7393,0,0,1,453.7344,219.2469Z"/><path class="ba5ca754-606f-48aa-9ae0-48575ec9eb8d" d="M455.99,215.993a7.0482,7.0482,0,0,1,.4786-2.73,3.8133,3.8133,0,0,1,1.2714-1.7061,2.1481,2.1481,0,0,1,1.2715-.4443,2.42,2.42,0,0,1,1.9141,1.0869,5.7507,5.7507,0,0,1,1.06,3.65,7.2029,7.2029,0,0,1-.4649,2.7412,3.6218,3.6218,0,0,1-1.1865,1.6367,2.424,2.424,0,0,1-1.3906.51,2.5577,2.5577,0,0,1-2.208-1.5654A6.3662,6.3662,0,0,1,455.99,215.993Zm1.34.1709a8.7184,8.7184,0,0,0,.4717,3.1241q.39,1.018,1.1621,1.0185a1.2148,1.2148,0,0,0,.7656-.331,2.12,2.12,0,0,0,.6016-1.1114,13.5454,13.5454,0,0,0,.3144-3.3154,9.0751,9.0751,0,0,0-.3281-2.6455,2.3463,2.3463,0,0,0-.6358-1.1143,1.0481,1.0481,0,0,0-.6767-.2255,1.0724,1.0724,0,0,0-.8272.4169,3.4786,3.4786,0,0,0-.67,1.7842A16.5078,16.5078,0,0,0,457.33,216.1639Z"/><path class="ba5ca754-606f-48aa-9ae0-48575ec9eb8d" d="M468.5615,211.3036l-.5332,1.1621h-2.789l-.6084,1.2441a4.8885,4.8885,0,0,1,2.8711,1.3467,3.03,3.03,0,0,1,.9091,2.1875,3.1,3.1,0,0,1-.2978,1.3535,3.6513,3.6513,0,0,1-.7481,1.06,3.8017,3.8017,0,0,1-1.0048.7041,3.6989,3.6989,0,0,1-1.6133.376,2.0524,2.0524,0,0,1-1.2139-.2832.7936.7936,0,0,1-.3789-.626.4509.4509,0,0,1,.1572-.3389.5576.5576,0,0,1,.3965-.1464.8213.8213,0,0,1,.3106.0546,2.895,2.895,0,0,1,.455.28,1.8048,1.8048,0,0,0,1.0391.3555,1.93,1.93,0,0,0,1.4043-.6045,2.0075,2.0075,0,0,0,.6055-1.4736,2.59,2.59,0,0,0-.54-1.5694,3.48,3.48,0,0,0-1.49-1.124,6.0589,6.0589,0,0,0-2.03-.3555l1.7774-3.6025Z"/><path class="ba5ca754-606f-48aa-9ae0-48575ec9eb8d" d="M477.4688,214.1268V216.26h-.2256a2.7725,2.7725,0,0,0-.667-1.3671,1.4981,1.4981,0,0,0-1.0352-.3623,1.139,1.139,0,0,0-.7724.2529.7332.7332,0,0,0-.294.5605,1.0155,1.0155,0,0,0,.2188.6563,2.4287,2.4287,0,0,0,.8613.5947l.998.4854a2.029,2.029,0,0,1,1.3877,1.7841,1.6841,1.6841,0,0,1-.6465,1.377,2.2338,2.2338,0,0,1-1.4453.5234,4.97,4.97,0,0,1-1.3125-.2051,1.3249,1.3249,0,0,0-.3691-.0683.2712.2712,0,0,0-.2461.1777h-.2256v-2.2353h.2256a2.5392,2.5392,0,0,0,.7314,1.4424,1.7645,1.7645,0,0,0,1.21.4853,1.0865,1.0865,0,0,0,.7686-.2764.8813.8813,0,0,0,.2978-.667,1.0577,1.0577,0,0,0-.332-.7929,5.801,5.801,0,0,0-1.3223-.8135,3.91,3.91,0,0,1-1.2988-.8887,1.5394,1.5394,0,0,1-.3076-.9843,1.7391,1.7391,0,0,1,.5293-1.292,1.8748,1.8748,0,0,1,1.3711-.52,3.2376,3.2376,0,0,1,.8955.1573,2.11,2.11,0,0,0,.4648.1025.2709.2709,0,0,0,.1709-.0479.66.66,0,0,0,.1436-.2119Z"/><path class="ba5ca754-606f-48aa-9ae0-48575ec9eb8d" d="M478.7471,211.14v-.2871a6.3922,6.3922,0,0,1,1.73,1.21,7.0059,7.0059,0,0,1,1.5107,2.3408,7.5252,7.5252,0,0,1,.5332,2.8,7.3994,7.3994,0,0,1-1.043,3.8662,5.9955,5.9955,0,0,1-2.73,2.4981v-.253a4.0318,4.0318,0,0,0,1.3838-1.2744,5.7466,5.7466,0,0,0,.8066-2.0449,12.4074,12.4074,0,0,0,.2637-2.5869,14.467,14.467,0,0,0-.2256-2.6592,6.6352,6.6352,0,0,0-.4277-1.5107,5.09,5.09,0,0,0-.68-1.0938A5.2411,5.2411,0,0,0,478.7471,211.14Z"/></g><g class="b6e9f41c-3f46-4a12-832d-58f30db729be"><path class="ebfd0d5c-ee08-4e78-b462-fa072bffc153" d="M68.2515,244.7694v-.2168H68.55a.7891.7891,0,0,0,.7148-.3223,1.8353,1.8353,0,0,0,.1289-.8671V238.23a1.64,1.64,0,0,0-.164-.9316.8608.8608,0,0,0-.68-.2578h-.2988v-.2168h3.2343a7.0639,7.0639,0,0,1,2.71.4043,3.2235,3.2235,0,0,1,1.4941,1.3477,4.1566,4.1566,0,0,1,.5655,2.18,3.9759,3.9759,0,0,1-1.0078,2.7715,4.4335,4.4335,0,0,1-3.4454,1.2422Zm2.2675-.5742a5.9838,5.9838,0,0,0,1.2481.1641,2.9629,2.9629,0,0,0,2.2558-.9551,4.1976,4.1976,0,0,0,0-5.1856,3.0264,3.0264,0,0,0-2.3027-.9492,4.9806,4.9806,0,0,0-1.2012.17Z"/><path class="ebfd0d5c-ee08-4e78-b462-fa072bffc153" d="M77.99,241.4237a2.7568,2.7568,0,0,0,.58,1.875,1.7691,1.7691,0,0,0,1.377.68,1.4937,1.4937,0,0,0,.917-.29,2.1419,2.1419,0,0,0,.6533-.9932l.1816.1172a2.7941,2.7941,0,0,1-.7148,1.4619,1.9091,1.9091,0,0,1-1.4824.6592,2.1647,2.1647,0,0,1-1.6553-.753,2.8839,2.8839,0,0,1-.6885-2.0244,3.0608,3.0608,0,0,1,.7061-2.1474,2.3025,2.3025,0,0,1,1.7724-.77,1.9815,1.9815,0,0,1,1.4825.5947,2.18,2.18,0,0,1,.58,1.5908Zm0-.34h2.4844a2.2959,2.2959,0,0,0-.123-.7266,1.1644,1.1644,0,0,0-.4365-.5156,1.101,1.101,0,0,0-.6065-.1875,1.2088,1.2088,0,0,0-.87.3779A1.64,1.64,0,0,0,77.99,241.0839Z"/><path class="ebfd0d5c-ee08-4e78-b462-fa072bffc153" d="M83.8491,242.8124a1.7631,1.7631,0,0,1-1.02-1.6231,1.8318,1.8318,0,0,1,.6006-1.3711,2.1349,2.1349,0,0,1,1.5381-.5742,2.3414,2.3414,0,0,1,1.33.375h1.1368a1.4889,1.4889,0,0,1,.2929.0147.0991.0991,0,0,1,.0586.05.3582.3582,0,0,1,.0352.1875.5239.5239,0,0,1-.0293.2109.12.12,0,0,1-.0615.0469,1.2974,1.2974,0,0,1-.2959.0176h-.6973a1.8081,1.8081,0,0,1-.2461,2.3613,2.1746,2.1746,0,0,1-1.541.5332,2.9976,2.9976,0,0,1-.8145-.1172,1.5416,1.5416,0,0,0-.3486.39.6233.6233,0,0,0-.0908.2841.2715.2715,0,0,0,.0967.1934.7088.7088,0,0,0,.3779.1348q.1641.0234.82.041,1.2071.0292,1.5645.082a1.4711,1.4711,0,0,1,.87.4043,1.104,1.104,0,0,1,.3252.8086,1.6947,1.6947,0,0,1-.6211,1.2422,3.3494,3.3494,0,0,1-2.3848.8555,3.4158,3.4158,0,0,1-1.91-.51q-.4394-.2929-.4394-.6094a.6708.6708,0,0,1,.0644-.2812,3.2842,3.2842,0,0,1,.41-.6036q.041-.0526.5977-.6328a1.8489,1.8489,0,0,1-.4307-.3252.48.48,0,0,1-.126-.3252.9646.9646,0,0,1,.167-.48A3.8458,3.8458,0,0,1,83.8491,242.8124Zm-.0586,1.957a2.8872,2.8872,0,0,0-.416.5567,1.0039,1.0039,0,0,0-.1406.4746.5933.5933,0,0,0,.34.4921,3.2375,3.2375,0,0,0,1.6934.3633,2.62,2.62,0,0,0,1.5557-.372,1.0226,1.0226,0,0,0,.5009-.794.4441.4441,0,0,0-.2988-.4336,3.9152,3.9152,0,0,0-1.207-.1523A19.3073,19.3073,0,0,1,83.7905,244.7694Zm1.0782-5.2441a.9151.9151,0,0,0-.7266.3457,1.6137,1.6137,0,0,0-.293,1.06,2.2821,2.2821,0,0,0,.3985,1.4356.9439.9439,0,0,0,.7734.3867.9228.9228,0,0,0,.7324-.334,1.5871,1.5871,0,0,0,.2871-1.0488,2.3462,2.3462,0,0,0-.4043-1.459A.9281.9281,0,0,0,84.8687,239.5253Z"/><path class="ebfd0d5c-ee08-4e78-b462-fa072bffc153" d="M89.9839,239.244v1.2071q.6738-1.207,1.3828-1.2071a.7519.7519,0,0,1,.5332.1963.6037.6037,0,0,1,.2109.4541.5361.5361,0,0,1-.1523.3867.4871.4871,0,0,1-.3633.1582.774.774,0,0,1-.46-.2021.76.76,0,0,0-.378-.2022.3489.3489,0,0,0-.2285.1172,2.8209,2.8209,0,0,0-.5449.791v2.5723a1.5923,1.5923,0,0,0,.1113.6738.6068.6068,0,0,0,.2695.2637,1.1845,1.1845,0,0,0,.5567.1055v.2109H88.1733v-.2109a1.1412,1.1412,0,0,0,.6094-.1289.5.5,0,0,0,.2051-.2989,3.0159,3.0159,0,0,0,.0293-.5683v-2.08a8.64,8.64,0,0,0-.0381-1.1162.4374.4374,0,0,0-.1406-.2608.3956.3956,0,0,0-.2549-.082,1.159,1.159,0,0,0-.41.0879l-.0586-.2109,1.6231-.6563Z"/><path class="ebfd0d5c-ee08-4e78-b462-fa072bffc153" d="M93.312,241.4237a2.7568,2.7568,0,0,0,.58,1.875,1.769,1.769,0,0,0,1.3769.68,1.4933,1.4933,0,0,0,.917-.29,2.1412,2.1412,0,0,0,.6534-.9932l.1816.1172a2.7941,2.7941,0,0,1-.7148,1.4619,1.9093,1.9093,0,0,1-1.4825.6592,2.1645,2.1645,0,0,1-1.6552-.753,2.8839,2.8839,0,0,1-.6885-2.0244,3.0607,3.0607,0,0,1,.706-2.1474,2.3027,2.3027,0,0,1,1.7725-.77,1.9811,1.9811,0,0,1,1.4824.5947,2.1805,2.1805,0,0,1,.58,1.5908Zm0-.34h2.4844a2.2953,2.2953,0,0,0-.1231-.7266,1.1631,1.1631,0,0,0-.4365-.5156,1.1,1.1,0,0,0-.6064-.1875,1.2088,1.2088,0,0,0-.87.3779A1.64,1.64,0,0,0,93.312,241.0839Z"/><path class="ebfd0d5c-ee08-4e78-b462-fa072bffc153" d="M98.6382,241.4237a2.7563,2.7563,0,0,0,.58,1.875,1.769,1.769,0,0,0,1.3769.68,1.4935,1.4935,0,0,0,.917-.29,2.1411,2.1411,0,0,0,.6533-.9932l.1817.1172a2.7943,2.7943,0,0,1-.7149,1.4619,1.9089,1.9089,0,0,1-1.4824.6592,2.1649,2.1649,0,0,1-1.6553-.753,2.8839,2.8839,0,0,1-.6884-2.0244,3.0607,3.0607,0,0,1,.706-2.1474,2.3026,2.3026,0,0,1,1.7725-.77,1.9813,1.9813,0,0,1,1.4824.5947,2.1805,2.1805,0,0,1,.58,1.5908Zm0-.34h2.4844a2.2982,2.2982,0,0,0-.1231-.7266,1.1637,1.1637,0,0,0-.4365-.5156,1.1007,1.1007,0,0,0-.6065-.1875,1.209,1.209,0,0,0-.87.3779A1.64,1.64,0,0,0,98.6382,241.0839Z"/><path class="ebfd0d5c-ee08-4e78-b462-fa072bffc153" d="M107.9077,236.4374v7.1191a1.9448,1.9448,0,0,0,.0733.668.5188.5188,0,0,0,.2255.249,1.2961,1.2961,0,0,0,.5684.085v.2109H106.144v-.2109a1.1364,1.1364,0,0,0,.5039-.0762.5079.5079,0,0,0,.211-.252,1.96,1.96,0,0,0,.0762-.6738v-4.875a8.4326,8.4326,0,0,0-.0411-1.1162.488.488,0,0,0-.1318-.2842.3476.3476,0,0,0-.2314-.0761,1.0943,1.0943,0,0,0-.3868.0937l-.1-.2051,1.6-.6562Z"/><path class="ebfd0d5c-ee08-4e78-b462-fa072bffc153" d="M111.2476,239.244v4.3125a1.9761,1.9761,0,0,0,.0732.6709.5137.5137,0,0,0,.2168.249,1.16,1.16,0,0,0,.5244.0821v.2109h-2.6074v-.2109a1.213,1.213,0,0,0,.5273-.0762.5222.5222,0,0,0,.2139-.252,1.8939,1.8939,0,0,0,.0791-.6738v-2.0683a7.324,7.324,0,0,0-.0527-1.1309.46.46,0,0,0-.1289-.2607.3637.3637,0,0,0-.24-.0733,1.173,1.173,0,0,0-.3984.0879l-.082-.2109,1.6171-.6563Zm-.4864-2.8066a.59.59,0,0,1,.5918.5918.5805.5805,0,0,1-.1728.4219.5662.5662,0,0,1-.419.1757.5947.5947,0,1,1,0-1.1894Z"/><path class="ebfd0d5c-ee08-4e78-b462-fa072bffc153" d="M116.1987,239.244v1.8281h-.1933a2.3757,2.3757,0,0,0-.5713-1.1718,1.2844,1.2844,0,0,0-.8877-.3106.9794.9794,0,0,0-.6621.2168.629.629,0,0,0-.252.4805.8727.8727,0,0,0,.1875.5625,2.0861,2.0861,0,0,0,.7383.51l.8555.416a1.7388,1.7388,0,0,1,1.1894,1.5293,1.4445,1.4445,0,0,1-.5537,1.1806,1.92,1.92,0,0,1-1.2392.4483,4.2611,4.2611,0,0,1-1.125-.1758,1.1421,1.1421,0,0,0-.3164-.0586.2332.2332,0,0,0-.211.1523h-.1933v-1.916h.1933a2.1813,2.1813,0,0,0,.627,1.2364,1.5131,1.5131,0,0,0,1.0371.416.929.929,0,0,0,.6592-.2373.753.753,0,0,0,.2548-.5713.909.909,0,0,0-.2841-.68,4.9663,4.9663,0,0,0-1.1338-.6973,3.3584,3.3584,0,0,1-1.1133-.7617,1.32,1.32,0,0,1-.2637-.8437,1.4886,1.4886,0,0,1,.4541-1.1075,1.6073,1.6073,0,0,1,1.1748-.4453,2.7591,2.7591,0,0,1,.7676.1348,1.8126,1.8126,0,0,0,.3984.0879.2335.2335,0,0,0,.1465-.041.5625.5625,0,0,0,.1231-.1817Z"/><path class="ebfd0d5c-ee08-4e78-b462-fa072bffc153" d="M118.9585,237.6386v1.7636h1.2539v.41h-1.2539v3.48a1.1692,1.1692,0,0,0,.1494.7032.4745.4745,0,0,0,.3838.1816.6711.6711,0,0,0,.375-.12.7721.7721,0,0,0,.2812-.3545h.2286a1.8394,1.8394,0,0,1-.58.8643,1.2519,1.2519,0,0,1-.7735.29,1.04,1.04,0,0,1-.5273-.1494.9037.9037,0,0,1-.3809-.4277,2.2467,2.2467,0,0,1-.123-.8584v-3.6094h-.85v-.1934a2.224,2.224,0,0,0,.6592-.4365,3.471,3.471,0,0,0,.6006-.73,6.5735,6.5735,0,0,0,.375-.8144Z"/><path class="ebfd0d5c-ee08-4e78-b462-fa072bffc153" d="M126.3589,239.244a2.3784,2.3784,0,0,1,1.957.9258,2.8425,2.8425,0,0,1,.627,1.8164,3.4214,3.4214,0,0,1-.3457,1.459,2.4553,2.4553,0,0,1-2.3028,1.4883,2.2743,2.2743,0,0,1-1.9277-.9668,2.9957,2.9957,0,0,1-.6035-1.8281,3.2441,3.2441,0,0,1,.3662-1.4678,2.5,2.5,0,0,1,.9639-1.0781A2.472,2.472,0,0,1,126.3589,239.244Zm-.1817.3809a1.2223,1.2223,0,0,0-.624.1845,1.2942,1.2942,0,0,0-.5068.6475,3.1159,3.1159,0,0,0-.1934,1.19,4.1444,4.1444,0,0,0,.4658,2.0214,1.3867,1.3867,0,0,0,1.2276.85,1.144,1.144,0,0,0,.9375-.4688,2.6643,2.6643,0,0,0,.3691-1.6113,3.6735,3.6735,0,0,0-.6152-2.25A1.268,1.268,0,0,0,126.1772,239.6249Z"/><path class="ebfd0d5c-ee08-4e78-b462-fa072bffc153" d="M131.8315,239.8241v3.5273a1.7234,1.7234,0,0,0,.1641.9493.72.72,0,0,0,.58.2578h.4863v.2109h-3.2051v-.2109h.24a.81.81,0,0,0,.4277-.1172.6092.6092,0,0,0,.2666-.3164,2.649,2.649,0,0,0,.0732-.7735v-3.5273h-1.0429v-.4219h1.0429v-.3515a3.2213,3.2213,0,0,1,.2579-1.3594,2.11,2.11,0,0,1,.788-.8994,2.15,2.15,0,0,1,1.1924-.3428,1.8088,1.8088,0,0,1,1.1309.3984.7492.7492,0,0,1,.34.5918.4688.4688,0,0,1-.1523.3311.4556.4556,0,0,1-.3281.1553.5274.5274,0,0,1-.2842-.0967,1.546,1.546,0,0,1-.3662-.416,1.4728,1.4728,0,0,0-.3985-.4307.7584.7584,0,0,0-.4043-.1113.73.73,0,0,0-.457.1435.8043.8043,0,0,0-.2695.4453,8.3577,8.3577,0,0,0-.0821,1.5557v.3867h1.3829v.4219Z"/><path class="ebfd0d5c-ee08-4e78-b462-fa072bffc153" d="M138.5757,236.4374v7.1191a1.9481,1.9481,0,0,0,.0732.668.519.519,0,0,0,.2256.249,1.2958,1.2958,0,0,0,.5684.085v.2109H136.812v-.2109a1.1364,1.1364,0,0,0,.5039-.0762.5079.5079,0,0,0,.211-.252,1.9637,1.9637,0,0,0,.0761-.6738v-4.875a8.44,8.44,0,0,0-.041-1.1162.4887.4887,0,0,0-.1318-.2842.3479.3479,0,0,0-.2315-.0761,1.0943,1.0943,0,0,0-.3867.0937l-.1-.2051,1.6-.6562Z"/><path class="ebfd0d5c-ee08-4e78-b462-fa072bffc153" d="M140.9663,241.4237a2.7568,2.7568,0,0,0,.58,1.875,1.769,1.769,0,0,0,1.3769.68,1.4933,1.4933,0,0,0,.917-.29,2.1412,2.1412,0,0,0,.6534-.9932l.1816.1172a2.7936,2.7936,0,0,1-.7149,1.4619,1.9089,1.9089,0,0,1-1.4824.6592,2.1645,2.1645,0,0,1-1.6552-.753,2.8839,2.8839,0,0,1-.6885-2.0244,3.0607,3.0607,0,0,1,.706-2.1474,2.3027,2.3027,0,0,1,1.7725-.77,1.9811,1.9811,0,0,1,1.4824.5947,2.1805,2.1805,0,0,1,.58,1.5908Zm0-.34h2.4844a2.2953,2.2953,0,0,0-.1231-.7266,1.1631,1.1631,0,0,0-.4365-.5156,1.1,1.1,0,0,0-.6064-.1875,1.2086,1.2086,0,0,0-.87.3779A1.64,1.64,0,0,0,140.9663,241.0839Z"/><path class="ebfd0d5c-ee08-4e78-b462-fa072bffc153" d="M146.9546,240.3807a2.5335,2.5335,0,0,1,1.7988-1.1367,1.2926,1.2926,0,0,1,.7559.22,1.4721,1.4721,0,0,1,.5039.7237,3.3483,3.3483,0,0,1,.1289,1.0781v2.291a1.93,1.93,0,0,0,.082.6914.4808.4808,0,0,0,.208.2285,1.1786,1.1786,0,0,0,.53.0821v.2109h-2.6543v-.2109h.1113a.893.893,0,0,0,.5244-.1143.5991.5991,0,0,0,.2081-.3369,3.4292,3.4292,0,0,0,.0234-.5508v-2.1972a2.232,2.232,0,0,0-.19-1.0635.68.68,0,0,0-.6416-.3311,1.9318,1.9318,0,0,0-1.3887.7617v2.83a2.0248,2.0248,0,0,0,.0644.6738.5428.5428,0,0,0,.2256.2491,1.3975,1.3975,0,0,0,.583.0791v.2109h-2.6543v-.2109h.1172a.6306.6306,0,0,0,.5537-.208,1.5179,1.5179,0,0,0,.1436-.794v-1.9922a8.6534,8.6534,0,0,0-.044-1.1777.5043.5043,0,0,0-.1347-.2871.3662.3662,0,0,0-.2432-.0762,1.1264,1.1264,0,0,0-.3926.0879l-.0879-.2109,1.6172-.6563h.252Z"/><path class="ebfd0d5c-ee08-4e78-b462-fa072bffc153" d="M152.8257,242.8124a1.7627,1.7627,0,0,1-1.02-1.6231,1.8317,1.8317,0,0,1,.6005-1.3711,2.1349,2.1349,0,0,1,1.5381-.5742,2.3417,2.3417,0,0,1,1.33.375h1.1367a1.49,1.49,0,0,1,.293.0147.0994.0994,0,0,1,.0586.05.3594.3594,0,0,1,.0351.1875.5221.5221,0,0,1-.0293.2109.12.12,0,0,1-.0615.0469,1.2968,1.2968,0,0,1-.2959.0176h-.6972a1.8081,1.8081,0,0,1-.2461,2.3613,2.1748,2.1748,0,0,1-1.5411.5332,2.9964,2.9964,0,0,1-.8144-.1172,1.54,1.54,0,0,0-.3486.39.6224.6224,0,0,0-.0909.2841.2719.2719,0,0,0,.0967.1934.7091.7091,0,0,0,.3779.1348q.1641.0234.82.041,1.2069.0292,1.5644.082a1.4708,1.4708,0,0,1,.87.4043,1.104,1.104,0,0,1,.3252.8086,1.6943,1.6943,0,0,1-.6211,1.2422,3.3491,3.3491,0,0,1-2.3847.8555,3.4155,3.4155,0,0,1-1.91-.51q-.44-.2929-.4394-.6094a.6693.6693,0,0,1,.0644-.2812,3.2738,3.2738,0,0,1,.41-.6036q.041-.0526.5976-.6328a1.8479,1.8479,0,0,1-.4306-.3252.48.48,0,0,1-.126-.3252.9636.9636,0,0,1,.167-.48A3.843,3.843,0,0,1,152.8257,242.8124Zm-.0586,1.957a2.883,2.883,0,0,0-.416.5567,1.0029,1.0029,0,0,0-.1407.4746.5933.5933,0,0,0,.34.4921,3.2373,3.2373,0,0,0,1.6934.3633,2.6192,2.6192,0,0,0,1.5556-.372,1.0225,1.0225,0,0,0,.501-.794.4441.4441,0,0,0-.2988-.4336,3.916,3.916,0,0,0-1.2071-.1523A19.3029,19.3029,0,0,1,152.7671,244.7694Zm1.0781-5.2441a.9151.9151,0,0,0-.7265.3457,1.6131,1.6131,0,0,0-.293,1.06,2.2828,2.2828,0,0,0,.3984,1.4356.9441.9441,0,0,0,.7735.3867.9229.9229,0,0,0,.7324-.334,1.5871,1.5871,0,0,0,.2871-1.0488,2.3469,2.3469,0,0,0-.4043-1.459A.9283.9283,0,0,0,153.8452,239.5253Z"/><path class="ebfd0d5c-ee08-4e78-b462-fa072bffc153" d="M158.9487,237.6386v1.7636h1.2539v.41h-1.2539v3.48a1.1692,1.1692,0,0,0,.1494.7032.4748.4748,0,0,0,.3838.1816.6711.6711,0,0,0,.375-.12.7723.7723,0,0,0,.2813-.3545h.2285a1.8387,1.8387,0,0,1-.58.8643,1.2518,1.2518,0,0,1-.7734.29,1.04,1.04,0,0,1-.5274-.1494.9035.9035,0,0,1-.3808-.4277,2.2444,2.2444,0,0,1-.1231-.8584v-3.6094h-.85v-.1934a2.2228,2.2228,0,0,0,.6592-.4365,3.471,3.471,0,0,0,.6006-.73,6.5735,6.5735,0,0,0,.375-.8144Z"/><path class="ebfd0d5c-ee08-4e78-b462-fa072bffc153" d="M162.3,236.4374v3.9258a4.5121,4.5121,0,0,1,1.0312-.917,1.6121,1.6121,0,0,1,.7618-.2022,1.2511,1.2511,0,0,1,.7851.252,1.4868,1.4868,0,0,1,.4863.791,5.5967,5.5967,0,0,1,.1114,1.3711v1.8984a1.9841,1.9841,0,0,0,.082.6973.4579.4579,0,0,0,.1992.2226,1.1217,1.1217,0,0,0,.5156.0821v.2109h-2.6367v-.2109h.1231a.8783.8783,0,0,0,.5215-.1143.6063.6063,0,0,0,.205-.3369,4.6272,4.6272,0,0,0,.0176-.5508v-1.8984a4.5632,4.5632,0,0,0-.0908-1.1543.7779.7779,0,0,0-.29-.4131.8244.8244,0,0,0-.4805-.1377,1.3568,1.3568,0,0,0-.5977.1523,2.8531,2.8531,0,0,0-.7441.6153v2.8359a2.21,2.21,0,0,0,.0615.6856.5008.5008,0,0,0,.2285.2256,1.3066,1.3066,0,0,0,.5772.0908v.2109h-2.66v-.2109a1.1864,1.1864,0,0,0,.5625-.1114.418.418,0,0,0,.1875-.2226,2.0228,2.0228,0,0,0,.07-.668v-4.8574a8.1046,8.1046,0,0,0-.0439-1.1309.5043.5043,0,0,0-.1348-.2871.3659.3659,0,0,0-.2431-.0761,1.4292,1.4292,0,0,0-.3985.0937l-.082-.2051,1.6055-.6562Z"/><path class="ebfd0d5c-ee08-4e78-b462-fa072bffc153" d="M174.5581,236.8241l-.457.9961H171.71l-.5214,1.0664a4.1844,4.1844,0,0,1,2.4609,1.1543,2.5942,2.5942,0,0,1,.7793,1.875,2.6555,2.6555,0,0,1-.2549,1.16,3.1312,3.1312,0,0,1-.6416.9082,3.2678,3.2678,0,0,1-.8613.6035,3.1723,3.1723,0,0,1-1.3828.3222,1.755,1.755,0,0,1-1.04-.2431.6791.6791,0,0,1-.3252-.5362.387.387,0,0,1,.1348-.29.478.478,0,0,1,.34-.126.6985.6985,0,0,1,.2667.0469,2.4733,2.4733,0,0,1,.39.24,1.55,1.55,0,0,0,.8906.3047,1.6517,1.6517,0,0,0,1.2041-.5185,1.7185,1.7185,0,0,0,.5186-1.2627,2.2136,2.2136,0,0,0-.4629-1.3448,2.97,2.97,0,0,0-1.2774-.9638,5.18,5.18,0,0,0-1.74-.3047l1.5234-3.0879Z"/><path class="ebfd0d5c-ee08-4e78-b462-fa072bffc153" d="M175.7827,240.8436a6.0518,6.0518,0,0,1,.41-2.3408,3.2755,3.2755,0,0,1,1.09-1.4619,1.84,1.84,0,0,1,1.09-.3809,2.0737,2.0737,0,0,1,1.6406.9317,4.9278,4.9278,0,0,1,.9082,3.1289,6.1662,6.1662,0,0,1-.3985,2.35,3.1082,3.1082,0,0,1-1.0166,1.4033,2.08,2.08,0,0,1-1.1923.4365,2.1934,2.1934,0,0,1-1.8926-1.3418A5.458,5.458,0,0,1,175.7827,240.8436Zm1.1485.1465a7.4749,7.4749,0,0,0,.4042,2.6777q.334.8732.9961.8731a1.04,1.04,0,0,0,.6563-.2842,1.8084,1.8084,0,0,0,.5156-.9521,11.58,11.58,0,0,0,.2695-2.8418,7.78,7.78,0,0,0-.2812-2.2676,2.0125,2.0125,0,0,0-.5449-.9551.8961.8961,0,0,0-.58-.1933.9213.9213,0,0,0-.709.3574,2.9862,2.9862,0,0,0-.5742,1.5293A14.21,14.21,0,0,0,176.9312,240.99Z"/></g><g class="b6e9f41c-3f46-4a12-832d-58f30db729be"><path class="ebfd0d5c-ee08-4e78-b462-fa072bffc153" d="M328.9619,244.7694v-.2168h.2988a.7891.7891,0,0,0,.7149-.3223,1.8366,1.8366,0,0,0,.1289-.8671V238.23a1.64,1.64,0,0,0-.1641-.9316.8607.8607,0,0,0-.68-.2578h-.2988v-.2168h3.2344a7.0642,7.0642,0,0,1,2.71.4043,3.2239,3.2239,0,0,1,1.4941,1.3477,4.1574,4.1574,0,0,1,.5654,2.18,3.9754,3.9754,0,0,1-1.0078,2.7715,4.4332,4.4332,0,0,1-3.4453,1.2422Zm2.2676-.5742a5.983,5.983,0,0,0,1.248.1641,2.9631,2.9631,0,0,0,2.2559-.9551,4.1976,4.1976,0,0,0,0-5.1856,3.0266,3.0266,0,0,0-2.3027-.9492,4.9793,4.9793,0,0,0-1.2012.17Z"/><path class="ebfd0d5c-ee08-4e78-b462-fa072bffc153" d="M338.7,241.4237a2.7563,2.7563,0,0,0,.58,1.875,1.769,1.769,0,0,0,1.3769.68,1.4933,1.4933,0,0,0,.917-.29,2.14,2.14,0,0,0,.6533-.9932l.1817.1172a2.7943,2.7943,0,0,1-.7149,1.4619,1.9089,1.9089,0,0,1-1.4824.6592,2.1649,2.1649,0,0,1-1.6553-.753,2.8843,2.8843,0,0,1-.6884-2.0244,3.0607,3.0607,0,0,1,.706-2.1474,2.3026,2.3026,0,0,1,1.7725-.77,1.9813,1.9813,0,0,1,1.4824.5947,2.1805,2.1805,0,0,1,.58,1.5908Zm0-.34h2.4844a2.2982,2.2982,0,0,0-.1231-.7266,1.1631,1.1631,0,0,0-.4365-.5156,1.1006,1.1006,0,0,0-.6064-.1875,1.209,1.209,0,0,0-.87.3779A1.64,1.64,0,0,0,338.7,241.0839Z"/><path class="ebfd0d5c-ee08-4e78-b462-fa072bffc153" d="M344.56,242.8124a1.763,1.763,0,0,1-1.02-1.6231,1.8318,1.8318,0,0,1,.6006-1.3711,2.1349,2.1349,0,0,1,1.5381-.5742,2.3417,2.3417,0,0,1,1.33.375h1.1367a1.49,1.49,0,0,1,.293.0147.0994.0994,0,0,1,.0586.05.3594.3594,0,0,1,.0351.1875.5221.5221,0,0,1-.0293.2109.12.12,0,0,1-.0615.0469,1.2968,1.2968,0,0,1-.2959.0176h-.6973a1.8078,1.8078,0,0,1-.2461,2.3613,2.1744,2.1744,0,0,1-1.541.5332,2.9964,2.9964,0,0,1-.8144-.1172,1.5423,1.5423,0,0,0-.3487.39.6233.6233,0,0,0-.0908.2841.2719.2719,0,0,0,.0967.1934.7091.7091,0,0,0,.3779.1348q.1641.0234.82.041,1.2071.0292,1.5645.082a1.4708,1.4708,0,0,1,.87.4043,1.104,1.104,0,0,1,.3252.8086,1.6943,1.6943,0,0,1-.6211,1.2422,3.3493,3.3493,0,0,1-2.3847.8555,3.4153,3.4153,0,0,1-1.91-.51q-.44-.2929-.44-.6094a.6694.6694,0,0,1,.0645-.2812,3.2738,3.2738,0,0,1,.41-.6036q.041-.0526.5976-.6328a1.8511,1.8511,0,0,1-.4307-.3252.48.48,0,0,1-.1259-.3252.9636.9636,0,0,1,.167-.48A3.843,3.843,0,0,1,344.56,242.8124Zm-.0586,1.957a2.883,2.883,0,0,0-.416.5567,1.0029,1.0029,0,0,0-.1407.4746.5933.5933,0,0,0,.34.4921,3.2371,3.2371,0,0,0,1.6933.3633,2.6193,2.6193,0,0,0,1.5557-.372,1.0225,1.0225,0,0,0,.501-.794.4441.4441,0,0,0-.2988-.4336,3.916,3.916,0,0,0-1.2071-.1523A19.3029,19.3029,0,0,1,344.501,244.7694Zm1.0781-5.2441a.9153.9153,0,0,0-.7266.3457,1.6137,1.6137,0,0,0-.2929,1.06,2.2828,2.2828,0,0,0,.3984,1.4356.9439.9439,0,0,0,.7734.3867.923.923,0,0,0,.7325-.334,1.5871,1.5871,0,0,0,.2871-1.0488,2.3469,2.3469,0,0,0-.4043-1.459A.9283.9283,0,0,0,345.5791,239.5253Z"/><path class="ebfd0d5c-ee08-4e78-b462-fa072bffc153" d="M350.6943,239.244v1.2071q.6739-1.207,1.3828-1.2071a.7522.7522,0,0,1,.5333.1963.6037.6037,0,0,1,.2109.4541.5362.5362,0,0,1-.1524.3867.4867.4867,0,0,1-.3632.1582.774.774,0,0,1-.46-.2021.7594.7594,0,0,0-.3779-.2022.3489.3489,0,0,0-.2285.1172,2.8208,2.8208,0,0,0-.545.791v2.5723a1.5905,1.5905,0,0,0,.1114.6738.6063.6063,0,0,0,.2695.2637,1.1838,1.1838,0,0,0,.5566.1055v.2109h-2.748v-.2109a1.1414,1.1414,0,0,0,.6094-.1289.5.5,0,0,0,.205-.2989,3.0066,3.0066,0,0,0,.0293-.5683v-2.08a8.67,8.67,0,0,0-.038-1.1162.4369.4369,0,0,0-.1407-.2608.3954.3954,0,0,0-.2549-.082,1.1585,1.1585,0,0,0-.41.0879l-.0586-.2109,1.623-.6563Z"/><path class="ebfd0d5c-ee08-4e78-b462-fa072bffc153" d="M354.0225,241.4237a2.7568,2.7568,0,0,0,.58,1.875,1.7692,1.7692,0,0,0,1.377.68,1.4935,1.4935,0,0,0,.917-.29,2.1411,2.1411,0,0,0,.6533-.9932l.1816.1172a2.7941,2.7941,0,0,1-.7148,1.4619,1.9091,1.9091,0,0,1-1.4824.6592,2.1647,2.1647,0,0,1-1.6553-.753,2.8839,2.8839,0,0,1-.6885-2.0244,3.0608,3.0608,0,0,1,.7061-2.1474,2.3025,2.3025,0,0,1,1.7724-.77,1.9815,1.9815,0,0,1,1.4825.5947,2.18,2.18,0,0,1,.58,1.5908Zm0-.34h2.4843a2.2959,2.2959,0,0,0-.123-.7266,1.1644,1.1644,0,0,0-.4365-.5156,1.1007,1.1007,0,0,0-.6065-.1875,1.209,1.209,0,0,0-.87.3779A1.6394,1.6394,0,0,0,354.0225,241.0839Z"/><path class="ebfd0d5c-ee08-4e78-b462-fa072bffc153" d="M359.3486,241.4237a2.7568,2.7568,0,0,0,.58,1.875,1.7691,1.7691,0,0,0,1.377.68,1.4937,1.4937,0,0,0,.917-.29,2.1419,2.1419,0,0,0,.6533-.9932l.1816.1172a2.7941,2.7941,0,0,1-.7148,1.4619,1.9092,1.9092,0,0,1-1.4824.6592,2.1647,2.1647,0,0,1-1.6553-.753,2.8839,2.8839,0,0,1-.6885-2.0244,3.0608,3.0608,0,0,1,.7061-2.1474,2.3025,2.3025,0,0,1,1.7724-.77,1.9811,1.9811,0,0,1,1.4824.5947,2.18,2.18,0,0,1,.58,1.5908Zm0-.34h2.4844a2.2959,2.2959,0,0,0-.123-.7266,1.1639,1.1639,0,0,0-.4366-.5156,1.1,1.1,0,0,0-.6064-.1875,1.2088,1.2088,0,0,0-.87.3779A1.64,1.64,0,0,0,359.3486,241.0839Z"/><path class="ebfd0d5c-ee08-4e78-b462-fa072bffc153" d="M368.6182,236.4374v7.1191a1.9481,1.9481,0,0,0,.0732.668.5185.5185,0,0,0,.2256.249,1.2958,1.2958,0,0,0,.5684.085v.2109h-2.6309v-.2109a1.1364,1.1364,0,0,0,.5039-.0762.5078.5078,0,0,0,.2109-.252,1.96,1.96,0,0,0,.0762-.6738v-4.875a8.4593,8.4593,0,0,0-.041-1.1162.4893.4893,0,0,0-.1318-.2842.3479.3479,0,0,0-.2315-.0761,1.0934,1.0934,0,0,0-.3867.0937l-.1-.2051,1.6-.6562Z"/><path class="ebfd0d5c-ee08-4e78-b462-fa072bffc153" d="M371.958,239.244v4.3125a1.9727,1.9727,0,0,0,.0733.6709.5135.5135,0,0,0,.2167.249,1.1608,1.1608,0,0,0,.5245.0821v.2109H370.165v-.2109a1.2135,1.2135,0,0,0,.5274-.0762.5232.5232,0,0,0,.2139-.252,1.8939,1.8939,0,0,0,.0791-.6738v-2.0683a7.3058,7.3058,0,0,0-.0528-1.1309.459.459,0,0,0-.1289-.2607.3636.3636,0,0,0-.24-.0733,1.1735,1.1735,0,0,0-.3985.0879l-.082-.2109,1.6172-.6563Zm-.4863-2.8066a.59.59,0,0,1,.5918.5918.58.58,0,0,1-.1729.4219.566.566,0,0,1-.4189.1757.5947.5947,0,1,1,0-1.1894Z"/><path class="ebfd0d5c-ee08-4e78-b462-fa072bffc153" d="M376.9092,239.244v1.8281h-.1934a2.374,2.374,0,0,0-.5713-1.1718,1.2844,1.2844,0,0,0-.8877-.3106.98.98,0,0,0-.6621.2168.6292.6292,0,0,0-.2519.4805.8727.8727,0,0,0,.1875.5625,2.0861,2.0861,0,0,0,.7383.51l.8554.416a1.7387,1.7387,0,0,1,1.1895,1.5293,1.4448,1.4448,0,0,1-.5537,1.1806,1.92,1.92,0,0,1-1.2393.4483,4.2623,4.2623,0,0,1-1.125-.1758,1.1421,1.1421,0,0,0-.3164-.0586.2331.2331,0,0,0-.2109.1523h-.1934v-1.916h.1934a2.1806,2.1806,0,0,0,.6269,1.2364,1.5131,1.5131,0,0,0,1.0371.416.9287.9287,0,0,0,.6592-.2373.7531.7531,0,0,0,.2549-.5713.9087.9087,0,0,0-.2842-.68,4.9639,4.9639,0,0,0-1.1338-.6973,3.3584,3.3584,0,0,1-1.1133-.7617,1.32,1.32,0,0,1-.2636-.8437,1.4882,1.4882,0,0,1,.4541-1.1075,1.607,1.607,0,0,1,1.1748-.4453,2.76,2.76,0,0,1,.7676.1348,1.8126,1.8126,0,0,0,.3984.0879.2337.2337,0,0,0,.1465-.041.5643.5643,0,0,0,.123-.1817Z"/><path class="ebfd0d5c-ee08-4e78-b462-fa072bffc153" d="M379.6689,237.6386v1.7636h1.254v.41h-1.254v3.48a1.169,1.169,0,0,0,.1495.7032.4744.4744,0,0,0,.3837.1816.6706.6706,0,0,0,.375-.12.7723.7723,0,0,0,.2813-.3545h.2285a1.8387,1.8387,0,0,1-.58.8643,1.2518,1.2518,0,0,1-.7734.29,1.04,1.04,0,0,1-.5273-.1494.9031.9031,0,0,1-.3809-.4277,2.2463,2.2463,0,0,1-.1231-.8584v-3.6094h-.85v-.1934a2.2228,2.2228,0,0,0,.6592-.4365,3.471,3.471,0,0,0,.6006-.73,6.5735,6.5735,0,0,0,.375-.8144Z"/><path class="ebfd0d5c-ee08-4e78-b462-fa072bffc153" d="M387.0693,239.244a2.3786,2.3786,0,0,1,1.9571.9258,2.843,2.843,0,0,1,.6269,1.8164,3.42,3.42,0,0,1-.3457,1.459,2.455,2.455,0,0,1-2.3027,1.4883,2.2745,2.2745,0,0,1-1.9278-.9668,2.9957,2.9957,0,0,1-.6035-1.8281,3.2441,3.2441,0,0,1,.3662-1.4678,2.5011,2.5011,0,0,1,.9639-1.0781A2.472,2.472,0,0,1,387.0693,239.244Zm-.1816.3809a1.2223,1.2223,0,0,0-.624.1845,1.2943,1.2943,0,0,0-.5069.6475,3.116,3.116,0,0,0-.1933,1.19,4.1444,4.1444,0,0,0,.4658,2.0214,1.3865,1.3865,0,0,0,1.2275.85,1.144,1.144,0,0,0,.9375-.4688,2.6642,2.6642,0,0,0,.3692-1.6113,3.6729,3.6729,0,0,0-.6153-2.25A1.2677,1.2677,0,0,0,386.8877,239.6249Z"/><path class="ebfd0d5c-ee08-4e78-b462-fa072bffc153" d="M392.542,239.8241v3.5273a1.7234,1.7234,0,0,0,.1641.9493.7193.7193,0,0,0,.58.2578h.4864v.2109h-3.2051v-.2109h.24a.81.81,0,0,0,.4278-.1172.61.61,0,0,0,.2666-.3164,2.649,2.649,0,0,0,.0732-.7735v-3.5273h-1.043v-.4219h1.043v-.3515a3.2213,3.2213,0,0,1,.2578-1.3594,2.1106,2.1106,0,0,1,.7881-.8994,2.1492,2.1492,0,0,1,1.1924-.3428,1.8085,1.8085,0,0,1,1.1308.3984.7491.7491,0,0,1,.34.5918.4686.4686,0,0,1-.1524.3311.4553.4553,0,0,1-.3281.1553.5277.5277,0,0,1-.2842-.0967,1.5477,1.5477,0,0,1-.3662-.416,1.4714,1.4714,0,0,0-.3984-.4307.7587.7587,0,0,0-.4043-.1113.73.73,0,0,0-.457.1435.8044.8044,0,0,0-.27.4453,8.3615,8.3615,0,0,0-.082,1.5557v.3867h1.3828v.4219Z"/><path class="ebfd0d5c-ee08-4e78-b462-fa072bffc153" d="M399.2861,236.4374v7.1191a1.9448,1.9448,0,0,0,.0733.668.5185.5185,0,0,0,.2256.249,1.2952,1.2952,0,0,0,.5683.085v.2109h-2.6308v-.2109a1.1367,1.1367,0,0,0,.5039-.0762.5083.5083,0,0,0,.2109-.252,1.96,1.96,0,0,0,.0762-.6738v-4.875a8.4593,8.4593,0,0,0-.041-1.1162.4887.4887,0,0,0-.1319-.2842.3476.3476,0,0,0-.2314-.0761,1.0934,1.0934,0,0,0-.3867.0937l-.1-.2051,1.6-.6562Z"/><path class="ebfd0d5c-ee08-4e78-b462-fa072bffc153" d="M401.6768,241.4237a2.7568,2.7568,0,0,0,.58,1.875,1.7692,1.7692,0,0,0,1.377.68,1.4935,1.4935,0,0,0,.917-.29,2.1419,2.1419,0,0,0,.6533-.9932l.1816.1172a2.7941,2.7941,0,0,1-.7148,1.4619,1.9091,1.9091,0,0,1-1.4824.6592,2.1647,2.1647,0,0,1-1.6553-.753,2.8839,2.8839,0,0,1-.6885-2.0244,3.0608,3.0608,0,0,1,.7061-2.1474,2.3025,2.3025,0,0,1,1.7724-.77,1.9815,1.9815,0,0,1,1.4825.5947,2.18,2.18,0,0,1,.58,1.5908Zm0-.34h2.4843a2.2959,2.2959,0,0,0-.123-.7266,1.1644,1.1644,0,0,0-.4365-.5156,1.1007,1.1007,0,0,0-.6065-.1875,1.209,1.209,0,0,0-.87.3779A1.6394,1.6394,0,0,0,401.6768,241.0839Z"/><path class="ebfd0d5c-ee08-4e78-b462-fa072bffc153" d="M407.665,240.3807a2.5336,2.5336,0,0,1,1.7989-1.1367,1.2923,1.2923,0,0,1,.7558.22,1.4715,1.4715,0,0,1,.5039.7237,3.3455,3.3455,0,0,1,.1289,1.0781v2.291a1.93,1.93,0,0,0,.0821.6914.48.48,0,0,0,.208.2285,1.1783,1.1783,0,0,0,.53.0821v.2109h-2.6543v-.2109h.1113a.893.893,0,0,0,.5244-.1143.6.6,0,0,0,.208-.3369,3.4292,3.4292,0,0,0,.0234-.5508v-2.1972a2.2308,2.2308,0,0,0-.19-1.0635.68.68,0,0,0-.6416-.3311,1.9321,1.9321,0,0,0-1.3887.7617v2.83a2.0209,2.0209,0,0,0,.0645.6738.5428.5428,0,0,0,.2256.2491,1.3972,1.3972,0,0,0,.583.0791v.2109h-2.6543v-.2109h.1172a.6307.6307,0,0,0,.5537-.208,1.5181,1.5181,0,0,0,.1435-.794v-1.9922a8.661,8.661,0,0,0-.0439-1.1777.5043.5043,0,0,0-.1348-.2871.3659.3659,0,0,0-.2431-.0762,1.1259,1.1259,0,0,0-.3926.0879l-.0879-.2109,1.6172-.6563h.2519Z"/><path class="ebfd0d5c-ee08-4e78-b462-fa072bffc153" d="M413.5361,242.8124a1.7631,1.7631,0,0,1-1.0195-1.6231,1.8318,1.8318,0,0,1,.6006-1.3711,2.1349,2.1349,0,0,1,1.5381-.5742,2.3417,2.3417,0,0,1,1.33.375h1.1367a1.4889,1.4889,0,0,1,.2929.0147.0991.0991,0,0,1,.0586.05.3582.3582,0,0,1,.0352.1875.5239.5239,0,0,1-.0293.2109.12.12,0,0,1-.0615.0469,1.2974,1.2974,0,0,1-.2959.0176h-.6973a1.8081,1.8081,0,0,1-.2461,2.3613,2.1746,2.1746,0,0,1-1.541.5332,2.9976,2.9976,0,0,1-.8145-.1172,1.5436,1.5436,0,0,0-.3486.39.6233.6233,0,0,0-.0908.2841.2715.2715,0,0,0,.0967.1934.7088.7088,0,0,0,.3779.1348q.1641.0234.82.041,1.2071.0292,1.5645.082a1.4711,1.4711,0,0,1,.87.4043,1.104,1.104,0,0,1,.3252.8086,1.6947,1.6947,0,0,1-.6211,1.2422,3.3494,3.3494,0,0,1-2.3848.8555,3.4152,3.4152,0,0,1-1.91-.51q-.44-.2929-.4395-.6094a.6694.6694,0,0,1,.0645-.2812,3.2773,3.2773,0,0,1,.41-.6036q.0411-.0526.5977-.6328a1.8489,1.8489,0,0,1-.4307-.3252.48.48,0,0,1-.126-.3252.9646.9646,0,0,1,.167-.48A3.8486,3.8486,0,0,1,413.5361,242.8124Zm-.0586,1.957a2.8872,2.8872,0,0,0-.416.5567,1.0039,1.0039,0,0,0-.1406.4746.5933.5933,0,0,0,.34.4921,3.2375,3.2375,0,0,0,1.6934.3633,2.62,2.62,0,0,0,1.5557-.372,1.0224,1.0224,0,0,0,.5009-.794.4441.4441,0,0,0-.2988-.4336,3.9152,3.9152,0,0,0-1.207-.1523A19.3073,19.3073,0,0,1,413.4775,244.7694Zm1.0782-5.2441a.9151.9151,0,0,0-.7266.3457,1.6137,1.6137,0,0,0-.293,1.06,2.2821,2.2821,0,0,0,.3985,1.4356.9439.9439,0,0,0,.7734.3867.9228.9228,0,0,0,.7324-.334,1.5871,1.5871,0,0,0,.2871-1.0488,2.3462,2.3462,0,0,0-.4043-1.459A.9281.9281,0,0,0,414.5557,239.5253Z"/><path class="ebfd0d5c-ee08-4e78-b462-fa072bffc153" d="M419.6592,237.6386v1.7636h1.2539v.41h-1.2539v3.48a1.1692,1.1692,0,0,0,.1494.7032.4745.4745,0,0,0,.3838.1816.6711.6711,0,0,0,.375-.12.7721.7721,0,0,0,.2812-.3545h.2285a1.8386,1.8386,0,0,1-.58.8643,1.2519,1.2519,0,0,1-.7735.29,1.04,1.04,0,0,1-.5273-.1494.9037.9037,0,0,1-.3809-.4277,2.2467,2.2467,0,0,1-.123-.8584v-3.6094h-.85v-.1934a2.2253,2.2253,0,0,0,.6592-.4365,3.4675,3.4675,0,0,0,.6005-.73,6.5433,6.5433,0,0,0,.375-.8144Z"/><path class="ebfd0d5c-ee08-4e78-b462-fa072bffc153" d="M423.0107,236.4374v3.9258a4.512,4.512,0,0,1,1.0313-.917,1.6117,1.6117,0,0,1,.7617-.2022,1.2514,1.2514,0,0,1,.7852.252,1.488,1.488,0,0,1,.4863.791,5.6033,5.6033,0,0,1,.1113,1.3711v1.8984a1.9834,1.9834,0,0,0,.0821.6973.4569.4569,0,0,0,.1992.2226,1.1214,1.1214,0,0,0,.5156.0821v.2109h-2.6367v-.2109h.123a.8781.8781,0,0,0,.5215-.1143.6064.6064,0,0,0,.2051-.3369,4.6509,4.6509,0,0,0,.0176-.5508v-1.8984a4.5567,4.5567,0,0,0-.0909-1.1543.7779.7779,0,0,0-.29-.4131.8242.8242,0,0,0-.4805-.1377,1.3561,1.3561,0,0,0-.5976.1523,2.8532,2.8532,0,0,0-.7442.6153v2.8359a2.2085,2.2085,0,0,0,.0616.6856.5008.5008,0,0,0,.2285.2256,1.306,1.306,0,0,0,.5771.0908v.2109h-2.66v-.2109a1.1864,1.1864,0,0,0,.5625-.1114.418.418,0,0,0,.1875-.2226,2.0256,2.0256,0,0,0,.07-.668v-4.8574a8.0976,8.0976,0,0,0-.044-1.1309.505.505,0,0,0-.1347-.2871.3662.3662,0,0,0-.2432-.0761,1.43,1.43,0,0,0-.3984.0937l-.0821-.2051,1.6055-.6562Z"/><path class="ebfd0d5c-ee08-4e78-b462-fa072bffc153" d="M431.4658,237.6034l1.9336-.9434h.1934v6.709a3.5661,3.5661,0,0,0,.0556.8321.4352.4352,0,0,0,.2315.2519,1.97,1.97,0,0,0,.7148.1v.2168h-2.9883v-.2168a2.0145,2.0145,0,0,0,.7266-.0967.4793.4793,0,0,0,.2285-.2285,3.1027,3.1027,0,0,0,.0645-.8584V239.08a6.3134,6.3134,0,0,0-.0586-1.1133.4705.4705,0,0,0-.1494-.2754.401.401,0,0,0-.2608-.0879,1.5594,1.5594,0,0,0-.6035.1816Z"/><path class="ebfd0d5c-ee08-4e78-b462-fa072bffc153" d="M441.2686,236.8241l-.4571.9961h-2.3906l-.5215,1.0664a4.1844,4.1844,0,0,1,2.461,1.1543,2.5941,2.5941,0,0,1,.7792,1.875,2.6554,2.6554,0,0,1-.2548,1.16,3.1331,3.1331,0,0,1-.6416.9082,3.2683,3.2683,0,0,1-.8614.6035,3.172,3.172,0,0,1-1.3828.3222,1.7548,1.7548,0,0,1-1.04-.2431.6791.6791,0,0,1-.3252-.5362.3867.3867,0,0,1,.1348-.29.478.478,0,0,1,.34-.126.698.698,0,0,1,.2666.0469,2.464,2.464,0,0,1,.39.24,1.55,1.55,0,0,0,.8907.3047,1.6519,1.6519,0,0,0,1.2041-.5185,1.7184,1.7184,0,0,0,.5185-1.2627,2.2136,2.2136,0,0,0-.4629-1.3448,2.97,2.97,0,0,0-1.2773-.9638,5.1811,5.1811,0,0,0-1.74-.3047l1.5234-3.0879Z"/><path class="ebfd0d5c-ee08-4e78-b462-fa072bffc153" d="M442.4932,240.8436a6.0538,6.0538,0,0,1,.41-2.3408,3.2757,3.2757,0,0,1,1.09-1.4619,1.8391,1.8391,0,0,1,1.09-.3809,2.0734,2.0734,0,0,1,1.6406.9317,4.9278,4.9278,0,0,1,.9082,3.1289,6.1682,6.1682,0,0,1-.3984,2.35,3.109,3.109,0,0,1-1.0166,1.4033,2.08,2.08,0,0,1-1.1924.4365,2.1934,2.1934,0,0,1-1.8926-1.3418A5.459,5.459,0,0,1,442.4932,240.8436Zm1.1484.1465a7.4747,7.4747,0,0,0,.4043,2.6777q.334.8732.9961.8731a1.04,1.04,0,0,0,.6562-.2842,1.8085,1.8085,0,0,0,.5157-.9521,11.58,11.58,0,0,0,.2695-2.8418,7.78,7.78,0,0,0-.2813-2.2676,2.0117,2.0117,0,0,0-.5449-.9551.8959.8959,0,0,0-.58-.1933.9211.9211,0,0,0-.7089.3574,2.9853,2.9853,0,0,0-.5743,1.5293A14.2242,14.2242,0,0,0,443.6416,240.99Z"/></g></svg>