<svg id="b420953c-68a4-4e17-8e56-1e0d2138c254" data-name="bad8b1f5-1543-4637-bb0d-15c542fa5b12" xmlns="http://www.w3.org/2000/svg" viewBox="0 0 464.2334 238.2983"><defs><style>.a172806e-4e8b-4d49-9f34-5f79b17ef8c8{fill:#fff;stroke:#000;}.a172806e-4e8b-4d49-9f34-5f79b17ef8c8,.aa4dd6ba-f4b7-4d14-ad39-a605e41ec078,.f639ebec-90d2-4d25-9f21-60ed7be604c4{stroke-miterlimit:10;}.aa4dd6ba-f4b7-4d14-ad39-a605e41ec078,.f639ebec-90d2-4d25-9f21-60ed7be604c4{fill:none;stroke:#1d1d1b;stroke-linecap:round;}.aa4dd6ba-f4b7-4d14-ad39-a605e41ec078{stroke-width:2px;}.a83282bb-de8f-4f99-979d-cbd05e53d10b{fill:#1d1d1b;}.a698d951-1d47-4238-80db-d53f6bf84c3f{isolation:isolate;}.bedaf5ef-be02-4a45-8517-462507e53f4f{fill:#e62a35;}.a7a042e5-193f-49d8-b473-406a368862e7{fill:#ec681c;}.fb276054-505c-4283-b669-3462c1620535{fill:#93b722;}.a5b1189f-4259-4ebe-be11-ffd9cb18fc4f{fill:#47ac34;}</style></defs><rect class="a172806e-4e8b-4d49-9f34-5f79b17ef8c8" x="0.5" y="0.5" width="463.2334" height="237.2983"/><line class="aa4dd6ba-f4b7-4d14-ad39-a605e41ec078" x1="103.4314" y1="62.9624" x2="367.1422" y2="62.9624"/><line class="aa4dd6ba-f4b7-4d14-ad39-a605e41ec078" x1="103.4314" y1="62.9624" x2="103.4314" y2="82.2776"/><path class="a83282bb-de8f-4f99-979d-cbd05e53d10b" d="M102.9314,93.8479c-2.1074-5.68-5.7031-12.7265-9.5117-17.0947l9.5117,3.44,9.51-3.44C108.6326,81.1214,105.0366,88.1683,102.9314,93.8479Z" transform="translate(0.5 0.5)"/><line class="aa4dd6ba-f4b7-4d14-ad39-a605e41ec078" x1="235.2866" y1="31.5769" x2="235.2866" y2="62.9624"/><line class="aa4dd6ba-f4b7-4d14-ad39-a605e41ec078" x1="367.1422" y1="62.9624" x2="367.1422" y2="82.2776"/><path class="a83282bb-de8f-4f99-979d-cbd05e53d10b" d="M366.6422,93.8479c-2.1074-5.68-5.703-12.7265-9.5117-17.0947l9.5117,3.44,9.51-3.44C372.3435,81.1214,368.7477,88.1683,366.6422,93.8479Z" transform="translate(0.5 0.5)"/><line class="f639ebec-90d2-4d25-9f21-60ed7be604c4" x1="33.9189" y1="145.4497" x2="172.9439" y2="145.4497"/><line class="f639ebec-90d2-4d25-9f21-60ed7be604c4" x1="33.9189" y1="145.4497" x2="33.9189" y2="159.4827"/><polygon class="a83282bb-de8f-4f99-979d-cbd05e53d10b" points="33.919 166.543 29.853 156.594 33.919 158.955 37.983 156.594 33.919 166.543"/><line class="f639ebec-90d2-4d25-9f21-60ed7be604c4" x1="103.4313" y1="124.3561" x2="103.4313" y2="145.4497"/><line class="f639ebec-90d2-4d25-9f21-60ed7be604c4" x1="172.944" y1="145.4497" x2="172.944" y2="159.4827"/><polygon class="a83282bb-de8f-4f99-979d-cbd05e53d10b" points="172.944 166.543 168.879 156.594 172.944 158.955 177.008 156.594 172.944 166.543"/><g class="a698d951-1d47-4238-80db-d53f6bf84c3f"><path class="a83282bb-de8f-4f99-979d-cbd05e53d10b" d="M152.2041,2.5576h4.0869q6.5655,0,6.5654,6.3721,0,6.5127-6.5654,6.5127h-4.0869Zm1.7051,11.3555h2.3467q2.8037,0,3.8232-1.3047A5.8545,5.8545,0,0,0,161.0986,8.93a5.5857,5.5857,0,0,0-1.0151-3.5772q-1.0152-1.2656-3.8276-1.2656h-2.3467Z" transform="translate(0.5 0.5)"/><path class="a83282bb-de8f-4f99-979d-cbd05e53d10b" d="M165.5107,17.6924q1.2306,0,2.0127-2.25L163.999,6.1172h1.793l2.47,7.2949,2.47-7.2949h1.793L169,15.4424q-.51,1.3359-.8657,2.0605a3.809,3.809,0,0,1-.9317,1.2227,2.089,2.089,0,0,1-1.4106.4961,4.0865,4.0865,0,0,1-1.0723-.1231V17.5693A2.5916,2.5916,0,0,0,165.5107,17.6924Z" transform="translate(0.5 0.5)"/><path class="a83282bb-de8f-4f99-979d-cbd05e53d10b" d="M175.6445,7.3037a3.6656,3.6656,0,0,1,2.7862-1.3974q3.1552,0,3.1552,3.4365v6.1h-1.6611V9.4131a2.6107,2.6107,0,0,0-.4087-1.6436,1.6335,1.6335,0,0,0-1.34-.5009,3.4673,3.4673,0,0,0-2.5313,1.4941v6.68h-1.6611V6.1172h1.6611Z" transform="translate(0.5 0.5)"/><path class="a83282bb-de8f-4f99-979d-cbd05e53d10b" d="M189.9,14.4844a4.5964,4.5964,0,0,1-3.2608,1.1777,3.4407,3.4407,0,0,1-2.2851-.751,2.4147,2.4147,0,0,1-.8965-1.9384q0-3.27,5.6338-3.27H189.9a7.1017,7.1017,0,0,0-.1055-1.4541,1.2078,1.2078,0,0,0-.5888-.7519,3.0256,3.0256,0,0,0-1.5381-.2989q-2.2149,0-2.2852,1.5821h-1.6523q.1845-2.874,4.0254-2.874a4.7627,4.7627,0,0,1,2.7949.7119,3.2389,3.2389,0,0,1,1.0019,2.7949v6.0293H189.9Zm0-1.4942V10.9248h-1.1338q-3.6035,0-3.6035,1.96A1.2721,1.2721,0,0,0,185.69,13.98a2.3855,2.3855,0,0,0,1.4239.3818,3.5982,3.5982,0,0,0,1.582-.3691A3.0367,3.0367,0,0,0,189.9,12.99Z" transform="translate(0.5 0.5)"/><path class="a83282bb-de8f-4f99-979d-cbd05e53d10b" d="M206.6084,15.4424h-1.6611V9.4131a3.0585,3.0585,0,0,0-.334-1.6524,1.25,1.25,0,0,0-1.1162-.4921,3.15,3.15,0,0,0-2.3643,1.4941v6.68h-1.6523V9.4131a3.0585,3.0585,0,0,0-.334-1.6524,1.26,1.26,0,0,0-1.125-.4921,3.1275,3.1275,0,0,0-2.3555,1.4941v6.68h-1.6611V6.1172h1.6611V7.3037a3.3949,3.3949,0,0,1,2.61-1.3974,2.4457,2.4457,0,0,1,2.61,1.6875A5.2264,5.2264,0,0,1,202.4688,6.2a3.09,3.09,0,0,1,1.2744-.2939q2.8652,0,2.8652,3.4365Z" transform="translate(0.5 0.5)"/><path class="a83282bb-de8f-4f99-979d-cbd05e53d10b" d="M210.66,4.3506H208.999V2.5576H210.66Zm0,11.0918H208.999V6.1172H210.66Z" transform="translate(0.5 0.5)"/><path class="a83282bb-de8f-4f99-979d-cbd05e53d10b" d="M216.8828,15.6621a4.1371,4.1371,0,0,1-3.1772-1.2783,5.084,5.084,0,0,1-1.191-3.6,5.078,5.078,0,0,1,1.191-3.6035,4.5992,4.5992,0,0,1,5.73-.501,3.155,3.155,0,0,1,1.2085,2.2324H218.94a1.5774,1.5774,0,0,0-.6285-1.2744,2.3319,2.3319,0,0,0-1.4282-.4395,2.373,2.373,0,0,0-1.9248.9,4.1665,4.1665,0,0,0-.7383,2.6856,4.1437,4.1437,0,0,0,.7383,2.6758,2.3684,2.3684,0,0,0,1.9248.9013,2.3325,2.3325,0,0,0,1.4282-.4394,1.5687,1.5687,0,0,0,.6285-1.2656h1.705a3.1552,3.1552,0,0,1-1.2085,2.2324A4.1151,4.1151,0,0,1,216.8828,15.6621Z" transform="translate(0.5 0.5)"/><path class="a83282bb-de8f-4f99-979d-cbd05e53d10b" d="M227.1045,2.5576h4.8076a10.1406,10.1406,0,0,1,2.65.2949,2.8563,2.8563,0,0,1,1.6914,1.2735,4.0009,4.0009,0,0,1,.624,2.1933,3.6,3.6,0,0,1-1.2392,2.962,5.5522,5.5522,0,0,1-3.586,1.0107H228.81v5.15h-1.7051ZM228.81,8.7627H232.07a3.537,3.537,0,0,0,2.3428-.6152,2.24,2.24,0,0,0,.6982-1.7754,2.4677,2.4677,0,0,0-.3867-1.3711,1.6709,1.6709,0,0,0-.98-.7559,7.0372,7.0372,0,0,0-1.71-.1582H228.81Z" transform="translate(0.5 0.5)"/><path class="a83282bb-de8f-4f99-979d-cbd05e53d10b" d="M243.7334,7.6289a3.7125,3.7125,0,0,0-1.0107-.1055,2.6045,2.6045,0,0,0-2.1709,1.3272v6.5918h-1.6612V6.1172h1.6612V7.418a2.9609,2.9609,0,0,1,2.4257-1.5117,4.4231,4.4231,0,0,1,.7559.07Z" transform="translate(0.5 0.5)"/><path class="a83282bb-de8f-4f99-979d-cbd05e53d10b" d="M248.6641,5.9063a4.1536,4.1536,0,0,1,3.1865,1.2744,5.0782,5.0782,0,0,1,1.19,3.6035,5.0843,5.0843,0,0,1-1.19,3.6,4.5987,4.5987,0,0,1-6.3633,0,5.0846,5.0846,0,0,1-1.1914-3.6,5.0786,5.0786,0,0,1,1.1914-3.6035A4.1405,4.1405,0,0,1,248.6641,5.9063Zm0,8.455a2.3684,2.3684,0,0,0,1.9248-.9013,4.1437,4.1437,0,0,0,.7382-2.6758,4.1665,4.1665,0,0,0-.7382-2.6856,2.5075,2.5075,0,0,0-3.85,0,4.1665,4.1665,0,0,0-.7383,2.6856,4.1437,4.1437,0,0,0,.7383,2.6758A2.3681,2.3681,0,0,0,248.6641,14.3613Z" transform="translate(0.5 0.5)"/><path class="a83282bb-de8f-4f99-979d-cbd05e53d10b" d="M262.4541,14.7217q0,4.5-4.06,4.5a4.5085,4.5085,0,0,1-2.7725-.7647A2.4428,2.4428,0,0,1,254.6055,16.4h1.7138q0,1.5292,2.0567,1.5293a2.4152,2.4152,0,0,0,1.7929-.6377,3.6142,3.6142,0,0,0,.6329-2.5v-.4658a3.5182,3.5182,0,0,1-5.4932.0351,5.6038,5.6038,0,0,1-1.002-3.5068,5.4432,5.4432,0,0,1,1.1211-3.6172,3.5306,3.5306,0,0,1,2.8164-1.331,3.7079,3.7079,0,0,1,2.5577.9316V6.1172h1.6523Zm-1.6523-1.96V8.332A3.2922,3.2922,0,0,0,258.35,7.1982a1.9751,1.9751,0,0,0-1.7.918,4.8187,4.8187,0,0,0-.6377,2.7383,4.6836,4.6836,0,0,0,.6026,2.6152,1.9013,1.9013,0,0,0,1.665.8916A3.1546,3.1546,0,0,0,260.8018,12.7617Z" transform="translate(0.5 0.5)"/><path class="a83282bb-de8f-4f99-979d-cbd05e53d10b" d="M269.749,7.6289a3.7125,3.7125,0,0,0-1.0107-.1055,2.6045,2.6045,0,0,0-2.1709,1.3272v6.5918h-1.6611V6.1172h1.6611V7.418a2.9609,2.9609,0,0,1,2.4258-1.5117,4.4229,4.4229,0,0,1,.7558.07Z" transform="translate(0.5 0.5)"/><path class="a83282bb-de8f-4f99-979d-cbd05e53d10b" d="M276.8066,14.4844a4.596,4.596,0,0,1-3.2607,1.1777,3.441,3.441,0,0,1-2.2852-.751,2.4149,2.4149,0,0,1-.8964-1.9384q0-3.27,5.6337-3.27h.8086a7.1034,7.1034,0,0,0-.1054-1.4541,1.2077,1.2077,0,0,0-.5889-.7519,3.0256,3.0256,0,0,0-1.5381-.2989q-2.2148,0-2.2851,1.5821h-1.6524q.1846-2.874,4.0254-2.874a4.7625,4.7625,0,0,1,2.7949.7119,3.2389,3.2389,0,0,1,1.002,2.7949v6.0293h-1.6524Zm0-1.4942V10.9248h-1.1337q-3.6036,0-3.6036,1.96a1.2719,1.2719,0,0,0,.5274,1.0947,2.3851,2.3851,0,0,0,1.4238.3818,3.5979,3.5979,0,0,0,1.582-.3691A3.036,3.036,0,0,0,276.8066,12.99Z" transform="translate(0.5 0.5)"/><path class="a83282bb-de8f-4f99-979d-cbd05e53d10b" d="M293.5146,15.4424h-1.6611V9.4131a3.0575,3.0575,0,0,0-.334-1.6524,1.25,1.25,0,0,0-1.1162-.4921,3.15,3.15,0,0,0-2.3642,1.4941v6.68h-1.6524V9.4131a3.0575,3.0575,0,0,0-.334-1.6524,1.26,1.26,0,0,0-1.125-.4921,3.1272,3.1272,0,0,0-2.3554,1.4941v6.68h-1.6612V6.1172h1.6612V7.3037a3.3945,3.3945,0,0,1,2.61-1.3974,2.4457,2.4457,0,0,1,2.61,1.6875A5.2263,5.2263,0,0,1,289.375,6.2a3.0909,3.0909,0,0,1,1.2744-.2939q2.8653,0,2.8652,3.4365Z" transform="translate(0.5 0.5)"/><path class="a83282bb-de8f-4f99-979d-cbd05e53d10b" d="M297.5664,4.3506h-1.6611V2.5576h1.6611Zm0,11.0918h-1.6611V6.1172h1.6611Z" transform="translate(0.5 0.5)"/><path class="a83282bb-de8f-4f99-979d-cbd05e53d10b" d="M301.6709,7.3037a3.6656,3.6656,0,0,1,2.7861-1.3974q3.1553,0,3.1553,3.4365v6.1h-1.6611V9.4131A2.6116,2.6116,0,0,0,305.543,7.77a1.635,1.635,0,0,0-1.3409-.5009,3.4671,3.4671,0,0,0-2.5312,1.4941v6.68H300.01V6.1172h1.6611Z" transform="translate(0.5 0.5)"/><path class="a83282bb-de8f-4f99-979d-cbd05e53d10b" d="M317.5791,14.7217q0,4.5-4.06,4.5a4.5085,4.5085,0,0,1-2.7725-.7647A2.4428,2.4428,0,0,1,309.7305,16.4h1.7138q0,1.5292,2.0567,1.5293a2.4152,2.4152,0,0,0,1.7929-.6377,3.6142,3.6142,0,0,0,.6329-2.5v-.4658a3.5182,3.5182,0,0,1-5.4932.0351,5.6038,5.6038,0,0,1-1.002-3.5068,5.4432,5.4432,0,0,1,1.1211-3.6172,3.5306,3.5306,0,0,1,2.8164-1.331,3.7079,3.7079,0,0,1,2.5577.9316V6.1172h1.6523Zm-1.6523-1.96V8.332a3.2922,3.2922,0,0,0-2.4522-1.1338,1.9751,1.9751,0,0,0-1.7.918,4.8187,4.8187,0,0,0-.6377,2.7383,4.6836,4.6836,0,0,0,.6026,2.6152,1.9013,1.9013,0,0,0,1.665.8916A3.1546,3.1546,0,0,0,315.9268,12.7617Z" transform="translate(0.5 0.5)"/></g><g class="a698d951-1d47-4238-80db-d53f6bf84c3f"><path class="a83282bb-de8f-4f99-979d-cbd05e53d10b" d="M64.5063,110.0483h-1.36l-5.25-7.9091v7.9091H56.6382V100.0269h1.3535l5.25,7.9091v-7.9091h1.2646Z" transform="translate(0.5 0.5)"/><path class="a83282bb-de8f-4f99-979d-cbd05e53d10b" d="M69.5171,102.6313a3.2282,3.2282,0,0,1,2.478.9913,4.6973,4.6973,0,0,1,0,5.6015,3.5744,3.5744,0,0,1-4.9492,0,4.6973,4.6973,0,0,1,0-5.6015A3.22,3.22,0,0,1,69.5171,102.6313Zm0,6.5762a1.8445,1.8445,0,0,0,1.4971-.7,4.0724,4.0724,0,0,0,0-4.17,1.9488,1.9488,0,0,0-2.9942,0,4.0724,4.0724,0,0,0,0,4.17A1.8444,1.8444,0,0,0,69.5171,109.2075Z" transform="translate(0.5 0.5)"/><path class="a83282bb-de8f-4f99-979d-cbd05e53d10b" d="M77.18,110.062a4.8636,4.8636,0,0,1-.9229.082,1.9162,1.9162,0,0,1-1.1621-.2832,1.1883,1.1883,0,0,1-.458-.7285,6.4729,6.4729,0,0,1-.0889-1.21v-4.1153h-.8955v-1.0117h.8955v-1.8047h1.2852v1.8047h1.1758v1.0117H75.8335v4.1836a1.5352,1.5352,0,0,0,.188.9463.67.67,0,0,0,.5161.2022,3.7034,3.7034,0,0,0,.6426-.0547Z" transform="translate(0.5 0.5)"/><path class="a83282bb-de8f-4f99-979d-cbd05e53d10b" d="M91.563,110.0483H90.3052v-8.5244l-2.8574,8.5244H86.2583l-2.8574-8.5244v8.5244H82.1431V100.0269h1.9892l2.7139,8.3535,2.7275-8.3535H91.563Z" transform="translate(0.5 0.5)"/><path class="a83282bb-de8f-4f99-979d-cbd05e53d10b" d="M96.7173,110.2192a3.4178,3.4178,0,0,1-2.57-1.0009,3.8468,3.8468,0,0,1-.9707-2.793,3.9254,3.9254,0,0,1,.94-2.7852,3.5448,3.5448,0,0,1,4.9356-.0175,3.9493,3.9493,0,0,1,.9262,2.8027v.3076H94.5161a2.8022,2.8022,0,0,0,.6939,1.8662,2.0548,2.0548,0,0,0,1.5073.6084,2.2327,2.2327,0,0,0,1.22-.3447,1.1625,1.1625,0,0,0,.5708-.9815h1.333a2.4041,2.4041,0,0,1-1.0151,1.73A3.5742,3.5742,0,0,1,96.7173,110.2192Zm1.9-4.498a2.63,2.63,0,0,0-.7041-1.5654,1.9751,1.9751,0,0,0-2.666-.0039,2.569,2.569,0,0,0-.7041,1.5693Z" transform="translate(0.5 0.5)"/><path class="a83282bb-de8f-4f99-979d-cbd05e53d10b" d="M111.2231,110.0483h-1.2919v-4.6894a2.3764,2.3764,0,0,0-.26-1.2852.973.973,0,0,0-.8682-.3828,2.4508,2.4508,0,0,0-1.8388,1.1621v5.1953h-1.2852v-4.6894a2.3755,2.3755,0,0,0-.26-1.2852.9806.9806,0,0,0-.875-.3828,2.4335,2.4335,0,0,0-1.832,1.1621v5.1953H101.42v-7.2529h1.292v.9229a2.6409,2.6409,0,0,1,2.03-1.087,1.9019,1.9019,0,0,1,2.03,1.3125,4.0473,4.0473,0,0,1,1.23-1.083,2.3837,2.3837,0,0,1,.9912-.23q2.2289,0,2.2285,2.6729Z" transform="translate(0.5 0.5)"/><path class="a83282bb-de8f-4f99-979d-cbd05e53d10b" d="M116.022,102.6313a3.2283,3.2283,0,0,1,2.478.9913,4.6973,4.6973,0,0,1,0,5.6015,3.5744,3.5744,0,0,1-4.9492,0,4.6973,4.6973,0,0,1,0-5.6015A3.22,3.22,0,0,1,116.022,102.6313Zm0,6.5762a1.8442,1.8442,0,0,0,1.497-.7,4.0718,4.0718,0,0,0,0-4.17,1.9487,1.9487,0,0,0-2.9941,0,4.0724,4.0724,0,0,0,0,4.17A1.8442,1.8442,0,0,0,116.022,109.2075Z" transform="translate(0.5 0.5)"/><path class="a83282bb-de8f-4f99-979d-cbd05e53d10b" d="M124.6353,103.9712a2.8871,2.8871,0,0,0-.7862-.082,2.025,2.025,0,0,0-1.6885,1.0322v5.1269h-1.2919v-7.2529h1.2919v1.0117a2.3027,2.3027,0,0,1,1.8868-1.1758,3.48,3.48,0,0,1,.5879.0547Z" transform="translate(0.5 0.5)"/><path class="a83282bb-de8f-4f99-979d-cbd05e53d10b" d="M126.8228,101.4214h-1.292v-1.3945h1.292Zm0,8.6269h-1.292v-7.2529h1.292Z" transform="translate(0.5 0.5)"/><path class="a83282bb-de8f-4f99-979d-cbd05e53d10b" d="M134.479,110.0483h-6.4258v-1.0937l4.5186-5.0654H128.32v-1.0938h5.9336v1.0938l-4.5185,5.0654h4.7441Z" transform="translate(0.5 0.5)"/><path class="a83282bb-de8f-4f99-979d-cbd05e53d10b" d="M138.8062,110.2192a3.418,3.418,0,0,1-2.57-1.0009,3.8472,3.8472,0,0,1-.9707-2.793,3.9255,3.9255,0,0,1,.94-2.7852,3.5447,3.5447,0,0,1,4.9355-.0175,3.9489,3.9489,0,0,1,.9263,2.8027v.3076H136.605a2.8027,2.8027,0,0,0,.6938,1.8662,2.055,2.055,0,0,0,1.5074.6084,2.2329,2.2329,0,0,0,1.22-.3447,1.1625,1.1625,0,0,0,.5708-.9815h1.333a2.4038,2.4038,0,0,1-1.0152,1.73A3.5739,3.5739,0,0,1,138.8062,110.2192Zm1.9-4.498a2.6287,2.6287,0,0,0-.7041-1.5654,1.9751,1.9751,0,0,0-2.666-.0039,2.57,2.57,0,0,0-.7041,1.5693Z" transform="translate(0.5 0.5)"/><path class="a83282bb-de8f-4f99-979d-cbd05e53d10b" d="M148.103,109.18a2.7363,2.7363,0,0,1-4.2724.0273,4.36,4.36,0,0,1-.7793-2.7275,4.2277,4.2277,0,0,1,.8716-2.8125,2.7425,2.7425,0,0,1,2.1909-1.0362,2.8829,2.8829,0,0,1,1.9892.7247v-3.3291h1.2852v10.0214H148.103Zm0-1.2168v-3.4453a2.5607,2.5607,0,0,0-1.9072-.8819,1.5356,1.5356,0,0,0-1.3228.7149,3.7409,3.7409,0,0,0-.4956,2.1289,3.64,3.64,0,0,0,.4683,2.0332,1.48,1.48,0,0,0,1.2954.6943A2.454,2.454,0,0,0,148.103,107.9634Z" transform="translate(0.5 0.5)"/></g><g class="a698d951-1d47-4238-80db-d53f6bf84c3f"><path class="a83282bb-de8f-4f99-979d-cbd05e53d10b" d="M150.0464,175.8262A3.8765,3.8765,0,0,1,153,177.0449a5.0959,5.0959,0,0,1,0,6.4453,4.1966,4.1966,0,0,1-5.918-.0039,5.07,5.07,0,0,1,0-6.4414A3.9025,3.9025,0,0,1,150.0464,175.8262Zm-.0117,7.91a2.7148,2.7148,0,0,0,2.1123-.914,4.382,4.382,0,0,0,.0029-5.1094,2.6858,2.6858,0,0,0-2.0918-.9141,2.7388,2.7388,0,0,0-2.124.9141,4.3506,4.3506,0,0,0-.0029,5.1055A2.707,2.707,0,0,0,150.0347,183.7363Z" transform="translate(0.5 0.5)"/><path class="a83282bb-de8f-4f99-979d-cbd05e53d10b" d="M156.6206,179.09a2.3537,2.3537,0,0,1,3.6621-.0214,3.726,3.726,0,0,1,.668,2.3359,3.6327,3.6327,0,0,1-.7471,2.416,2.3594,2.3594,0,0,1-1.8838.8887,2.4367,2.4367,0,0,1-1.6992-.627v2.8711h-1.1074v-8.6074h1.1074Zm0,3.9961a2.1765,2.1765,0,0,0,1.6289.7559,1.3148,1.3148,0,0,0,1.1367-.6133,3.2235,3.2235,0,0,0,.4219-1.8242,3.1436,3.1436,0,0,0-.3984-1.7441,1.266,1.266,0,0,0-1.1133-.5938,2.1,2.1,0,0,0-1.6758,1.0664Z" transform="translate(0.5 0.5)"/><path class="a83282bb-de8f-4f99-979d-cbd05e53d10b" d="M164.6011,184.5742a4.1654,4.1654,0,0,1-.791.07,1.6381,1.6381,0,0,1-.9961-.2441,1.0143,1.0143,0,0,1-.3926-.6231,5.54,5.54,0,0,1-.0762-1.0371v-3.5273h-.7676v-.8672h.7676v-1.5469h1.1016v1.5469h1.0078v.8672h-1.0078v3.5859a1.3171,1.3171,0,0,0,.1611.8106.5759.5759,0,0,0,.4424.1738,3.1383,3.1383,0,0,0,.5508-.0469Z" transform="translate(0.5 0.5)"/><path class="a83282bb-de8f-4f99-979d-cbd05e53d10b" d="M166.6284,177.168H165.521v-1.1953h1.1074Zm0,7.3945H165.521v-6.2168h1.1074Z" transform="translate(0.5 0.5)"/><path class="a83282bb-de8f-4f99-979d-cbd05e53d10b" d="M176.66,184.5625h-1.1075V180.543a2.039,2.039,0,0,0-.2226-1.1016.8335.8335,0,0,0-.7442-.3281,2.1,2.1,0,0,0-1.5761.9961v4.4531h-1.1016V180.543a2.039,2.039,0,0,0-.2226-1.1016.84.84,0,0,0-.75-.3281,2.0851,2.0851,0,0,0-1.57.9961v4.4531h-1.1074v-6.2168h1.1074v.791a2.2633,2.2633,0,0,1,1.74-.9316,1.63,1.63,0,0,1,1.74,1.125,3.48,3.48,0,0,1,1.0547-.93,2.0487,2.0487,0,0,1,.85-.1953q1.91,0,1.91,2.291Z" transform="translate(0.5 0.5)"/><path class="a83282bb-de8f-4f99-979d-cbd05e53d10b" d="M179.3608,177.168h-1.1074v-1.1953h1.1074Zm0,7.3945h-1.1074v-6.2168h1.1074Z" transform="translate(0.5 0.5)"/><path class="a83282bb-de8f-4f99-979d-cbd05e53d10b" d="M185.9233,184.5625h-5.5078v-.9375l3.8731-4.3418H180.644v-.9375h5.086v.9375l-3.8731,4.3418h4.0664Z" transform="translate(0.5 0.5)"/><path class="a83282bb-de8f-4f99-979d-cbd05e53d10b" d="M189.6323,184.709a2.9287,2.9287,0,0,1-2.2031-.8594,3.293,3.293,0,0,1-.832-2.3926,3.3674,3.3674,0,0,1,.8056-2.3886,3.04,3.04,0,0,1,4.23-.0137,3.3855,3.3855,0,0,1,.7939,2.4023v.2637h-4.6816a2.4026,2.4026,0,0,0,.5947,1.6,1.7607,1.7607,0,0,0,1.292.5215,1.91,1.91,0,0,0,1.0459-.2969.9937.9937,0,0,0,.4893-.84H192.31a2.0617,2.0617,0,0,1-.87,1.4824A3.0611,3.0611,0,0,1,189.6323,184.709Zm1.6289-3.8555a2.2533,2.2533,0,0,0-.6035-1.3418,1.6939,1.6939,0,0,0-2.2851-.0039,2.2047,2.2047,0,0,0-.6036,1.3457Z" transform="translate(0.5 0.5)"/><path class="a83282bb-de8f-4f99-979d-cbd05e53d10b" d="M197.6011,183.8184a2.3454,2.3454,0,0,1-3.6621.0234,3.736,3.736,0,0,1-.668-2.3379,3.6288,3.6288,0,0,1,.7471-2.4121,2.3516,2.3516,0,0,1,1.8779-.8867,2.4718,2.4718,0,0,1,1.7051.6211v-2.8535h1.1015v8.59h-1.1015Zm0-1.043v-2.9531a2.1947,2.1947,0,0,0-1.6348-.7559,1.3152,1.3152,0,0,0-1.1338.6113,3.2136,3.2136,0,0,0-.4248,1.8262,3.118,3.118,0,0,0,.4014,1.7422,1.2694,1.2694,0,0,0,1.11.5957A2.1031,2.1031,0,0,0,197.6011,182.7754Z" transform="translate(0.5 0.5)"/></g><g class="a698d951-1d47-4238-80db-d53f6bf84c3f"><path class="a83282bb-de8f-4f99-979d-cbd05e53d10b" d="M4.33,184.709a3.5932,3.5932,0,0,1-2.2354-.58,2.493,2.493,0,0,1-.9375-1.3652,7.5628,7.5628,0,0,1-.1963-1.8223v-4.9687H2.0977v4.9511A3.1224,3.1224,0,0,0,2.666,183.15a2.3466,2.3466,0,0,0,1.6641.5332,2.3465,2.3465,0,0,0,1.664-.5332,3.1223,3.1223,0,0,0,.5684-2.2266v-4.9511H7.7051v4.9687a5.3544,5.3544,0,0,1-.3721,2.2969,2.4012,2.4012,0,0,1-1.1221,1.1035A4.275,4.275,0,0,1,4.33,184.709Z" transform="translate(0.5 0.5)"/><path class="a83282bb-de8f-4f99-979d-cbd05e53d10b" d="M10.5879,179.1367a2.4436,2.4436,0,0,1,1.8574-.9316q2.1036,0,2.1035,2.291v4.0664H13.4414V180.543a1.74,1.74,0,0,0-.2725-1.0957,1.0888,1.0888,0,0,0-.8935-.334,2.3114,2.3114,0,0,0-1.6875.9961v4.4531H9.4805v-6.2168h1.1074Z" transform="translate(0.5 0.5)"/><path class="a83282bb-de8f-4f99-979d-cbd05e53d10b" d="M18.6738,178.2051a2.7684,2.7684,0,0,1,2.1241.85,4.0258,4.0258,0,0,1,0,4.8008,2.7644,2.7644,0,0,1-2.1241.8535,2.7569,2.7569,0,0,1-2.1181-.8535,4.0254,4.0254,0,0,1,0-4.8008A2.7609,2.7609,0,0,1,18.6738,178.2051Zm0,5.6367a1.5811,1.5811,0,0,0,1.2832-.6016,3.49,3.49,0,0,0,0-3.5742,1.6729,1.6729,0,0,0-2.5664,0,3.49,3.49,0,0,0,0,3.5742A1.5814,1.5814,0,0,0,18.6738,183.8418Z" transform="translate(0.5 0.5)"/><path class="a83282bb-de8f-4f99-979d-cbd05e53d10b" d="M23.9355,179.09a2.3538,2.3538,0,0,1,3.6622-.0214,3.7259,3.7259,0,0,1,.6679,2.3359,3.6333,3.6333,0,0,1-.747,2.416,2.36,2.36,0,0,1-1.8838.8887,2.4371,2.4371,0,0,1-1.6993-.627v2.8711H22.8281v-8.6074h1.1074Zm0,3.9961a2.1767,2.1767,0,0,0,1.629.7559,1.315,1.315,0,0,0,1.1367-.6133,3.2244,3.2244,0,0,0,.4218-1.8242,3.1436,3.1436,0,0,0-.3984-1.7441,1.2657,1.2657,0,0,0-1.1133-.5938,2.1,2.1,0,0,0-1.6758,1.0664Z" transform="translate(0.5 0.5)"/><path class="a83282bb-de8f-4f99-979d-cbd05e53d10b" d="M31.916,184.5742a4.1646,4.1646,0,0,1-.791.07,1.6383,1.6383,0,0,1-.9961-.2441,1.0147,1.0147,0,0,1-.3926-.6231A5.5416,5.5416,0,0,1,29.66,182.74v-3.5273h-.7676v-.8672H29.66v-1.5469h1.1015v1.5469H31.77v.8672H30.7617v3.5859a1.3162,1.3162,0,0,0,.1612.8106.5757.5757,0,0,0,.4423.1738,3.1383,3.1383,0,0,0,.5508-.0469Z" transform="translate(0.5 0.5)"/><path class="a83282bb-de8f-4f99-979d-cbd05e53d10b" d="M33.9434,177.168H32.8359v-1.1953h1.1075Zm0,7.3945H32.8359v-6.2168h1.1075Z" transform="translate(0.5 0.5)"/><path class="a83282bb-de8f-4f99-979d-cbd05e53d10b" d="M43.9746,184.5625H42.8672V180.543a2.0379,2.0379,0,0,0-.2227-1.1016.8334.8334,0,0,0-.7441-.3281,2.1,2.1,0,0,0-1.5762.9961v4.4531H39.2227V180.543A2.0389,2.0389,0,0,0,39,179.4414a.84.84,0,0,0-.75-.3281,2.0848,2.0848,0,0,0-1.57.9961v4.4531H35.5723v-6.2168H36.68v.791a2.263,2.263,0,0,1,1.74-.9316,1.6305,1.6305,0,0,1,1.74,1.125,3.48,3.48,0,0,1,1.0546-.93,2.0488,2.0488,0,0,1,.85-.1953q1.91,0,1.91,2.291Z" transform="translate(0.5 0.5)"/><path class="a83282bb-de8f-4f99-979d-cbd05e53d10b" d="M46.6758,177.168H45.5684v-1.1953h1.1074Zm0,7.3945H45.5684v-6.2168h1.1074Z" transform="translate(0.5 0.5)"/><path class="a83282bb-de8f-4f99-979d-cbd05e53d10b" d="M53.2383,184.5625H47.7305v-.9375l3.873-4.3418H47.959v-.9375h5.0859v.9375l-3.873,4.3418h4.0664Z" transform="translate(0.5 0.5)"/><path class="a83282bb-de8f-4f99-979d-cbd05e53d10b" d="M56.9473,184.709a2.9288,2.9288,0,0,1-2.2032-.8594,3.2935,3.2935,0,0,1-.832-2.3926,3.3675,3.3675,0,0,1,.8057-2.3886,3.04,3.04,0,0,1,4.23-.0137,3.3856,3.3856,0,0,1,.794,2.4023v.2637H55.0605a2.4027,2.4027,0,0,0,.5948,1.6,1.7605,1.7605,0,0,0,1.292.5215,1.91,1.91,0,0,0,1.0459-.2969.9938.9938,0,0,0,.4892-.84H59.625a2.0616,2.0616,0,0,1-.87,1.4824A3.0615,3.0615,0,0,1,56.9473,184.709Zm1.6289-3.8555a2.2539,2.2539,0,0,0-.6035-1.3418,1.694,1.694,0,0,0-2.2852-.0039,2.2041,2.2041,0,0,0-.6035,1.3457Z" transform="translate(0.5 0.5)"/><path class="a83282bb-de8f-4f99-979d-cbd05e53d10b" d="M64.916,183.8184a2.3454,2.3454,0,0,1-3.6621.0234,3.736,3.736,0,0,1-.668-2.3379,3.6293,3.6293,0,0,1,.7471-2.4121,2.3517,2.3517,0,0,1,1.8779-.8867,2.4717,2.4717,0,0,1,1.7051.6211v-2.8535h1.1016v8.59H64.916Zm0-1.043v-2.9531a2.1945,2.1945,0,0,0-1.6347-.7559,1.3151,1.3151,0,0,0-1.1338.6113,3.2136,3.2136,0,0,0-.4248,1.8262,3.1181,3.1181,0,0,0,.4013,1.7422,1.27,1.27,0,0,0,1.11.5957A2.103,2.103,0,0,0,64.916,182.7754Z" transform="translate(0.5 0.5)"/></g><line class="f639ebec-90d2-4d25-9f21-60ed7be604c4" x1="297.6297" y1="145.4497" x2="436.6547" y2="145.4497"/><line class="f639ebec-90d2-4d25-9f21-60ed7be604c4" x1="297.6297" y1="145.4497" x2="297.6297" y2="159.4827"/><polygon class="a83282bb-de8f-4f99-979d-cbd05e53d10b" points="297.63 166.543 293.564 156.594 297.63 158.955 301.694 156.594 297.63 166.543"/><line class="f639ebec-90d2-4d25-9f21-60ed7be604c4" x1="367.1421" y1="124.3561" x2="367.1421" y2="145.4497"/><line class="f639ebec-90d2-4d25-9f21-60ed7be604c4" x1="436.6547" y1="145.4497" x2="436.6547" y2="159.4827"/><polygon class="a83282bb-de8f-4f99-979d-cbd05e53d10b" points="436.655 166.543 432.589 156.594 436.655 158.955 440.719 156.594 436.655 166.543"/><g class="a698d951-1d47-4238-80db-d53f6bf84c3f"><path class="a83282bb-de8f-4f99-979d-cbd05e53d10b" d="M413.7568,175.8262a3.8768,3.8768,0,0,1,2.9532,1.2187,5.0959,5.0959,0,0,1,0,6.4453,4.1966,4.1966,0,0,1-5.918-.0039,5.07,5.07,0,0,1,0-6.4414A3.9021,3.9021,0,0,1,413.7568,175.8262Zm-.0117,7.91a2.7145,2.7145,0,0,0,2.1123-.914,4.3818,4.3818,0,0,0,.003-5.1094,2.686,2.686,0,0,0-2.0918-.9141,2.7391,2.7391,0,0,0-2.1241.9141,4.3506,4.3506,0,0,0-.0029,5.1055A2.7073,2.7073,0,0,0,413.7451,183.7363Z" transform="translate(0.5 0.5)"/><path class="a83282bb-de8f-4f99-979d-cbd05e53d10b" d="M420.3311,179.09a2.3537,2.3537,0,0,1,3.6621-.0214,3.7259,3.7259,0,0,1,.6679,2.3359,3.6333,3.6333,0,0,1-.747,2.416,2.36,2.36,0,0,1-1.8838.8887,2.4367,2.4367,0,0,1-1.6992-.627v2.8711h-1.1075v-8.6074h1.1075Zm0,3.9961a2.1763,2.1763,0,0,0,1.6289.7559,1.315,1.315,0,0,0,1.1367-.6133,3.2243,3.2243,0,0,0,.4219-1.8242,3.1435,3.1435,0,0,0-.3985-1.7441,1.2657,1.2657,0,0,0-1.1133-.5938,2.1,2.1,0,0,0-1.6757,1.0664Z" transform="translate(0.5 0.5)"/><path class="a83282bb-de8f-4f99-979d-cbd05e53d10b" d="M428.3115,184.5742a4.1646,4.1646,0,0,1-.791.07,1.6385,1.6385,0,0,1-.9961-.2441,1.0147,1.0147,0,0,1-.3926-.6231,5.55,5.55,0,0,1-.0761-1.0371v-3.5273h-.7676v-.8672h.7676v-1.5469h1.1015v1.5469h1.0078v.8672h-1.0078v3.5859a1.3162,1.3162,0,0,0,.1612.8106.5757.5757,0,0,0,.4423.1738,3.1383,3.1383,0,0,0,.5508-.0469Z" transform="translate(0.5 0.5)"/><path class="a83282bb-de8f-4f99-979d-cbd05e53d10b" d="M430.3389,177.168h-1.1075v-1.1953h1.1075Zm0,7.3945h-1.1075v-6.2168h1.1075Z" transform="translate(0.5 0.5)"/><path class="a83282bb-de8f-4f99-979d-cbd05e53d10b" d="M440.37,184.5625h-1.1074V180.543a2.0379,2.0379,0,0,0-.2227-1.1016.8333.8333,0,0,0-.7441-.3281,2.1,2.1,0,0,0-1.5762.9961v4.4531h-1.1015V180.543a2.0389,2.0389,0,0,0-.2227-1.1016.84.84,0,0,0-.75-.3281,2.0849,2.0849,0,0,0-1.57.9961v4.4531h-1.1074v-6.2168h1.1074v.791a2.263,2.263,0,0,1,1.74-.9316,1.6305,1.6305,0,0,1,1.74,1.125,3.4787,3.4787,0,0,1,1.0547-.93,2.048,2.048,0,0,1,.85-.1953q1.91,0,1.91,2.291Z" transform="translate(0.5 0.5)"/><path class="a83282bb-de8f-4f99-979d-cbd05e53d10b" d="M443.0713,177.168h-1.1074v-1.1953h1.1074Zm0,7.3945h-1.1074v-6.2168h1.1074Z" transform="translate(0.5 0.5)"/><path class="a83282bb-de8f-4f99-979d-cbd05e53d10b" d="M449.6338,184.5625H444.126v-.9375l3.873-4.3418h-3.6445v-.9375H449.44v.9375l-3.873,4.3418h4.0664Z" transform="translate(0.5 0.5)"/><path class="a83282bb-de8f-4f99-979d-cbd05e53d10b" d="M453.3428,184.709a2.9288,2.9288,0,0,1-2.2032-.8594,3.2935,3.2935,0,0,1-.832-2.3926,3.3675,3.3675,0,0,1,.8057-2.3886,3.04,3.04,0,0,1,4.2305-.0137,3.386,3.386,0,0,1,.7939,2.4023v.2637h-4.6816a2.4021,2.4021,0,0,0,.5947,1.6,1.7607,1.7607,0,0,0,1.292.5215,1.91,1.91,0,0,0,1.0459-.2969.9938.9938,0,0,0,.4892-.84h1.1426a2.0616,2.0616,0,0,1-.87,1.4824A3.0613,3.0613,0,0,1,453.3428,184.709Zm1.6289-3.8555a2.2539,2.2539,0,0,0-.6035-1.3418,1.694,1.694,0,0,0-2.2852-.0039,2.2041,2.2041,0,0,0-.6035,1.3457Z" transform="translate(0.5 0.5)"/><path class="a83282bb-de8f-4f99-979d-cbd05e53d10b" d="M461.3115,183.8184a2.3454,2.3454,0,0,1-3.6621.0234,3.736,3.736,0,0,1-.668-2.3379,3.6293,3.6293,0,0,1,.7471-2.4121,2.3517,2.3517,0,0,1,1.8779-.8867,2.4717,2.4717,0,0,1,1.7051.6211v-2.8535h1.1016v8.59h-1.1016Zm0-1.043v-2.9531a2.1945,2.1945,0,0,0-1.6347-.7559,1.3151,1.3151,0,0,0-1.1338.6113,3.2136,3.2136,0,0,0-.4248,1.8262,3.1189,3.1189,0,0,0,.4013,1.7422,1.27,1.27,0,0,0,1.11.5957A2.103,2.103,0,0,0,461.3115,182.7754Z" transform="translate(0.5 0.5)"/></g><g class="a698d951-1d47-4238-80db-d53f6bf84c3f"><path class="a83282bb-de8f-4f99-979d-cbd05e53d10b" d="M268.041,184.709a3.5927,3.5927,0,0,1-2.2353-.58,2.4919,2.4919,0,0,1-.9375-1.3652,7.5578,7.5578,0,0,1-.1963-1.8223v-4.9687h1.1367v4.9511a3.1218,3.1218,0,0,0,.5684,2.2266,2.8632,2.8632,0,0,0,3.3281,0,3.1224,3.1224,0,0,0,.5683-2.2266v-4.9511h1.1426v4.9687a5.3544,5.3544,0,0,1-.3721,2.2969,2.401,2.401,0,0,1-1.122,1.1035A4.2754,4.2754,0,0,1,268.041,184.709Z" transform="translate(0.5 0.5)"/><path class="a83282bb-de8f-4f99-979d-cbd05e53d10b" d="M274.2988,179.1367a2.4438,2.4438,0,0,1,1.8575-.9316q2.1035,0,2.1035,2.291v4.0664h-1.1075V180.543a1.7407,1.7407,0,0,0-.2724-1.0957,1.0892,1.0892,0,0,0-.8936-.334,2.3114,2.3114,0,0,0-1.6875.9961v4.4531h-1.1074v-6.2168h1.1074Z" transform="translate(0.5 0.5)"/><path class="a83282bb-de8f-4f99-979d-cbd05e53d10b" d="M282.3848,178.2051a2.7682,2.7682,0,0,1,2.124.85,4.0258,4.0258,0,0,1,0,4.8008,3.0624,3.0624,0,0,1-4.2422,0,4.0258,4.0258,0,0,1,0-4.8008A2.7611,2.7611,0,0,1,282.3848,178.2051Zm0,5.6367a1.5814,1.5814,0,0,0,1.2832-.6016,3.49,3.49,0,0,0,0-3.5742,1.6729,1.6729,0,0,0-2.5664,0,3.49,3.49,0,0,0,0,3.5742A1.5811,1.5811,0,0,0,282.3848,183.8418Z" transform="translate(0.5 0.5)"/><path class="a83282bb-de8f-4f99-979d-cbd05e53d10b" d="M287.6465,179.09a2.3537,2.3537,0,0,1,3.6621-.0214,3.726,3.726,0,0,1,.668,2.3359,3.6333,3.6333,0,0,1-.7471,2.416,2.36,2.36,0,0,1-1.8838.8887,2.4367,2.4367,0,0,1-1.6992-.627v2.8711h-1.1074v-8.6074h1.1074Zm0,3.9961a2.1763,2.1763,0,0,0,1.6289.7559,1.3148,1.3148,0,0,0,1.1367-.6133,3.2235,3.2235,0,0,0,.4219-1.8242,3.1426,3.1426,0,0,0-.3985-1.7441,1.2657,1.2657,0,0,0-1.1132-.5938,2.1,2.1,0,0,0-1.6758,1.0664Z" transform="translate(0.5 0.5)"/><path class="a83282bb-de8f-4f99-979d-cbd05e53d10b" d="M295.627,184.5742a4.1657,4.1657,0,0,1-.7911.07,1.6385,1.6385,0,0,1-.9961-.2441,1.0142,1.0142,0,0,1-.3925-.6231,5.54,5.54,0,0,1-.0762-1.0371v-3.5273h-.7676v-.8672h.7676v-1.5469h1.1016v1.5469h1.0078v.8672h-1.0078v3.5859a1.3171,1.3171,0,0,0,.1611.8106.5759.5759,0,0,0,.4424.1738,3.1383,3.1383,0,0,0,.5508-.0469Z" transform="translate(0.5 0.5)"/><path class="a83282bb-de8f-4f99-979d-cbd05e53d10b" d="M297.6543,177.168h-1.1074v-1.1953h1.1074Zm0,7.3945h-1.1074v-6.2168h1.1074Z" transform="translate(0.5 0.5)"/><path class="a83282bb-de8f-4f99-979d-cbd05e53d10b" d="M307.6855,184.5625h-1.1074V180.543a2.039,2.039,0,0,0-.2226-1.1016.8336.8336,0,0,0-.7442-.3281,2.1,2.1,0,0,0-1.5761.9961v4.4531h-1.1016V180.543a2.0379,2.0379,0,0,0-.2227-1.1016.84.84,0,0,0-.75-.3281,2.0849,2.0849,0,0,0-1.57.9961v4.4531h-1.1074v-6.2168h1.1074v.791a2.2632,2.2632,0,0,1,1.74-.9316,1.63,1.63,0,0,1,1.74,1.125,3.48,3.48,0,0,1,1.0547-.93,2.048,2.048,0,0,1,.85-.1953q1.91,0,1.91,2.291Z" transform="translate(0.5 0.5)"/><path class="a83282bb-de8f-4f99-979d-cbd05e53d10b" d="M310.3867,177.168h-1.1074v-1.1953h1.1074Zm0,7.3945h-1.1074v-6.2168h1.1074Z" transform="translate(0.5 0.5)"/><path class="a83282bb-de8f-4f99-979d-cbd05e53d10b" d="M316.9492,184.5625h-5.5078v-.9375l3.8731-4.3418H311.67v-.9375h5.086v.9375l-3.8731,4.3418h4.0664Z" transform="translate(0.5 0.5)"/><path class="a83282bb-de8f-4f99-979d-cbd05e53d10b" d="M320.6582,184.709a2.9286,2.9286,0,0,1-2.2031-.8594,3.2931,3.2931,0,0,1-.8321-2.3926,3.3675,3.3675,0,0,1,.8057-2.3886,3.04,3.04,0,0,1,4.2305-.0137,3.3855,3.3855,0,0,1,.7939,2.4023v.2637h-4.6816a2.4026,2.4026,0,0,0,.5947,1.6,1.7607,1.7607,0,0,0,1.292.5215,1.91,1.91,0,0,0,1.0459-.2969.9941.9941,0,0,0,.4893-.84h1.1425a2.0613,2.0613,0,0,1-.87,1.4824A3.0613,3.0613,0,0,1,320.6582,184.709Zm1.6289-3.8555a2.2533,2.2533,0,0,0-.6035-1.3418,1.694,1.694,0,0,0-2.2852-.0039,2.2047,2.2047,0,0,0-.6035,1.3457Z" transform="translate(0.5 0.5)"/><path class="a83282bb-de8f-4f99-979d-cbd05e53d10b" d="M328.627,183.8184a2.3455,2.3455,0,0,1-3.6622.0234,3.736,3.736,0,0,1-.6679-2.3379,3.6293,3.6293,0,0,1,.747-2.4121,2.3519,2.3519,0,0,1,1.878-.8867,2.4718,2.4718,0,0,1,1.7051.6211v-2.8535h1.1015v8.59H328.627Zm0-1.043v-2.9531a2.1947,2.1947,0,0,0-1.6348-.7559,1.3151,1.3151,0,0,0-1.1338.6113,3.2136,3.2136,0,0,0-.4248,1.8262,3.118,3.118,0,0,0,.4014,1.7422,1.2693,1.2693,0,0,0,1.11.5957A2.1033,2.1033,0,0,0,328.627,182.7754Z" transform="translate(0.5 0.5)"/></g><g class="a698d951-1d47-4238-80db-d53f6bf84c3f"><path class="a83282bb-de8f-4f99-979d-cbd05e53d10b" d="M342.5215,110.0483h-1.2578v-8.5244l-2.8574,8.5244h-1.19l-2.8574-8.5244v8.5244h-1.2578V100.0269h1.9892l2.7139,8.3535,2.7275-8.3535h1.9893Z" transform="translate(0.5 0.5)"/><path class="a83282bb-de8f-4f99-979d-cbd05e53d10b" d="M347.6758,110.2192a3.4185,3.4185,0,0,1-2.57-1.0009,3.8489,3.8489,0,0,1-.9707-2.793,3.9234,3.9234,0,0,1,.94-2.7852,3.5447,3.5447,0,0,1,4.9355-.0175,3.951,3.951,0,0,1,.9258,2.8027v.3076h-5.4619a2.8,2.8,0,0,0,.6943,1.8662,2.0541,2.0541,0,0,0,1.5069.6084,2.2344,2.2344,0,0,0,1.2207-.3447,1.1609,1.1609,0,0,0,.57-.9815H350.8a2.4035,2.4035,0,0,1-1.0146,1.73A3.5758,3.5758,0,0,1,347.6758,110.2192Zm1.9-4.498a2.624,2.624,0,0,0-.7041-1.5654,1.9751,1.9751,0,0,0-2.666-.0039,2.5712,2.5712,0,0,0-.7041,1.5693Z" transform="translate(0.5 0.5)"/><path class="a83282bb-de8f-4f99-979d-cbd05e53d10b" d="M362.1816,110.0483H360.89v-4.6894a2.3719,2.3719,0,0,0-.26-1.2852.9719.9719,0,0,0-.8682-.3828,2.4516,2.4516,0,0,0-1.8388,1.1621v5.1953h-1.2852v-4.6894a2.3708,2.3708,0,0,0-.26-1.2852.98.98,0,0,0-.875-.3828,2.435,2.435,0,0,0-1.832,1.1621v5.1953h-1.292v-7.2529h1.292v.9229a2.6424,2.6424,0,0,1,2.03-1.087,1.9012,1.9012,0,0,1,2.03,1.3125,4.0578,4.0578,0,0,1,1.2305-1.083,2.3872,2.3872,0,0,1,.9912-.23q2.23,0,2.2285,2.6729Z" transform="translate(0.5 0.5)"/><path class="a83282bb-de8f-4f99-979d-cbd05e53d10b" d="M366.9805,102.6313a3.2294,3.2294,0,0,1,2.4785.9913,4.6993,4.6993,0,0,1,0,5.6015,3.5744,3.5744,0,0,1-4.9492,0,4.6953,4.6953,0,0,1,0-5.6015A3.2193,3.2193,0,0,1,366.9805,102.6313Zm0,6.5762a1.8442,1.8442,0,0,0,1.497-.7,4.0718,4.0718,0,0,0,0-4.17,1.9487,1.9487,0,0,0-2.9941,0,4.0724,4.0724,0,0,0,0,4.17A1.8442,1.8442,0,0,0,366.9805,109.2075Z" transform="translate(0.5 0.5)"/><path class="a83282bb-de8f-4f99-979d-cbd05e53d10b" d="M375.5938,103.9712a2.8846,2.8846,0,0,0-.7862-.082,2.0256,2.0256,0,0,0-1.6885,1.0322v5.1269h-1.292v-7.2529h1.292v1.0117a2.304,2.304,0,0,1,1.8868-1.1758,3.47,3.47,0,0,1,.5879.0547Z" transform="translate(0.5 0.5)"/><path class="a83282bb-de8f-4f99-979d-cbd05e53d10b" d="M377.7813,101.4214h-1.292v-1.3945h1.292Zm0,8.6269h-1.292v-7.2529h1.292Z" transform="translate(0.5 0.5)"/><path class="a83282bb-de8f-4f99-979d-cbd05e53d10b" d="M385.4375,110.0483h-6.4258v-1.0937l4.5186-5.0654h-4.252v-1.0938h5.9336v1.0938l-4.5185,5.0654h4.7441Z" transform="translate(0.5 0.5)"/><path class="a83282bb-de8f-4f99-979d-cbd05e53d10b" d="M389.7646,110.2192a3.4187,3.4187,0,0,1-2.57-1.0009,3.8493,3.8493,0,0,1-.9707-2.793,3.9234,3.9234,0,0,1,.9405-2.7852,3.5447,3.5447,0,0,1,4.9355-.0175,3.951,3.951,0,0,1,.9258,2.8027v.3076h-5.4619a2.8,2.8,0,0,0,.6943,1.8662,2.0538,2.0538,0,0,0,1.5068.6084,2.2349,2.2349,0,0,0,1.2208-.3447,1.1609,1.1609,0,0,0,.57-.9815h1.333a2.4033,2.4033,0,0,1-1.0147,1.73A3.5756,3.5756,0,0,1,389.7646,110.2192Zm1.9-4.498a2.6234,2.6234,0,0,0-.7041-1.5654,1.9751,1.9751,0,0,0-2.666-.0039,2.5723,2.5723,0,0,0-.7041,1.5693Z" transform="translate(0.5 0.5)"/><path class="a83282bb-de8f-4f99-979d-cbd05e53d10b" d="M399.0615,109.18a2.7363,2.7363,0,0,1-4.2724.0273,4.36,4.36,0,0,1-.7793-2.7275,4.2283,4.2283,0,0,1,.872-2.8125,2.7426,2.7426,0,0,1,2.19-1.0362,2.8813,2.8813,0,0,1,1.9892.7247v-3.3291h1.2852v10.0214h-1.2852Zm0-1.2168v-3.4453a2.5591,2.5591,0,0,0-1.9072-.8819,1.5348,1.5348,0,0,0-1.3223.7149,3.7366,3.7366,0,0,0-.4961,2.1289,3.635,3.635,0,0,0,.4688,2.0332,1.4788,1.4788,0,0,0,1.2949.6943A2.4533,2.4533,0,0,0,399.0615,107.9634Z" transform="translate(0.5 0.5)"/></g><g class="a698d951-1d47-4238-80db-d53f6bf84c3f"><path class="bedaf5ef-be02-4a45-8517-462507e53f4f" d="M14.3433,211.7031v.2539a6.5614,6.5614,0,0,1-1.7227-1.2168,6.8883,6.8883,0,0,1-1.5176-2.3379,7.5339,7.5339,0,0,1-.5332-2.7968,7.3821,7.3821,0,0,1,1.0459-3.8653,6.0182,6.0182,0,0,1,2.7276-2.498v.2871a3.9017,3.9017,0,0,0-1.3809,1.2715,5.8738,5.8738,0,0,0-.8066,2.043,12.2507,12.2507,0,0,0-.2666,2.5839,14.4184,14.4184,0,0,0,.2255,2.66,7.0775,7.0775,0,0,0,.4307,1.5137,4.8859,4.8859,0,0,0,.68,1.0976A5.3555,5.3555,0,0,0,14.3433,211.7031Z" transform="translate(0.5 0.5)"/><path class="bedaf5ef-be02-4a45-8517-462507e53f4f" d="M21.7808,204.3477h.3076a2.0338,2.0338,0,0,1-.5059,1.3925,1.555,1.555,0,0,1-1.1689.502,2.4315,2.4315,0,0,1-.6768-.1055q-.3625-.1083-1.873-.7226a4.6768,4.6768,0,0,0-1.4971-.4375,1.16,1.16,0,0,0-.8066.2949,1.7111,1.7111,0,0,0-.4649.957h-.3008a2.1157,2.1157,0,0,1,.5059-1.4121,1.46,1.46,0,0,1,1.0937-.4883,2.0859,2.0859,0,0,1,.6153.0957,16.7471,16.7471,0,0,1,1.87.7012,5.0305,5.0305,0,0,0,1.63.4941,1.2085,1.2085,0,0,0,.8613-.3281A1.4413,1.4413,0,0,0,21.7808,204.3477Z" transform="translate(0.5 0.5)"/><path class="bedaf5ef-be02-4a45-8517-462507e53f4f" d="M23.8726,200.6016l2.2558-1.1h.2256v7.8261a4.1469,4.1469,0,0,0,.0649.9707.5063.5063,0,0,0,.27.295,2.2757,2.2757,0,0,0,.8339.1152v.2539H24.0366v-.2539a2.3715,2.3715,0,0,0,.8477-.1113.5662.5662,0,0,0,.2666-.2676,3.6148,3.6148,0,0,0,.0752-1.002v-5.0039a7.3806,7.3806,0,0,0-.0684-1.2988.5471.5471,0,0,0-.1743-.32.4682.4682,0,0,0-.3042-.1035,1.8023,1.8023,0,0,0-.7041.2129Z" transform="translate(0.5 0.5)"/><path class="bedaf5ef-be02-4a45-8517-462507e53f4f" d="M29.7378,204.3828a7.0533,7.0533,0,0,1,.4785-2.7305,3.8305,3.8305,0,0,1,1.2715-1.707,2.1532,2.1532,0,0,1,1.2715-.4433,2.4175,2.4175,0,0,1,1.914,1.0859,5.7505,5.7505,0,0,1,1.06,3.65,7.1971,7.1971,0,0,1-.4648,2.7422,3.628,3.628,0,0,1-1.1861,1.6367,2.4256,2.4256,0,0,1-1.3911.51,2.5577,2.5577,0,0,1-2.208-1.5665A6.3671,6.3671,0,0,1,29.7378,204.3828Zm1.34.17a8.7218,8.7218,0,0,0,.4717,3.125q.39,1.0167,1.1621,1.0176a1.2123,1.2123,0,0,0,.7657-.33,2.12,2.12,0,0,0,.6015-1.1113,13.5245,13.5245,0,0,0,.3145-3.3164,9.0637,9.0637,0,0,0-.3282-2.6445,2.3443,2.3443,0,0,0-.6357-1.1153,1.0452,1.0452,0,0,0-.6768-.2246,1.076,1.076,0,0,0-.8271.416,3.4858,3.4858,0,0,0-.67,1.7852A16.5488,16.5488,0,0,0,31.0776,204.5527Z" transform="translate(0.5 0.5)"/><path class="bedaf5ef-be02-4a45-8517-462507e53f4f" d="M36.7378,204.3828a7.0533,7.0533,0,0,1,.4785-2.7305,3.8305,3.8305,0,0,1,1.2715-1.707,2.1532,2.1532,0,0,1,1.2715-.4433,2.4175,2.4175,0,0,1,1.914,1.0859,5.7505,5.7505,0,0,1,1.06,3.65,7.1971,7.1971,0,0,1-.4648,2.7422,3.628,3.628,0,0,1-1.1861,1.6367,2.4256,2.4256,0,0,1-1.3911.51,2.5577,2.5577,0,0,1-2.208-1.5665A6.3671,6.3671,0,0,1,36.7378,204.3828Zm1.34.17a8.7218,8.7218,0,0,0,.4717,3.125q.39,1.0167,1.1621,1.0176a1.2123,1.2123,0,0,0,.7657-.33,2.12,2.12,0,0,0,.6015-1.1113,13.5245,13.5245,0,0,0,.3145-3.3164,9.0637,9.0637,0,0,0-.3282-2.6445,2.3443,2.3443,0,0,0-.6357-1.1153,1.0452,1.0452,0,0,0-.6768-.2246,1.076,1.076,0,0,0-.8271.416,3.4858,3.4858,0,0,0-.67,1.7852A16.5488,16.5488,0,0,0,38.0776,204.5527Z" transform="translate(0.5 0.5)"/><path class="bedaf5ef-be02-4a45-8517-462507e53f4f" d="M51.2163,202.5156v2.1328h-.2256a2.7759,2.7759,0,0,0-.6665-1.3671,1.5035,1.5035,0,0,0-1.0356-.3614,1.1455,1.1455,0,0,0-.7725.252.736.736,0,0,0-.2939.5605,1.0146,1.0146,0,0,0,.2187.6563,2.438,2.438,0,0,0,.8613.5957l.9981.4844a2.0292,2.0292,0,0,1,1.3877,1.7851,1.685,1.685,0,0,1-.646,1.377,2.2353,2.2353,0,0,1-1.4458.5234,4.9738,4.9738,0,0,1-1.3125-.2051,1.2856,1.2856,0,0,0-.3691-.0683.2706.2706,0,0,0-.2461.1777h-.2256v-2.2363h.2256a2.5468,2.5468,0,0,0,.7314,1.4433,1.7694,1.7694,0,0,0,1.21.4844,1.0868,1.0868,0,0,0,.769-.2754.883.883,0,0,0,.2974-.668,1.0608,1.0608,0,0,0-.3316-.7929,5.8513,5.8513,0,0,0-1.3227-.8125,3.9316,3.9316,0,0,1-1.2989-.8887,1.54,1.54,0,0,1-.3076-.9844,1.74,1.74,0,0,1,.53-1.2929,1.877,1.877,0,0,1,1.3706-.52,3.2063,3.2063,0,0,1,.8955.1582,2.0885,2.0885,0,0,0,.4649.1016.2763.2763,0,0,0,.1709-.0469.68.68,0,0,0,.1435-.2129Z" transform="translate(0.5 0.5)"/><path class="bedaf5ef-be02-4a45-8517-462507e53f4f" d="M52.4946,199.5293v-.2871a6.3729,6.3729,0,0,1,1.73,1.209,7.01,7.01,0,0,1,1.5108,2.3418,7.5221,7.5221,0,0,1,.5332,2.7988,7.4081,7.4081,0,0,1-1.0425,3.8672,6.002,6.002,0,0,1-2.731,2.498v-.2539a4.0305,4.0305,0,0,0,1.3843-1.2734,5.7616,5.7616,0,0,0,.8066-2.0449,12.444,12.444,0,0,0,.2632-2.5879,14.448,14.448,0,0,0-.2256-2.6582,6.6324,6.6324,0,0,0-.4272-1.5117,5.1218,5.1218,0,0,0-.68-1.0938A5.224,5.224,0,0,0,52.4946,199.5293Z" transform="translate(0.5 0.5)"/></g><g class="a698d951-1d47-4238-80db-d53f6bf84c3f"><path class="a7a042e5-193f-49d8-b473-406a368862e7" d="M155.1182,211.7031v.2539a6.5614,6.5614,0,0,1-1.7227-1.2168,6.8883,6.8883,0,0,1-1.5176-2.3379,7.5339,7.5339,0,0,1-.5332-2.7968,7.3821,7.3821,0,0,1,1.0459-3.8653,6.0182,6.0182,0,0,1,2.7276-2.498v.2871a3.9017,3.9017,0,0,0-1.3809,1.2715,5.8738,5.8738,0,0,0-.8066,2.043,12.2507,12.2507,0,0,0-.2666,2.5839,14.4184,14.4184,0,0,0,.2255,2.66,7.0775,7.0775,0,0,0,.4307,1.5137,4.8859,4.8859,0,0,0,.68,1.0976A5.3555,5.3555,0,0,0,155.1182,211.7031Z" transform="translate(0.5 0.5)"/><path class="a7a042e5-193f-49d8-b473-406a368862e7" d="M162.5557,204.3477h.3076a2.0338,2.0338,0,0,1-.5059,1.3925,1.555,1.555,0,0,1-1.1689.502,2.4315,2.4315,0,0,1-.6768-.1055q-.3625-.1083-1.873-.7226a4.6768,4.6768,0,0,0-1.4971-.4375,1.16,1.16,0,0,0-.8066.2949,1.7111,1.7111,0,0,0-.4649.957h-.3008a2.1157,2.1157,0,0,1,.5059-1.4121,1.46,1.46,0,0,1,1.0937-.4883,2.0859,2.0859,0,0,1,.6153.0957,16.7471,16.7471,0,0,1,1.87.7012,5.0305,5.0305,0,0,0,1.63.4941,1.2085,1.2085,0,0,0,.8613-.3281A1.4413,1.4413,0,0,0,162.5557,204.3477Z" transform="translate(0.5 0.5)"/><path class="a7a042e5-193f-49d8-b473-406a368862e7" d="M164.6475,200.6016l2.2558-1.1h.2256v7.8261a4.1469,4.1469,0,0,0,.0649.9707.5063.5063,0,0,0,.27.295,2.2759,2.2759,0,0,0,.834.1152v.2539h-3.4864v-.2539a2.3715,2.3715,0,0,0,.8477-.1113.5662.5662,0,0,0,.2666-.2676,3.6148,3.6148,0,0,0,.0752-1.002v-5.0039a7.3806,7.3806,0,0,0-.0684-1.2988.5471.5471,0,0,0-.1743-.32.4682.4682,0,0,0-.3042-.1035,1.8023,1.8023,0,0,0-.7041.2129Z" transform="translate(0.5 0.5)"/><path class="a7a042e5-193f-49d8-b473-406a368862e7" d="M171.7568,207.6367a.7529.7529,0,1,1-.5366.2188A.7345.7345,0,0,1,171.7568,207.6367Z" transform="translate(0.5 0.5)"/><path class="a7a042e5-193f-49d8-b473-406a368862e7" d="M179.584,199.6934l-.5332,1.1621h-2.7891l-.6084,1.2441a4.89,4.89,0,0,1,2.8711,1.3457,3.03,3.03,0,0,1,.9092,2.1875,3.0922,3.0922,0,0,1-.2974,1.3535,3.6568,3.6568,0,0,1-.7485,1.0606,3.8217,3.8217,0,0,1-1.0049.7031,3.6827,3.6827,0,0,1-1.6133.377,2.0591,2.0591,0,0,1-1.2133-.2832.7942.7942,0,0,1-.3794-.627.45.45,0,0,1,.1572-.3379.5592.5592,0,0,1,.3965-.1465.8029.8029,0,0,1,.311.0547,2.7687,2.7687,0,0,1,.4546.2793,1.7988,1.7988,0,0,0,1.0391.3555,1.9294,1.9294,0,0,0,1.4047-.6035,2.0075,2.0075,0,0,0,.605-1.4746,2.5842,2.5842,0,0,0-.54-1.5684,3.4844,3.4844,0,0,0-1.49-1.125,6.076,6.076,0,0,0-2.03-.3555l1.7773-3.6015Z" transform="translate(0.5 0.5)"/><path class="a7a042e5-193f-49d8-b473-406a368862e7" d="M188.4912,202.5156v2.1328h-.2256a2.7759,2.7759,0,0,0-.6665-1.3671,1.5035,1.5035,0,0,0-1.0356-.3614,1.1455,1.1455,0,0,0-.7725.252.736.736,0,0,0-.2939.5605,1.0146,1.0146,0,0,0,.2187.6563,2.438,2.438,0,0,0,.8613.5957l.9981.4844a2.0292,2.0292,0,0,1,1.3877,1.7851,1.685,1.685,0,0,1-.646,1.377,2.2353,2.2353,0,0,1-1.4458.5234,4.9738,4.9738,0,0,1-1.3125-.2051,1.2856,1.2856,0,0,0-.3691-.0683.2706.2706,0,0,0-.2461.1777h-.2256v-2.2363h.2256a2.5468,2.5468,0,0,0,.7314,1.4433,1.7694,1.7694,0,0,0,1.21.4844,1.0868,1.0868,0,0,0,.769-.2754.8827.8827,0,0,0,.2974-.668,1.0608,1.0608,0,0,0-.3316-.7929,5.8513,5.8513,0,0,0-1.3227-.8125,3.9316,3.9316,0,0,1-1.2989-.8887,1.54,1.54,0,0,1-.3076-.9844,1.74,1.74,0,0,1,.53-1.2929,1.877,1.877,0,0,1,1.3706-.52,3.2063,3.2063,0,0,1,.8955.1582,2.09,2.09,0,0,0,.4649.1016.2763.2763,0,0,0,.1709-.0469.68.68,0,0,0,.1435-.2129Z" transform="translate(0.5 0.5)"/><path class="a7a042e5-193f-49d8-b473-406a368862e7" d="M189.77,199.5293v-.2871a6.3729,6.3729,0,0,1,1.73,1.209,7.01,7.01,0,0,1,1.5108,2.3418,7.5221,7.5221,0,0,1,.5332,2.7988,7.4081,7.4081,0,0,1-1.0425,3.8672,6.002,6.002,0,0,1-2.731,2.498v-.2539a4.0305,4.0305,0,0,0,1.3843-1.2734,5.7616,5.7616,0,0,0,.8066-2.0449,12.444,12.444,0,0,0,.2632-2.5879,14.448,14.448,0,0,0-.2256-2.6582,6.6324,6.6324,0,0,0-.4272-1.5117,5.1218,5.1218,0,0,0-.68-1.0938A5.224,5.224,0,0,0,189.77,199.5293Z" transform="translate(0.5 0.5)"/></g><g class="a698d951-1d47-4238-80db-d53f6bf84c3f"><path class="fb276054-505c-4283-b669-3462c1620535" d="M279.8037,212.1641v.2529a6.5573,6.5573,0,0,1-1.7226-1.2168,6.866,6.866,0,0,1-1.5176-2.3379,7.5277,7.5277,0,0,1-.5332-2.7959,7.384,7.384,0,0,1,1.0459-3.8662,6.0226,6.0226,0,0,1,2.7275-2.4981v.2872a3.9237,3.9237,0,0,0-1.3808,1.2714,5.89,5.89,0,0,0-.8067,2.044,12.2444,12.2444,0,0,0-.2666,2.584,14.3989,14.3989,0,0,0,.2256,2.6592,7.1058,7.1058,0,0,0,.4307,1.5136,4.8663,4.8663,0,0,0,.6806,1.0977A5.36,5.36,0,0,0,279.8037,212.1641Z" transform="translate(0.5 0.5)"/><path class="fb276054-505c-4283-b669-3462c1620535" d="M287.2412,204.8086h.3076a2.0283,2.0283,0,0,1-.5058,1.3916,1.5536,1.5536,0,0,1-1.169.5019,2.4361,2.4361,0,0,1-.6767-.1054q-.3618-.107-1.8731-.7217a4.6459,4.6459,0,0,0-1.4971-.4375,1.1652,1.1652,0,0,0-.8066.2939,1.7218,1.7218,0,0,0-.4648.9571h-.3008a2.1178,2.1178,0,0,1,.5058-1.4121,1.4654,1.4654,0,0,1,1.0938-.4883,2.11,2.11,0,0,1,.6152.0957,16.8864,16.8864,0,0,1,1.87.7012,5.0419,5.0419,0,0,0,1.63.4951,1.2094,1.2094,0,0,0,.8614-.3281A1.441,1.441,0,0,0,287.2412,204.8086Z" transform="translate(0.5 0.5)"/><path class="fb276054-505c-4283-b669-3462c1620535" d="M288.1982,204.8428a7.0674,7.0674,0,0,1,.4786-2.7305,3.8274,3.8274,0,0,1,1.2714-1.706,2.1482,2.1482,0,0,1,1.2715-.4444,2.4183,2.4183,0,0,1,1.9141,1.0869,5.7446,5.7446,0,0,1,1.06,3.65,7.1832,7.1832,0,0,1-.4649,2.7412,3.6213,3.6213,0,0,1-1.1855,1.6367,2.4268,2.4268,0,0,1-1.3916.51,2.5589,2.5589,0,0,1-2.208-1.5654A6.3766,6.3766,0,0,1,288.1982,204.8428Zm1.34.1709a8.7178,8.7178,0,0,0,.4717,3.124q.39,1.018,1.1621,1.0186a1.2128,1.2128,0,0,0,.7656-.3311,2.1135,2.1135,0,0,0,.6016-1.1113,13.4974,13.4974,0,0,0,.3144-3.3155,9.0751,9.0751,0,0,0-.3281-2.6455,2.3454,2.3454,0,0,0-.6358-1.1142,1.0439,1.0439,0,0,0-.6767-.2256,1.0755,1.0755,0,0,0-.8272.417,3.4868,3.4868,0,0,0-.67,1.7842A16.6472,16.6472,0,0,0,289.5381,205.0137Z" transform="translate(0.5 0.5)"/><path class="fb276054-505c-4283-b669-3462c1620535" d="M296.4424,208.0967a.7536.7536,0,1,1-.5361.2187A.7369.7369,0,0,1,296.4424,208.0967Z" transform="translate(0.5 0.5)"/><path class="fb276054-505c-4283-b669-3462c1620535" d="M304.27,200.1533l-.5332,1.1621h-2.789l-.6084,1.2442a4.8816,4.8816,0,0,1,2.8711,1.3467,3.0253,3.0253,0,0,1,.9091,2.1875,3.1,3.1,0,0,1-.2968,1.3535,3.6548,3.6548,0,0,1-.7491,1.0595,3.8017,3.8017,0,0,1-1.0048.7041,3.6928,3.6928,0,0,1-1.6133.376,2.051,2.051,0,0,1-1.2129-.2832.7947.7947,0,0,1-.38-.626.4537.4537,0,0,1,.1572-.3388.56.56,0,0,1,.3965-.1465.82.82,0,0,1,.3115.0547,2.846,2.846,0,0,1,.4541.28,1.8071,1.8071,0,0,0,1.0391.3555,1.9313,1.9313,0,0,0,1.4053-.6045,2.0066,2.0066,0,0,0,.6045-1.4736,2.5831,2.5831,0,0,0-.54-1.5693,3.4688,3.4688,0,0,0-1.49-1.1241,6.05,6.05,0,0,0-2.03-.3554l1.7774-3.6026Z" transform="translate(0.5 0.5)"/><path class="fb276054-505c-4283-b669-3462c1620535" d="M313.1768,202.9766v2.1328h-.2256a2.7732,2.7732,0,0,0-.666-1.3672,1.5014,1.5014,0,0,0-1.0362-.3623,1.143,1.143,0,0,0-.7724.2529.7365.7365,0,0,0-.294.5606,1.0211,1.0211,0,0,0,.2188.6562,2.4469,2.4469,0,0,0,.8613.5947l.998.4854a2.0275,2.0275,0,0,1,1.3877,1.7842,1.683,1.683,0,0,1-.6455,1.3769,2.2365,2.2365,0,0,1-1.4463.5235,4.9738,4.9738,0,0,1-1.3125-.2051,1.3213,1.3213,0,0,0-.3691-.0684.2732.2732,0,0,0-.2461.1778h-.2256v-2.2354h.2256a2.55,2.55,0,0,0,.7315,1.4424,1.7677,1.7677,0,0,0,1.21.4853,1.0885,1.0885,0,0,0,.77-.2763.88.88,0,0,0,.2969-.667,1.0607,1.0607,0,0,0-.331-.793,5.8175,5.8175,0,0,0-1.3233-.8135,3.9226,3.9226,0,0,1-1.2988-.8886,1.54,1.54,0,0,1-.3076-.9844,1.7363,1.7363,0,0,1,.53-1.292,1.8708,1.8708,0,0,1,1.37-.52,3.231,3.231,0,0,1,.8955.1572,2.122,2.122,0,0,0,.4648.1025.27.27,0,0,0,.1709-.0478.6609.6609,0,0,0,.1436-.2119Z" transform="translate(0.5 0.5)"/><path class="fb276054-505c-4283-b669-3462c1620535" d="M314.4551,199.9893v-.2872a6.3649,6.3649,0,0,1,1.7295,1.21,6.99,6.99,0,0,1,1.5107,2.3408,7.5252,7.5252,0,0,1,.5332,2.8,7.4079,7.4079,0,0,1-1.042,3.8662,5.9976,5.9976,0,0,1-2.7314,2.4981v-.2529A4.0358,4.0358,0,0,0,315.84,210.89a5.7644,5.7644,0,0,0,.8067-2.0449,12.4741,12.4741,0,0,0,.2627-2.5869,14.467,14.467,0,0,0-.2256-2.6592,6.5886,6.5886,0,0,0-.4268-1.5107,5.058,5.058,0,0,0-.6806-1.0938A5.2192,5.2192,0,0,0,314.4551,199.9893Z" transform="translate(0.5 0.5)"/></g><g class="a698d951-1d47-4238-80db-d53f6bf84c3f"><path class="a5b1189f-4259-4ebe-be11-ffd9cb18fc4f" d="M415.3291,212.1641v.2529a6.5265,6.5265,0,0,1-1.7227-1.2168,6.8672,6.8672,0,0,1-1.5175-2.3379,7.5277,7.5277,0,0,1-.5332-2.7959,7.384,7.384,0,0,1,1.0459-3.8662,6.0226,6.0226,0,0,1,2.7275-2.4981v.2872a3.9164,3.9164,0,0,0-1.3809,1.2714,5.8725,5.8725,0,0,0-.8066,2.044,12.2444,12.2444,0,0,0-.2666,2.584,14.3989,14.3989,0,0,0,.2256,2.6592,6.9959,6.9959,0,0,0,.4307,1.5136,4.8614,4.8614,0,0,0,.68,1.0977A5.3671,5.3671,0,0,0,415.3291,212.1641Z" transform="translate(0.5 0.5)"/><path class="a5b1189f-4259-4ebe-be11-ffd9cb18fc4f" d="M422.7666,204.8086h.3076a2.0378,2.0378,0,0,1-.5058,1.3916,1.5567,1.5567,0,0,1-1.169.5019,2.4256,2.4256,0,0,1-.6767-.1054q-.3633-.107-1.8731-.7217a4.6587,4.6587,0,0,0-1.4971-.4375,1.1633,1.1633,0,0,0-.8066.2939,1.7147,1.7147,0,0,0-.4648.9571H415.78a2.1128,2.1128,0,0,1,.5058-1.4121,1.4624,1.4624,0,0,1,1.0938-.4883,2.12,2.12,0,0,1,.6152.0957,16.9591,16.9591,0,0,1,1.8692.7012,5.0444,5.0444,0,0,0,1.6308.4951,1.209,1.209,0,0,0,.8613-.3281A1.4406,1.4406,0,0,0,422.7666,204.8086Z" transform="translate(0.5 0.5)"/><path class="a5b1189f-4259-4ebe-be11-ffd9cb18fc4f" d="M423.7236,204.8428a7.0507,7.0507,0,0,1,.4785-2.7305,3.8138,3.8138,0,0,1,1.2715-1.706,2.1482,2.1482,0,0,1,1.2715-.4444,2.42,2.42,0,0,1,1.9141,1.0869,5.7507,5.7507,0,0,1,1.06,3.65,7.2025,7.2025,0,0,1-.4649,2.7412,3.6218,3.6218,0,0,1-1.1865,1.6367,2.424,2.424,0,0,1-1.3906.51,2.5577,2.5577,0,0,1-2.208-1.5654A6.366,6.366,0,0,1,423.7236,204.8428Zm1.34.1709a8.7178,8.7178,0,0,0,.4717,3.124q.39,1.018,1.1621,1.0186a1.2149,1.2149,0,0,0,.7656-.3311,2.12,2.12,0,0,0,.6016-1.1113,13.5469,13.5469,0,0,0,.3144-3.3155,9.0751,9.0751,0,0,0-.3281-2.6455,2.3454,2.3454,0,0,0-.6358-1.1142,1.0476,1.0476,0,0,0-.6767-.2256,1.0726,1.0726,0,0,0-.8272.417,3.4779,3.4779,0,0,0-.67,1.7842A16.5058,16.5058,0,0,0,425.0635,205.0137Z" transform="translate(0.5 0.5)"/><path class="a5b1189f-4259-4ebe-be11-ffd9cb18fc4f" d="M431.9678,208.0967a.7519.7519,0,1,1-.5371.2187A.7392.7392,0,0,1,431.9678,208.0967Z" transform="translate(0.5 0.5)"/><path class="a5b1189f-4259-4ebe-be11-ffd9cb18fc4f" d="M434.2236,204.8428a7.0507,7.0507,0,0,1,.4785-2.7305,3.8138,3.8138,0,0,1,1.2715-1.706,2.1482,2.1482,0,0,1,1.2715-.4444,2.42,2.42,0,0,1,1.9141,1.0869,5.7507,5.7507,0,0,1,1.06,3.65,7.2025,7.2025,0,0,1-.4649,2.7412,3.6218,3.6218,0,0,1-1.1865,1.6367,2.424,2.424,0,0,1-1.3906.51,2.5577,2.5577,0,0,1-2.208-1.5654A6.366,6.366,0,0,1,434.2236,204.8428Zm1.34.1709a8.7178,8.7178,0,0,0,.4717,3.124q.39,1.018,1.1621,1.0186a1.2149,1.2149,0,0,0,.7656-.3311,2.12,2.12,0,0,0,.6016-1.1113,13.5469,13.5469,0,0,0,.3144-3.3155,9.0751,9.0751,0,0,0-.3281-2.6455,2.3454,2.3454,0,0,0-.6358-1.1142,1.0476,1.0476,0,0,0-.6767-.2256,1.0726,1.0726,0,0,0-.8272.417,3.4779,3.4779,0,0,0-.67,1.7842A16.5058,16.5058,0,0,0,435.5635,205.0137Z" transform="translate(0.5 0.5)"/><path class="a5b1189f-4259-4ebe-be11-ffd9cb18fc4f" d="M446.7949,200.1533l-.5332,1.1621h-2.789l-.6084,1.2442a4.8873,4.8873,0,0,1,2.8711,1.3467,3.0293,3.0293,0,0,1,.9091,2.1875,3.1005,3.1005,0,0,1-.2978,1.3535,3.6521,3.6521,0,0,1-.7481,1.0595,3.8017,3.8017,0,0,1-1.0048.7041,3.6989,3.6989,0,0,1-1.6133.376,2.0524,2.0524,0,0,1-1.2139-.2832.7933.7933,0,0,1-.3789-.626.4505.4505,0,0,1,.1572-.3388.5572.5572,0,0,1,.3965-.1465.8193.8193,0,0,1,.3106.0547,2.892,2.892,0,0,1,.455.28,1.8048,1.8048,0,0,0,1.0391.3555,1.9291,1.9291,0,0,0,1.4043-.6045,2.0075,2.0075,0,0,0,.6055-1.4736,2.5894,2.5894,0,0,0-.54-1.5693,3.4808,3.4808,0,0,0-1.49-1.1241,6.0591,6.0591,0,0,0-2.03-.3554l1.7774-3.6026Z" transform="translate(0.5 0.5)"/><path class="a5b1189f-4259-4ebe-be11-ffd9cb18fc4f" d="M455.7021,202.9766v2.1328h-.2255a2.7729,2.7729,0,0,0-.667-1.3672,1.4986,1.4986,0,0,0-1.0352-.3623,1.14,1.14,0,0,0-.7724.2529.7334.7334,0,0,0-.294.5606,1.0154,1.0154,0,0,0,.2188.6562,2.4274,2.4274,0,0,0,.8613.5947l.998.4854a2.0291,2.0291,0,0,1,1.3877,1.7842,1.6839,1.6839,0,0,1-.6465,1.3769,2.2339,2.2339,0,0,1-1.4453.5235,4.9738,4.9738,0,0,1-1.3125-.2051,1.322,1.322,0,0,0-.3691-.0684.2711.2711,0,0,0-.2461.1778h-.2256v-2.2354h.2256a2.5392,2.5392,0,0,0,.7314,1.4424,1.7645,1.7645,0,0,0,1.21.4853,1.0864,1.0864,0,0,0,.7686-.2763.8816.8816,0,0,0,.2978-.667,1.0579,1.0579,0,0,0-.332-.793,5.8046,5.8046,0,0,0-1.3223-.8135,3.9115,3.9115,0,0,1-1.2988-.8886,1.54,1.54,0,0,1-.3076-.9844,1.7392,1.7392,0,0,1,.5293-1.292,1.8747,1.8747,0,0,1,1.3711-.52,3.237,3.237,0,0,1,.8955.1572,2.11,2.11,0,0,0,.4648.1025.2715.2715,0,0,0,.1709-.0478.6609.6609,0,0,0,.1436-.2119Z" transform="translate(0.5 0.5)"/><path class="a5b1189f-4259-4ebe-be11-ffd9cb18fc4f" d="M456.9805,199.9893v-.2872a6.3944,6.3944,0,0,1,1.7295,1.21,7.0059,7.0059,0,0,1,1.5107,2.3408,7.5252,7.5252,0,0,1,.5332,2.8,7.3994,7.3994,0,0,1-1.043,3.8662,5.9955,5.9955,0,0,1-2.73,2.4981v-.2529a4.033,4.033,0,0,0,1.3838-1.2745,5.7458,5.7458,0,0,0,.8066-2.0449,12.406,12.406,0,0,0,.2637-2.5869,14.467,14.467,0,0,0-.2256-2.6592,6.64,6.64,0,0,0-.4277-1.5107,5.0924,5.0924,0,0,0-.68-1.0938A5.2408,5.2408,0,0,0,456.9805,199.9893Z" transform="translate(0.5 0.5)"/></g><g class="a698d951-1d47-4238-80db-d53f6bf84c3f"><path class="a83282bb-de8f-4f99-979d-cbd05e53d10b" d="M46.4849,233.6191v-.2168h.2988a.7892.7892,0,0,0,.7148-.3222,1.8358,1.8358,0,0,0,.1289-.8672V227.08a1.64,1.64,0,0,0-.164-.9317.8611.8611,0,0,0-.68-.2578h-.2988v-.2168h3.2343a7.0639,7.0639,0,0,1,2.71.4043,3.2245,3.2245,0,0,1,1.4941,1.3477,4.1569,4.1569,0,0,1,.5655,2.18,3.976,3.976,0,0,1-1.0078,2.7715,4.4334,4.4334,0,0,1-3.4454,1.2421Zm2.2675-.5742a5.9838,5.9838,0,0,0,1.2481.1641,2.9629,2.9629,0,0,0,2.2558-.9551,4.1975,4.1975,0,0,0,0-5.1855,3.0262,3.0262,0,0,0-2.3027-.9493,4.9762,4.9762,0,0,0-1.2012.17Z" transform="translate(0.5 0.5)"/><path class="a83282bb-de8f-4f99-979d-cbd05e53d10b" d="M56.2231,230.2734a2.7568,2.7568,0,0,0,.58,1.875,1.7687,1.7687,0,0,0,1.377.68,1.4937,1.4937,0,0,0,.917-.29,2.1413,2.1413,0,0,0,.6533-.9932l.1816.1172a2.7934,2.7934,0,0,1-.7148,1.4619,1.9087,1.9087,0,0,1-1.4824.6592A2.1649,2.1649,0,0,1,56.08,233.03a2.8843,2.8843,0,0,1-.6885-2.0244,3.061,3.061,0,0,1,.7061-2.1475,2.3025,2.3025,0,0,1,1.7724-.77,1.9815,1.9815,0,0,1,1.4825.5947,2.1806,2.1806,0,0,1,.58,1.5908Zm0-.34h2.4844a2.2965,2.2965,0,0,0-.123-.7266,1.1639,1.1639,0,0,0-.4366-.5156,1.1,1.1,0,0,0-.6064-.1875,1.2088,1.2088,0,0,0-.87.3779A1.64,1.64,0,0,0,56.2231,229.9336Z" transform="translate(0.5 0.5)"/><path class="a83282bb-de8f-4f99-979d-cbd05e53d10b" d="M62.0825,231.6621a1.7631,1.7631,0,0,1-1.02-1.623,1.8315,1.8315,0,0,1,.6006-1.3711,2.1349,2.1349,0,0,1,1.5381-.5742,2.3414,2.3414,0,0,1,1.33.375h1.1368a1.493,1.493,0,0,1,.2929.0146.1.1,0,0,1,.0586.05.3587.3587,0,0,1,.0352.1875.5232.5232,0,0,1-.0293.2109.12.12,0,0,1-.0615.0469,1.2974,1.2974,0,0,1-.2959.0176h-.6973a1.8081,1.8081,0,0,1-.2461,2.3613,2.1746,2.1746,0,0,1-1.541.5332,2.9938,2.9938,0,0,1-.8145-.1172,1.545,1.545,0,0,0-.3486.39.6221.6221,0,0,0-.0908.2842.2713.2713,0,0,0,.0967.1933.7088.7088,0,0,0,.3779.1348q.1641.0234.82.041,1.207.0293,1.5645.082a1.4711,1.4711,0,0,1,.87.4043,1.104,1.104,0,0,1,.3252.8086,1.6947,1.6947,0,0,1-.6211,1.2422,3.3494,3.3494,0,0,1-2.3848.8555,3.415,3.415,0,0,1-1.91-.51q-.4394-.2929-.4394-.6094a.6708.6708,0,0,1,.0644-.2812,3.2842,3.2842,0,0,1,.41-.6035q.041-.0528.5977-.6328a1.8489,1.8489,0,0,1-.4307-.3252.48.48,0,0,1-.126-.3252.9649.9649,0,0,1,.167-.4805A3.8458,3.8458,0,0,1,62.0825,231.6621Zm-.0586,1.957a2.89,2.89,0,0,0-.416.5567,1.0045,1.0045,0,0,0-.1406.4746.5935.5935,0,0,0,.34.4922,3.2375,3.2375,0,0,0,1.6934.3633,2.62,2.62,0,0,0,1.5557-.3721,1.0226,1.0226,0,0,0,.5009-.794.4439.4439,0,0,0-.2988-.4335,3.9111,3.9111,0,0,0-1.207-.1524A19.28,19.28,0,0,1,62.0239,233.6191Zm1.0782-5.2441a.9151.9151,0,0,0-.7266.3457,1.614,1.614,0,0,0-.293,1.0606,2.2818,2.2818,0,0,0,.3985,1.4355.9439.9439,0,0,0,.7734.3867.9228.9228,0,0,0,.7324-.334,1.5868,1.5868,0,0,0,.2871-1.0488,2.3462,2.3462,0,0,0-.4043-1.459A.9281.9281,0,0,0,63.1021,228.375Z" transform="translate(0.5 0.5)"/><path class="a83282bb-de8f-4f99-979d-cbd05e53d10b" d="M68.2173,228.0938v1.207q.6738-1.2071,1.3828-1.207a.7523.7523,0,0,1,.5332.1962.6039.6039,0,0,1,.2109.4541.5365.5365,0,0,1-.1523.3868.4874.4874,0,0,1-.3633.1582.7736.7736,0,0,1-.46-.2022.7591.7591,0,0,0-.378-.2021.3485.3485,0,0,0-.2285.1172,2.8178,2.8178,0,0,0-.5449.791v2.5722a1.5932,1.5932,0,0,0,.1113.6739.6071.6071,0,0,0,.27.2636,1.1845,1.1845,0,0,0,.5567.1055v.2109H66.4067v-.2109a1.1412,1.1412,0,0,0,.6094-.1289.5.5,0,0,0,.2051-.2988,3.0172,3.0172,0,0,0,.0293-.5684v-2.08a8.6413,8.6413,0,0,0-.0381-1.1162.4374.4374,0,0,0-.1406-.2607.3951.3951,0,0,0-.2549-.0821,1.159,1.159,0,0,0-.41.0879l-.0586-.2109,1.6231-.6562Z" transform="translate(0.5 0.5)"/><path class="a83282bb-de8f-4f99-979d-cbd05e53d10b" d="M71.5454,230.2734a2.7568,2.7568,0,0,0,.58,1.875,1.7687,1.7687,0,0,0,1.3769.68,1.4933,1.4933,0,0,0,.917-.29,2.1407,2.1407,0,0,0,.6534-.9932l.1816.1172a2.7934,2.7934,0,0,1-.7148,1.4619,1.9089,1.9089,0,0,1-1.4825.6592,2.1647,2.1647,0,0,1-1.6552-.7529,2.8843,2.8843,0,0,1-.6885-2.0244,3.061,3.061,0,0,1,.706-2.1475,2.3027,2.3027,0,0,1,1.7725-.77,1.9811,1.9811,0,0,1,1.4824.5947,2.1807,2.1807,0,0,1,.58,1.5908Zm0-.34H74.03a2.2959,2.2959,0,0,0-.1231-.7266,1.1631,1.1631,0,0,0-.4365-.5156,1.1,1.1,0,0,0-.6064-.1875,1.2088,1.2088,0,0,0-.87.3779A1.64,1.64,0,0,0,71.5454,229.9336Z" transform="translate(0.5 0.5)"/><path class="a83282bb-de8f-4f99-979d-cbd05e53d10b" d="M76.8716,230.2734a2.7563,2.7563,0,0,0,.58,1.875,1.7687,1.7687,0,0,0,1.3769.68,1.4935,1.4935,0,0,0,.917-.29,2.1406,2.1406,0,0,0,.6533-.9932l.1817.1172a2.7936,2.7936,0,0,1-.7149,1.4619,1.9086,1.9086,0,0,1-1.4824.6592,2.1651,2.1651,0,0,1-1.6553-.7529,2.8842,2.8842,0,0,1-.6884-2.0244,3.061,3.061,0,0,1,.706-2.1475,2.3026,2.3026,0,0,1,1.7725-.77,1.9813,1.9813,0,0,1,1.4824.5947,2.1807,2.1807,0,0,1,.58,1.5908Zm0-.34H79.356a2.2988,2.2988,0,0,0-.1231-.7266,1.1637,1.1637,0,0,0-.4365-.5156,1.1007,1.1007,0,0,0-.6065-.1875,1.209,1.209,0,0,0-.87.3779A1.6406,1.6406,0,0,0,76.8716,229.9336Z" transform="translate(0.5 0.5)"/><path class="a83282bb-de8f-4f99-979d-cbd05e53d10b" d="M86.1411,225.2871v7.1192a1.9445,1.9445,0,0,0,.0733.6679.5188.5188,0,0,0,.2255.249,1.2961,1.2961,0,0,0,.5684.085v.2109H84.3774v-.2109a1.1364,1.1364,0,0,0,.5039-.0762.5072.5072,0,0,0,.211-.2519,1.9612,1.9612,0,0,0,.0762-.6738v-4.875a8.4335,8.4335,0,0,0-.0411-1.1163.4877.4877,0,0,0-.1318-.2841.3477.3477,0,0,0-.2314-.0762,1.0943,1.0943,0,0,0-.3868.0937l-.1-.205,1.6-.6563Z" transform="translate(0.5 0.5)"/><path class="a83282bb-de8f-4f99-979d-cbd05e53d10b" d="M89.481,228.0938v4.3125a1.9758,1.9758,0,0,0,.0732.6708.514.514,0,0,0,.2168.2491,1.16,1.16,0,0,0,.5244.082v.2109H87.688v-.2109a1.213,1.213,0,0,0,.5273-.0762.5215.5215,0,0,0,.2139-.2519,1.8947,1.8947,0,0,0,.0791-.6738v-2.0684a7.3249,7.3249,0,0,0-.0527-1.1309.46.46,0,0,0-.1289-.2607.3642.3642,0,0,0-.24-.0733,1.173,1.173,0,0,0-.3984.0879l-.082-.2109,1.6171-.6562Zm-.4864-2.8067a.59.59,0,0,1,.5918.5918.58.58,0,0,1-.1728.4219.5659.5659,0,0,1-.419.1758.5948.5948,0,1,1,0-1.1895Z" transform="translate(0.5 0.5)"/><path class="a83282bb-de8f-4f99-979d-cbd05e53d10b" d="M94.4321,228.0938v1.8281h-.1933a2.3761,2.3761,0,0,0-.5713-1.1719,1.2848,1.2848,0,0,0-.8877-.31.9789.9789,0,0,0-.6621.2168.6287.6287,0,0,0-.252.48.8723.8723,0,0,0,.1875.5625,2.0848,2.0848,0,0,0,.7383.51l.8555.416a1.7388,1.7388,0,0,1,1.1894,1.5293,1.4447,1.4447,0,0,1-.5537,1.1807,1.92,1.92,0,0,1-1.2392.4482,4.2611,4.2611,0,0,1-1.125-.1758,1.1459,1.1459,0,0,0-.3164-.0586.2331.2331,0,0,0-.211.1524h-.1933v-1.916h.1933a2.1813,2.1813,0,0,0,.627,1.2363,1.5131,1.5131,0,0,0,1.0371.416.929.929,0,0,0,.6592-.2373.7528.7528,0,0,0,.2548-.5713.9092.9092,0,0,0-.2841-.68,4.9633,4.9633,0,0,0-1.1338-.6972,3.36,3.36,0,0,1-1.1133-.7618,1.32,1.32,0,0,1-.2637-.8437,1.4883,1.4883,0,0,1,.4541-1.1074,1.6069,1.6069,0,0,1,1.1748-.4453,2.7622,2.7622,0,0,1,.7676.1347,1.8126,1.8126,0,0,0,.3984.0879.2335.2335,0,0,0,.1465-.041.563.563,0,0,0,.1231-.1816Z" transform="translate(0.5 0.5)"/><path class="a83282bb-de8f-4f99-979d-cbd05e53d10b" d="M97.1919,226.4883v1.7637h1.2539v.41H97.1919v3.48a1.169,1.169,0,0,0,.1494.7031.4745.4745,0,0,0,.3838.1816.6711.6711,0,0,0,.375-.12.7721.7721,0,0,0,.2812-.3545H98.61a1.8394,1.8394,0,0,1-.58.8643,1.2513,1.2513,0,0,1-.7735.29,1.04,1.04,0,0,1-.5273-.1494.9037.9037,0,0,1-.3809-.4277,2.2467,2.2467,0,0,1-.123-.8584v-3.6094h-.85v-.1933a2.2265,2.2265,0,0,0,.6592-.4366,3.471,3.471,0,0,0,.6006-.73,6.5735,6.5735,0,0,0,.375-.8144Z" transform="translate(0.5 0.5)"/><path class="a83282bb-de8f-4f99-979d-cbd05e53d10b" d="M104.5923,228.0938a2.3783,2.3783,0,0,1,1.957.9257,2.8427,2.8427,0,0,1,.627,1.8164,3.4214,3.4214,0,0,1-.3457,1.459,2.4553,2.4553,0,0,1-2.3028,1.4883,2.2743,2.2743,0,0,1-1.9277-.9668,2.9955,2.9955,0,0,1-.6035-1.8281,3.2441,3.2441,0,0,1,.3662-1.4678,2.5,2.5,0,0,1,.9639-1.0781A2.4729,2.4729,0,0,1,104.5923,228.0938Zm-.1817.3808a1.2215,1.2215,0,0,0-.624.1846,1.2935,1.2935,0,0,0-.5068.6474,3.1159,3.1159,0,0,0-.1934,1.19,4.1448,4.1448,0,0,0,.4658,2.0215,1.3868,1.3868,0,0,0,1.2276.85,1.144,1.144,0,0,0,.9375-.4688,2.6643,2.6643,0,0,0,.3691-1.6113,3.6735,3.6735,0,0,0-.6152-2.25A1.268,1.268,0,0,0,104.4106,228.4746Z" transform="translate(0.5 0.5)"/><path class="a83282bb-de8f-4f99-979d-cbd05e53d10b" d="M110.0649,228.6738v3.5274a1.7228,1.7228,0,0,0,.1641.9492.7192.7192,0,0,0,.58.2578h.4863v.2109H108.09v-.2109h.24a.81.81,0,0,0,.4277-.1172.6092.6092,0,0,0,.2666-.3164,2.6486,2.6486,0,0,0,.0732-.7734v-3.5274h-1.0429v-.4218h1.0429V227.9a3.2213,3.2213,0,0,1,.2579-1.3594,2.11,2.11,0,0,1,.788-.8994,2.15,2.15,0,0,1,1.1924-.3428,1.8083,1.8083,0,0,1,1.1309.3985.7489.7489,0,0,1,.34.5918.4686.4686,0,0,1-.1523.331.4556.4556,0,0,1-.3281.1553.5266.5266,0,0,1-.2842-.0967,1.5444,1.5444,0,0,1-.3662-.416,1.4741,1.4741,0,0,0-.3985-.4307.7584.7584,0,0,0-.4043-.1113.73.73,0,0,0-.457.1436.8039.8039,0,0,0-.2695.4453,8.3556,8.3556,0,0,0-.0821,1.5556v.3868h1.3829v.4218Z" transform="translate(0.5 0.5)"/><path class="a83282bb-de8f-4f99-979d-cbd05e53d10b" d="M116.8091,225.2871v7.1192a1.9478,1.9478,0,0,0,.0732.6679.519.519,0,0,0,.2256.249,1.2958,1.2958,0,0,0,.5684.085v.2109h-2.6309v-.2109a1.1364,1.1364,0,0,0,.5039-.0762.5072.5072,0,0,0,.211-.2519,1.9645,1.9645,0,0,0,.0761-.6738v-4.875a8.4413,8.4413,0,0,0-.041-1.1163.4883.4883,0,0,0-.1318-.2841.3479.3479,0,0,0-.2315-.0762,1.0943,1.0943,0,0,0-.3867.0937l-.1-.205,1.6-.6563Z" transform="translate(0.5 0.5)"/><path class="a83282bb-de8f-4f99-979d-cbd05e53d10b" d="M119.2,230.2734a2.7568,2.7568,0,0,0,.58,1.875,1.7687,1.7687,0,0,0,1.3769.68,1.4933,1.4933,0,0,0,.917-.29,2.1407,2.1407,0,0,0,.6534-.9932l.1816.1172a2.7928,2.7928,0,0,1-.7149,1.4619,1.9086,1.9086,0,0,1-1.4824.6592,2.1647,2.1647,0,0,1-1.6552-.7529,2.8843,2.8843,0,0,1-.6885-2.0244,3.061,3.061,0,0,1,.706-2.1475,2.3027,2.3027,0,0,1,1.7725-.77,1.9811,1.9811,0,0,1,1.4824.5947,2.1807,2.1807,0,0,1,.58,1.5908Zm0-.34h2.4844a2.2959,2.2959,0,0,0-.1231-.7266,1.1631,1.1631,0,0,0-.4365-.5156,1.1,1.1,0,0,0-.6064-.1875,1.209,1.209,0,0,0-.87.3779A1.6406,1.6406,0,0,0,119.2,229.9336Z" transform="translate(0.5 0.5)"/><path class="a83282bb-de8f-4f99-979d-cbd05e53d10b" d="M125.188,229.2305a2.5335,2.5335,0,0,1,1.7988-1.1367,1.2919,1.2919,0,0,1,.7559.22,1.4723,1.4723,0,0,1,.5039.7236,3.3487,3.3487,0,0,1,.1289,1.0781v2.2911a1.9305,1.9305,0,0,0,.082.6914.4817.4817,0,0,0,.208.2285,1.1789,1.1789,0,0,0,.53.082v.2109h-2.6543v-.2109h.1113a.893.893,0,0,0,.5244-.1143.5984.5984,0,0,0,.2081-.3369,3.4285,3.4285,0,0,0,.0234-.5507V230.209a2.232,2.232,0,0,0-.19-1.0635.68.68,0,0,0-.6416-.331,1.9318,1.9318,0,0,0-1.3887.7617v2.83a2.0257,2.0257,0,0,0,.0644.6738.5421.5421,0,0,0,.2256.249,1.3975,1.3975,0,0,0,.583.0791v.2109h-2.6543v-.2109h.1172a.63.63,0,0,0,.5537-.208,1.5175,1.5175,0,0,0,.1436-.7939v-1.9922a8.6554,8.6554,0,0,0-.044-1.1778.505.505,0,0,0-.1347-.2871.3662.3662,0,0,0-.2432-.0762,1.1264,1.1264,0,0,0-.3926.0879l-.0879-.2109,1.6172-.6562h.252Z" transform="translate(0.5 0.5)"/><path class="a83282bb-de8f-4f99-979d-cbd05e53d10b" d="M131.0591,231.6621a1.7627,1.7627,0,0,1-1.0195-1.623,1.8314,1.8314,0,0,1,.6-1.3711,2.1349,2.1349,0,0,1,1.5381-.5742,2.3417,2.3417,0,0,1,1.33.375h1.1367a1.4944,1.4944,0,0,1,.293.0146.1.1,0,0,1,.0586.05.36.36,0,0,1,.0351.1875.5214.5214,0,0,1-.0293.2109.12.12,0,0,1-.0615.0469,1.2968,1.2968,0,0,1-.2959.0176h-.6972a1.8081,1.8081,0,0,1-.2461,2.3613,2.1748,2.1748,0,0,1-1.5411.5332,2.9925,2.9925,0,0,1-.8144-.1172,1.543,1.543,0,0,0-.3486.39.6224.6224,0,0,0-.0909.2842.2717.2717,0,0,0,.0967.1933.7091.7091,0,0,0,.3779.1348q.1641.0234.82.041,1.2069.0293,1.5644.082a1.4708,1.4708,0,0,1,.87.4043,1.104,1.104,0,0,1,.3252.8086,1.6943,1.6943,0,0,1-.6211,1.2422,3.3491,3.3491,0,0,1-2.3847.8555,3.4147,3.4147,0,0,1-1.91-.51q-.44-.2929-.4394-.6094a.6693.6693,0,0,1,.0644-.2812,3.2739,3.2739,0,0,1,.41-.6035q.041-.0528.5976-.6328a1.8479,1.8479,0,0,1-.4306-.3252.48.48,0,0,1-.126-.3252.9639.9639,0,0,1,.167-.4805A3.843,3.843,0,0,1,131.0591,231.6621ZM131,233.6191a2.886,2.886,0,0,0-.416.5567,1.0036,1.0036,0,0,0-.1407.4746.5934.5934,0,0,0,.34.4922,3.2373,3.2373,0,0,0,1.6934.3633,2.6191,2.6191,0,0,0,1.5556-.3721,1.0225,1.0225,0,0,0,.501-.794.4439.4439,0,0,0-.2988-.4335,3.9119,3.9119,0,0,0-1.2071-.1524A19.2754,19.2754,0,0,1,131,233.6191Zm1.0781-5.2441a.9151.9151,0,0,0-.7265.3457,1.6134,1.6134,0,0,0-.293,1.0606,2.2824,2.2824,0,0,0,.3984,1.4355.9441.9441,0,0,0,.7735.3867.9229.9229,0,0,0,.7324-.334,1.5868,1.5868,0,0,0,.2871-1.0488,2.3469,2.3469,0,0,0-.4043-1.459A.9283.9283,0,0,0,132.0786,228.375Z" transform="translate(0.5 0.5)"/><path class="a83282bb-de8f-4f99-979d-cbd05e53d10b" d="M137.1821,226.4883v1.7637h1.2539v.41h-1.2539v3.48a1.169,1.169,0,0,0,.1494.7031.4748.4748,0,0,0,.3838.1816.6711.6711,0,0,0,.375-.12.7723.7723,0,0,0,.2813-.3545H138.6a1.8387,1.8387,0,0,1-.58.8643,1.2512,1.2512,0,0,1-.7734.29,1.04,1.04,0,0,1-.5274-.1494.9035.9035,0,0,1-.3808-.4277,2.2444,2.2444,0,0,1-.1231-.8584v-3.6094h-.85v-.1933a2.2252,2.2252,0,0,0,.6592-.4366,3.471,3.471,0,0,0,.6006-.73,6.5735,6.5735,0,0,0,.375-.8144Z" transform="translate(0.5 0.5)"/><path class="a83282bb-de8f-4f99-979d-cbd05e53d10b" d="M140.5337,225.2871v3.9258a4.5146,4.5146,0,0,1,1.0312-.917,1.612,1.612,0,0,1,.7618-.2021,1.251,1.251,0,0,1,.7851.2519,1.4872,1.4872,0,0,1,.4863.791,5.5973,5.5973,0,0,1,.1114,1.3711v1.8985a1.9838,1.9838,0,0,0,.082.6972.4581.4581,0,0,0,.1992.2227,1.122,1.122,0,0,0,.5156.082v.2109H141.87v-.2109h.1231a.8783.8783,0,0,0,.5215-.1143.6056.6056,0,0,0,.205-.3369,4.6262,4.6262,0,0,0,.0176-.5507v-1.8985a4.5638,4.5638,0,0,0-.0908-1.1543.7785.7785,0,0,0-.29-.4131.8244.8244,0,0,0-.4805-.1377,1.3556,1.3556,0,0,0-.5977.1524,2.85,2.85,0,0,0-.7441.6152v2.836a2.2089,2.2089,0,0,0,.0615.6855.5008.5008,0,0,0,.2285.2256,1.3066,1.3066,0,0,0,.5772.0908v.2109h-2.66v-.2109a1.1878,1.1878,0,0,0,.5625-.1113.4186.4186,0,0,0,.1875-.2227,2.0225,2.0225,0,0,0,.07-.6679v-4.8575a8.1017,8.1017,0,0,0-.0439-1.1308.5037.5037,0,0,0-.1348-.2871.3659.3659,0,0,0-.2431-.0762,1.4292,1.4292,0,0,0-.3985.0937l-.082-.205,1.6055-.6563Z" transform="translate(0.5 0.5)"/><path class="a83282bb-de8f-4f99-979d-cbd05e53d10b" d="M152.7915,225.6738l-.457.9961h-2.3907l-.5214,1.0664a4.1849,4.1849,0,0,1,2.4609,1.1543,2.5945,2.5945,0,0,1,.7793,1.875,2.6555,2.6555,0,0,1-.2549,1.16,3.13,3.13,0,0,1-.6416.9082,3.2655,3.2655,0,0,1-.8613.6035,3.1725,3.1725,0,0,1-1.3828.3223,1.7549,1.7549,0,0,1-1.04-.2432.6791.6791,0,0,1-.3252-.5361.3871.3871,0,0,1,.1348-.29.4779.4779,0,0,1,.34-.1259.7.7,0,0,1,.2666.0468,2.4791,2.4791,0,0,1,.39.24,1.55,1.55,0,0,0,.8906.3047,1.6518,1.6518,0,0,0,1.2041-.5186,1.7185,1.7185,0,0,0,.5186-1.2627,2.2131,2.2131,0,0,0-.4629-1.3447,2.9711,2.9711,0,0,0-1.2774-.9639,5.1826,5.1826,0,0,0-1.74-.3047l1.5234-3.0879Z" transform="translate(0.5 0.5)"/><path class="a83282bb-de8f-4f99-979d-cbd05e53d10b" d="M154.0161,229.6934a6.052,6.052,0,0,1,.41-2.3409,3.2755,3.2755,0,0,1,1.09-1.4619,1.84,1.84,0,0,1,1.09-.3808,2.0736,2.0736,0,0,1,1.6406.9316,4.9278,4.9278,0,0,1,.9082,3.1289,6.1662,6.1662,0,0,1-.3985,2.35,3.1077,3.1077,0,0,1-1.0166,1.4033,2.08,2.08,0,0,1-1.1923.4366,2.1936,2.1936,0,0,1-1.8926-1.3418A5.458,5.458,0,0,1,154.0161,229.6934Zm1.1485.1464a7.4755,7.4755,0,0,0,.4042,2.6778q.334.873.9961.873a1.04,1.04,0,0,0,.6563-.2842,1.8084,1.8084,0,0,0,.5156-.9521,11.5791,11.5791,0,0,0,.27-2.8418,7.78,7.78,0,0,0-.2812-2.2676,2.0125,2.0125,0,0,0-.5449-.9551.8961.8961,0,0,0-.58-.1933.9213.9213,0,0,0-.709.3574,2.9862,2.9862,0,0,0-.5742,1.5293A14.2111,14.2111,0,0,0,155.1646,229.84Z" transform="translate(0.5 0.5)"/></g><g class="a698d951-1d47-4238-80db-d53f6bf84c3f"><path class="a83282bb-de8f-4f99-979d-cbd05e53d10b" d="M307.1953,233.6191v-.2168h.2988a.7893.7893,0,0,0,.7149-.3222,1.8371,1.8371,0,0,0,.1289-.8672V227.08a1.64,1.64,0,0,0-.1641-.9317.861.861,0,0,0-.68-.2578h-.2988v-.2168H310.43a7.0633,7.0633,0,0,1,2.71.4043,3.2248,3.2248,0,0,1,1.4942,1.3477,4.1578,4.1578,0,0,1,.5654,2.18,3.9756,3.9756,0,0,1-1.0078,2.7715,4.4332,4.4332,0,0,1-3.4453,1.2421Zm2.2676-.5742a5.983,5.983,0,0,0,1.248.1641,2.9631,2.9631,0,0,0,2.2559-.9551,4.1975,4.1975,0,0,0,0-5.1855,3.0263,3.0263,0,0,0-2.3027-.9493,4.9749,4.9749,0,0,0-1.2012.17Z" transform="translate(0.5 0.5)"/><path class="a83282bb-de8f-4f99-979d-cbd05e53d10b" d="M316.9336,230.2734a2.7563,2.7563,0,0,0,.58,1.875,1.7687,1.7687,0,0,0,1.3769.68,1.4933,1.4933,0,0,0,.917-.29,2.14,2.14,0,0,0,.6533-.9932l.1817.1172a2.7936,2.7936,0,0,1-.7149,1.4619,1.9086,1.9086,0,0,1-1.4824.6592,2.1651,2.1651,0,0,1-1.6553-.7529,2.8847,2.8847,0,0,1-.6884-2.0244,3.061,3.061,0,0,1,.706-2.1475,2.3026,2.3026,0,0,1,1.7725-.77,1.9813,1.9813,0,0,1,1.4824.5947,2.1807,2.1807,0,0,1,.58,1.5908Zm0-.34h2.4844a2.2988,2.2988,0,0,0-.1231-.7266,1.1631,1.1631,0,0,0-.4365-.5156,1.1006,1.1006,0,0,0-.6064-.1875,1.209,1.209,0,0,0-.87.3779A1.6406,1.6406,0,0,0,316.9336,229.9336Z" transform="translate(0.5 0.5)"/><path class="a83282bb-de8f-4f99-979d-cbd05e53d10b" d="M322.793,231.6621a1.763,1.763,0,0,1-1.02-1.623,1.8315,1.8315,0,0,1,.6006-1.3711,2.1349,2.1349,0,0,1,1.5381-.5742,2.3417,2.3417,0,0,1,1.33.375h1.1367a1.4944,1.4944,0,0,1,.293.0146.1.1,0,0,1,.0586.05.36.36,0,0,1,.0351.1875.5214.5214,0,0,1-.0293.2109.12.12,0,0,1-.0615.0469,1.2968,1.2968,0,0,1-.2959.0176h-.6973a1.8078,1.8078,0,0,1-.2461,2.3613,2.1744,2.1744,0,0,1-1.541.5332,2.9925,2.9925,0,0,1-.8144-.1172,1.5457,1.5457,0,0,0-.3487.39.6233.6233,0,0,0-.0908.2842.2717.2717,0,0,0,.0967.1933.7091.7091,0,0,0,.3779.1348q.1641.0234.82.041,1.2071.0293,1.5645.082a1.4708,1.4708,0,0,1,.87.4043,1.104,1.104,0,0,1,.3252.8086,1.6943,1.6943,0,0,1-.6211,1.2422,3.3493,3.3493,0,0,1-2.3847.8555,3.4145,3.4145,0,0,1-1.91-.51q-.4395-.2929-.4395-.6094a.6694.6694,0,0,1,.0645-.2812,3.2739,3.2739,0,0,1,.41-.6035q.0409-.0528.5976-.6328a1.8511,1.8511,0,0,1-.4307-.3252.48.48,0,0,1-.1259-.3252.9639.9639,0,0,1,.167-.4805A3.843,3.843,0,0,1,322.793,231.6621Zm-.0586,1.957a2.886,2.886,0,0,0-.416.5567,1.0036,1.0036,0,0,0-.1407.4746.5934.5934,0,0,0,.34.4922,3.2371,3.2371,0,0,0,1.6933.3633,2.6193,2.6193,0,0,0,1.5557-.3721,1.0225,1.0225,0,0,0,.501-.794.4439.4439,0,0,0-.2988-.4335,3.9119,3.9119,0,0,0-1.2071-.1524A19.2754,19.2754,0,0,1,322.7344,233.6191Zm1.0781-5.2441a.9153.9153,0,0,0-.7266.3457,1.614,1.614,0,0,0-.2929,1.0606,2.2824,2.2824,0,0,0,.3984,1.4355.9439.9439,0,0,0,.7734.3867.923.923,0,0,0,.7325-.334,1.5868,1.5868,0,0,0,.2871-1.0488,2.3469,2.3469,0,0,0-.4043-1.459A.9283.9283,0,0,0,323.8125,228.375Z" transform="translate(0.5 0.5)"/><path class="a83282bb-de8f-4f99-979d-cbd05e53d10b" d="M328.9277,228.0938v1.207q.6739-1.2071,1.3828-1.207a.7525.7525,0,0,1,.5333.1962.6039.6039,0,0,1,.2109.4541.5366.5366,0,0,1-.1524.3868.4871.4871,0,0,1-.3632.1582.7736.7736,0,0,1-.46-.2022.7589.7589,0,0,0-.3779-.2021.3485.3485,0,0,0-.2285.1172,2.8178,2.8178,0,0,0-.545.791v2.5722a1.5914,1.5914,0,0,0,.1114.6739.6066.6066,0,0,0,.2695.2636,1.1838,1.1838,0,0,0,.5566.1055v.2109h-2.748v-.2109a1.1414,1.1414,0,0,0,.6094-.1289.5.5,0,0,0,.205-.2988,3.008,3.008,0,0,0,.0293-.5684v-2.08a8.6707,8.6707,0,0,0-.038-1.1162.437.437,0,0,0-.1407-.2607.3949.3949,0,0,0-.2549-.0821,1.1585,1.1585,0,0,0-.41.0879l-.0586-.2109,1.623-.6562Z" transform="translate(0.5 0.5)"/><path class="a83282bb-de8f-4f99-979d-cbd05e53d10b" d="M332.2559,230.2734a2.7568,2.7568,0,0,0,.58,1.875,1.7689,1.7689,0,0,0,1.377.68,1.4935,1.4935,0,0,0,.917-.29,2.1413,2.1413,0,0,0,.6533-.9932l.1816.1172a2.7934,2.7934,0,0,1-.7148,1.4619,1.9087,1.9087,0,0,1-1.4824.6592,2.1649,2.1649,0,0,1-1.6553-.7529,2.8843,2.8843,0,0,1-.6885-2.0244,3.061,3.061,0,0,1,.7061-2.1475,2.3025,2.3025,0,0,1,1.7724-.77,1.9815,1.9815,0,0,1,1.4825.5947,2.1806,2.1806,0,0,1,.58,1.5908Zm0-.34H334.74a2.2965,2.2965,0,0,0-.123-.7266,1.1644,1.1644,0,0,0-.4365-.5156,1.1007,1.1007,0,0,0-.6065-.1875,1.209,1.209,0,0,0-.87.3779A1.64,1.64,0,0,0,332.2559,229.9336Z" transform="translate(0.5 0.5)"/><path class="a83282bb-de8f-4f99-979d-cbd05e53d10b" d="M337.582,230.2734a2.7568,2.7568,0,0,0,.58,1.875,1.7687,1.7687,0,0,0,1.377.68,1.4937,1.4937,0,0,0,.917-.29,2.1413,2.1413,0,0,0,.6533-.9932l.1816.1172a2.7934,2.7934,0,0,1-.7148,1.4619,1.9089,1.9089,0,0,1-1.4824.6592,2.1649,2.1649,0,0,1-1.6553-.7529,2.8843,2.8843,0,0,1-.6885-2.0244,3.061,3.061,0,0,1,.7061-2.1475,2.3025,2.3025,0,0,1,1.7724-.77,1.9811,1.9811,0,0,1,1.4824.5947,2.18,2.18,0,0,1,.58,1.5908Zm0-.34h2.4844a2.2965,2.2965,0,0,0-.123-.7266,1.1639,1.1639,0,0,0-.4366-.5156,1.1,1.1,0,0,0-.6064-.1875,1.2088,1.2088,0,0,0-.87.3779A1.64,1.64,0,0,0,337.582,229.9336Z" transform="translate(0.5 0.5)"/><path class="a83282bb-de8f-4f99-979d-cbd05e53d10b" d="M346.8516,225.2871v7.1192a1.9478,1.9478,0,0,0,.0732.6679.5185.5185,0,0,0,.2256.249,1.2958,1.2958,0,0,0,.5684.085v.2109h-2.6309v-.2109a1.1364,1.1364,0,0,0,.5039-.0762.5071.5071,0,0,0,.2109-.2519,1.9612,1.9612,0,0,0,.0762-.6738v-4.875a8.46,8.46,0,0,0-.041-1.1163.4889.4889,0,0,0-.1318-.2841.3479.3479,0,0,0-.2315-.0762,1.0934,1.0934,0,0,0-.3867.0937l-.1-.205,1.6-.6563Z" transform="translate(0.5 0.5)"/><path class="a83282bb-de8f-4f99-979d-cbd05e53d10b" d="M350.1914,228.0938v4.3125a1.9758,1.9758,0,0,0,.0732.6708.5145.5145,0,0,0,.2168.2491,1.1608,1.1608,0,0,0,.5245.082v.2109h-2.6075v-.2109a1.2135,1.2135,0,0,0,.5274-.0762.5218.5218,0,0,0,.2138-.2519,1.8916,1.8916,0,0,0,.0792-.6738v-2.0684a7.3067,7.3067,0,0,0-.0528-1.1309.459.459,0,0,0-.1289-.2607.3641.3641,0,0,0-.24-.0733,1.1735,1.1735,0,0,0-.3985.0879l-.082-.2109,1.6172-.6562Zm-.4863-2.8067a.59.59,0,0,1,.5918.5918.58.58,0,0,1-.1729.4219.5657.5657,0,0,1-.4189.1758.5948.5948,0,1,1,0-1.1895Z" transform="translate(0.5 0.5)"/><path class="a83282bb-de8f-4f99-979d-cbd05e53d10b" d="M355.1426,228.0938v1.8281h-.1934a2.3744,2.3744,0,0,0-.5713-1.1719,1.2848,1.2848,0,0,0-.8877-.31.9793.9793,0,0,0-.6621.2168.6288.6288,0,0,0-.2519.48.8723.8723,0,0,0,.1875.5625,2.0848,2.0848,0,0,0,.7383.51l.8554.416a1.7387,1.7387,0,0,1,1.19,1.5293,1.445,1.445,0,0,1-.5537,1.1807,1.92,1.92,0,0,1-1.2393.4482,4.2623,4.2623,0,0,1-1.125-.1758,1.1459,1.1459,0,0,0-.3164-.0586.233.233,0,0,0-.2109.1524h-.1934v-1.916h.1934a2.1806,2.1806,0,0,0,.6269,1.2363,1.5131,1.5131,0,0,0,1.0371.416.9287.9287,0,0,0,.6592-.2373.7529.7529,0,0,0,.2549-.5713.9089.9089,0,0,0-.2842-.68,4.9609,4.9609,0,0,0-1.1338-.6972,3.36,3.36,0,0,1-1.1133-.7618,1.32,1.32,0,0,1-.2636-.8437,1.488,1.488,0,0,1,.4541-1.1074,1.6066,1.6066,0,0,1,1.1748-.4453,2.7628,2.7628,0,0,1,.7676.1347,1.8126,1.8126,0,0,0,.3984.0879.2337.2337,0,0,0,.1465-.041.5648.5648,0,0,0,.123-.1816Z" transform="translate(0.5 0.5)"/><path class="a83282bb-de8f-4f99-979d-cbd05e53d10b" d="M357.9023,226.4883v1.7637h1.254v.41h-1.254v3.48a1.1681,1.1681,0,0,0,.1495.7031.4744.4744,0,0,0,.3837.1816.6706.6706,0,0,0,.375-.12.7723.7723,0,0,0,.2813-.3545h.2285a1.8387,1.8387,0,0,1-.58.8643,1.2512,1.2512,0,0,1-.7734.29,1.04,1.04,0,0,1-.5273-.1494.9031.9031,0,0,1-.3809-.4277,2.2463,2.2463,0,0,1-.1231-.8584v-3.6094h-.85v-.1933a2.2252,2.2252,0,0,0,.6592-.4366,3.471,3.471,0,0,0,.6006-.73,6.5735,6.5735,0,0,0,.375-.8144Z" transform="translate(0.5 0.5)"/><path class="a83282bb-de8f-4f99-979d-cbd05e53d10b" d="M365.3027,228.0938a2.3785,2.3785,0,0,1,1.9571.9257,2.8432,2.8432,0,0,1,.6269,1.8164,3.42,3.42,0,0,1-.3457,1.459,2.455,2.455,0,0,1-2.3027,1.4883,2.2745,2.2745,0,0,1-1.9278-.9668,2.9955,2.9955,0,0,1-.6035-1.8281,3.2441,3.2441,0,0,1,.3662-1.4678,2.5017,2.5017,0,0,1,.9639-1.0781A2.4729,2.4729,0,0,1,365.3027,228.0938Zm-.1816.3808a1.2215,1.2215,0,0,0-.624.1846,1.2936,1.2936,0,0,0-.5069.6474,3.116,3.116,0,0,0-.1933,1.19,4.1437,4.1437,0,0,0,.4658,2.0215,1.3866,1.3866,0,0,0,1.2275.85,1.144,1.144,0,0,0,.9375-.4688,2.6642,2.6642,0,0,0,.3692-1.6113,3.6729,3.6729,0,0,0-.6153-2.25A1.2677,1.2677,0,0,0,365.1211,228.4746Z" transform="translate(0.5 0.5)"/><path class="a83282bb-de8f-4f99-979d-cbd05e53d10b" d="M370.7754,228.6738v3.5274a1.7228,1.7228,0,0,0,.1641.9492.719.719,0,0,0,.58.2578h.4864v.2109h-3.2051v-.2109h.24a.81.81,0,0,0,.4278-.1172.61.61,0,0,0,.2666-.3164,2.6486,2.6486,0,0,0,.0732-.7734v-3.5274h-1.043v-.4218h1.043V227.9a3.2213,3.2213,0,0,1,.2578-1.3594,2.1106,2.1106,0,0,1,.7881-.8994,2.1492,2.1492,0,0,1,1.1924-.3428,1.8081,1.8081,0,0,1,1.1308.3985.7488.7488,0,0,1,.34.5918.4684.4684,0,0,1-.1524.331.4553.4553,0,0,1-.3281.1553.5268.5268,0,0,1-.2842-.0967,1.5461,1.5461,0,0,1-.3662-.416,1.4727,1.4727,0,0,0-.3984-.4307.7587.7587,0,0,0-.4043-.1113.73.73,0,0,0-.457.1436.804.804,0,0,0-.27.4453,8.3593,8.3593,0,0,0-.082,1.5556v.3868h1.3828v.4218Z" transform="translate(0.5 0.5)"/><path class="a83282bb-de8f-4f99-979d-cbd05e53d10b" d="M377.52,225.2871v7.1192a1.9445,1.9445,0,0,0,.0733.6679.5185.5185,0,0,0,.2256.249,1.2952,1.2952,0,0,0,.5683.085v.2109h-2.6308v-.2109a1.1367,1.1367,0,0,0,.5039-.0762.5076.5076,0,0,0,.2109-.2519,1.9612,1.9612,0,0,0,.0762-.6738v-4.875a8.46,8.46,0,0,0-.041-1.1163.4883.4883,0,0,0-.1319-.2841.3477.3477,0,0,0-.2314-.0762,1.0934,1.0934,0,0,0-.3867.0937l-.1-.205,1.6-.6563Z" transform="translate(0.5 0.5)"/><path class="a83282bb-de8f-4f99-979d-cbd05e53d10b" d="M379.91,230.2734a2.7568,2.7568,0,0,0,.58,1.875,1.7689,1.7689,0,0,0,1.377.68,1.4935,1.4935,0,0,0,.917-.29,2.1413,2.1413,0,0,0,.6533-.9932l.1816.1172a2.7934,2.7934,0,0,1-.7148,1.4619,1.9087,1.9087,0,0,1-1.4824.6592,2.1649,2.1649,0,0,1-1.6553-.7529,2.8843,2.8843,0,0,1-.6885-2.0244,3.061,3.061,0,0,1,.7061-2.1475,2.3025,2.3025,0,0,1,1.7724-.77,1.9815,1.9815,0,0,1,1.4825.5947,2.1806,2.1806,0,0,1,.58,1.5908Zm0-.34h2.4843a2.2965,2.2965,0,0,0-.123-.7266,1.1644,1.1644,0,0,0-.4365-.5156,1.1007,1.1007,0,0,0-.6065-.1875,1.209,1.209,0,0,0-.87.3779A1.64,1.64,0,0,0,379.91,229.9336Z" transform="translate(0.5 0.5)"/><path class="a83282bb-de8f-4f99-979d-cbd05e53d10b" d="M385.8984,229.2305a2.5336,2.5336,0,0,1,1.7989-1.1367,1.2916,1.2916,0,0,1,.7558.22,1.4716,1.4716,0,0,1,.5039.7236,3.3459,3.3459,0,0,1,.1289,1.0781v2.2911a1.93,1.93,0,0,0,.0821.6914.4812.4812,0,0,0,.208.2285,1.1786,1.1786,0,0,0,.53.082v.2109H387.252v-.2109h.1113a.893.893,0,0,0,.5244-.1143.5988.5988,0,0,0,.208-.3369,3.4285,3.4285,0,0,0,.0234-.5507V230.209a2.2308,2.2308,0,0,0-.19-1.0635.68.68,0,0,0-.6416-.331,1.9321,1.9321,0,0,0-1.3887.7617v2.83a2.0217,2.0217,0,0,0,.0645.6738.5421.5421,0,0,0,.2256.249,1.3972,1.3972,0,0,0,.583.0791v.2109h-2.6543v-.2109h.1172a.63.63,0,0,0,.5537-.208,1.5177,1.5177,0,0,0,.1435-.7939v-1.9922a8.6629,8.6629,0,0,0-.0439-1.1778.5043.5043,0,0,0-.1348-.2871.3659.3659,0,0,0-.2431-.0762,1.1259,1.1259,0,0,0-.3926.0879l-.0879-.2109,1.6172-.6562h.2519Z" transform="translate(0.5 0.5)"/><path class="a83282bb-de8f-4f99-979d-cbd05e53d10b" d="M391.77,231.6621a1.7631,1.7631,0,0,1-1.0195-1.623,1.8315,1.8315,0,0,1,.6006-1.3711,2.1349,2.1349,0,0,1,1.5381-.5742,2.3417,2.3417,0,0,1,1.33.375h1.1367a1.493,1.493,0,0,1,.2929.0146.1.1,0,0,1,.0586.05.3587.3587,0,0,1,.0352.1875.5232.5232,0,0,1-.0293.2109.12.12,0,0,1-.0615.0469,1.2974,1.2974,0,0,1-.2959.0176h-.6973a1.8081,1.8081,0,0,1-.2461,2.3613,2.1746,2.1746,0,0,1-1.541.5332,2.9938,2.9938,0,0,1-.8145-.1172,1.547,1.547,0,0,0-.3486.39.6233.6233,0,0,0-.0908.2842.2713.2713,0,0,0,.0967.1933.7088.7088,0,0,0,.3779.1348q.1641.0234.82.041,1.207.0293,1.5645.082a1.4711,1.4711,0,0,1,.87.4043,1.104,1.104,0,0,1,.3252.8086,1.6947,1.6947,0,0,1-.6211,1.2422,3.3494,3.3494,0,0,1-2.3848.8555,3.4144,3.4144,0,0,1-1.91-.51q-.44-.2929-.44-.6094a.6694.6694,0,0,1,.0645-.2812,3.2773,3.2773,0,0,1,.41-.6035q.0411-.0528.5977-.6328a1.8489,1.8489,0,0,1-.4307-.3252.48.48,0,0,1-.126-.3252.9649.9649,0,0,1,.167-.4805A3.8486,3.8486,0,0,1,391.77,231.6621Zm-.0586,1.957a2.89,2.89,0,0,0-.416.5567,1.0045,1.0045,0,0,0-.1406.4746.5935.5935,0,0,0,.34.4922,3.2375,3.2375,0,0,0,1.6934.3633,2.62,2.62,0,0,0,1.5557-.3721,1.0226,1.0226,0,0,0,.5009-.794.4439.4439,0,0,0-.2988-.4335,3.9111,3.9111,0,0,0-1.207-.1524A19.28,19.28,0,0,1,391.7109,233.6191Zm1.0782-5.2441a.9151.9151,0,0,0-.7266.3457,1.614,1.614,0,0,0-.293,1.0606,2.2818,2.2818,0,0,0,.3985,1.4355.9439.9439,0,0,0,.7734.3867.9228.9228,0,0,0,.7324-.334,1.5868,1.5868,0,0,0,.2871-1.0488,2.3462,2.3462,0,0,0-.4043-1.459A.9281.9281,0,0,0,392.7891,228.375Z" transform="translate(0.5 0.5)"/><path class="a83282bb-de8f-4f99-979d-cbd05e53d10b" d="M397.8926,226.4883v1.7637h1.2539v.41h-1.2539v3.48a1.169,1.169,0,0,0,.1494.7031.4745.4745,0,0,0,.3838.1816.6711.6711,0,0,0,.375-.12.7721.7721,0,0,0,.2812-.3545h.2285a1.8386,1.8386,0,0,1-.58.8643,1.2513,1.2513,0,0,1-.7735.29,1.04,1.04,0,0,1-.5273-.1494.9037.9037,0,0,1-.3809-.4277,2.2467,2.2467,0,0,1-.123-.8584v-3.6094h-.85v-.1933a2.2277,2.2277,0,0,0,.6592-.4366,3.4675,3.4675,0,0,0,.6-.73,6.5433,6.5433,0,0,0,.375-.8144Z" transform="translate(0.5 0.5)"/><path class="a83282bb-de8f-4f99-979d-cbd05e53d10b" d="M401.2441,225.2871v3.9258a4.5146,4.5146,0,0,1,1.0313-.917,1.6116,1.6116,0,0,1,.7617-.2021,1.2513,1.2513,0,0,1,.7852.2519,1.4884,1.4884,0,0,1,.4863.791,5.6038,5.6038,0,0,1,.1113,1.3711v1.8985a1.9831,1.9831,0,0,0,.0821.6972.4571.4571,0,0,0,.1992.2227,1.1217,1.1217,0,0,0,.5156.082v.2109H402.58v-.2109h.123a.8781.8781,0,0,0,.5215-.1143.6057.6057,0,0,0,.2051-.3369,4.65,4.65,0,0,0,.0176-.5507v-1.8985a4.5573,4.5573,0,0,0-.0909-1.1543.7779.7779,0,0,0-.29-.4131.8242.8242,0,0,0-.4805-.1377,1.3549,1.3549,0,0,0-.5976.1524,2.85,2.85,0,0,0-.7442.6152v2.836a2.2044,2.2044,0,0,0,.0616.6855.5008.5008,0,0,0,.2285.2256,1.306,1.306,0,0,0,.5771.0908v.2109h-2.66v-.2109a1.1878,1.1878,0,0,0,.5625-.1113.4186.4186,0,0,0,.1875-.2227,2.0253,2.0253,0,0,0,.07-.6679v-4.8575a8.0947,8.0947,0,0,0-.044-1.1308.5043.5043,0,0,0-.1347-.2871.3662.3662,0,0,0-.2432-.0762,1.43,1.43,0,0,0-.3984.0937l-.0821-.205,1.6055-.6563Z" transform="translate(0.5 0.5)"/><path class="a83282bb-de8f-4f99-979d-cbd05e53d10b" d="M409.6992,226.4531l1.9336-.9433h.1934v6.709a3.565,3.565,0,0,0,.0556.832.4349.4349,0,0,0,.2315.2519,1.97,1.97,0,0,0,.7148.1v.2168H409.84v-.2168a2.0176,2.0176,0,0,0,.7266-.0966.48.48,0,0,0,.2285-.2286,3.1023,3.1023,0,0,0,.0645-.8583V227.93a6.315,6.315,0,0,0-.0586-1.1133.4705.4705,0,0,0-.1494-.2754.401.401,0,0,0-.2608-.0879,1.56,1.56,0,0,0-.6035.1817Z" transform="translate(0.5 0.5)"/><path class="a83282bb-de8f-4f99-979d-cbd05e53d10b" d="M419.502,225.6738l-.4571.9961h-2.3906l-.5215,1.0664a4.1849,4.1849,0,0,1,2.461,1.1543,2.5944,2.5944,0,0,1,.7792,1.875,2.6554,2.6554,0,0,1-.2548,1.16,3.1318,3.1318,0,0,1-.6416.9082,3.266,3.266,0,0,1-.8614.6035,3.1721,3.1721,0,0,1-1.3828.3223,1.7547,1.7547,0,0,1-1.04-.2432.6791.6791,0,0,1-.3252-.5361.3867.3867,0,0,1,.1348-.29.4779.4779,0,0,1,.34-.1259.7.7,0,0,1,.2666.0468,2.4749,2.4749,0,0,1,.39.24,1.5506,1.5506,0,0,0,.8907.3047,1.652,1.652,0,0,0,1.2041-.5186,1.7184,1.7184,0,0,0,.5185-1.2627,2.2131,2.2131,0,0,0-.4629-1.3447,2.9708,2.9708,0,0,0-1.2773-.9639,5.1836,5.1836,0,0,0-1.74-.3047l1.5234-3.0879Z" transform="translate(0.5 0.5)"/><path class="a83282bb-de8f-4f99-979d-cbd05e53d10b" d="M420.7266,229.6934a6.0539,6.0539,0,0,1,.41-2.3409,3.2757,3.2757,0,0,1,1.09-1.4619,1.8389,1.8389,0,0,1,1.09-.3808,2.0733,2.0733,0,0,1,1.6406.9316,4.9278,4.9278,0,0,1,.9082,3.1289,6.1682,6.1682,0,0,1-.3984,2.35,3.1084,3.1084,0,0,1-1.0166,1.4033,2.08,2.08,0,0,1-1.1924.4366,2.1936,2.1936,0,0,1-1.8926-1.3418A5.459,5.459,0,0,1,420.7266,229.6934Zm1.1484.1464a7.4753,7.4753,0,0,0,.4043,2.6778q.3341.873.9961.873a1.04,1.04,0,0,0,.6562-.2842,1.8085,1.8085,0,0,0,.5157-.9521,11.5791,11.5791,0,0,0,.2695-2.8418,7.78,7.78,0,0,0-.2813-2.2676,2.0117,2.0117,0,0,0-.5449-.9551.8959.8959,0,0,0-.58-.1933.9211.9211,0,0,0-.7089.3574,2.9853,2.9853,0,0,0-.5743,1.5293A14.2253,14.2253,0,0,0,421.875,229.84Z" transform="translate(0.5 0.5)"/></g></svg>